<?xml version="1.0" encoding="UTF-8"?>
<svg width="97px" height="57px" viewBox="0 0 97 57" version="1.1" xmlns="http://www.w3.org/2000/svg" xmlns:xlink="http://www.w3.org/1999/xlink">
    <!-- Generator: Sketch 53.2 (72643) - https://sketchapp.com -->
    <title>Icon/CryptoFX</title>
    <desc>Created with Sketch.</desc>
    <g id="Design" stroke="none" stroke-width="1" fill="none" fill-rule="evenodd">
        <g id="Revollet_LandingPage" transform="translate(-913.000000, -4472.000000)">
            <g id="E-wallet" transform="translate(425.000000, 3576.000000)">
                <g id="4" transform="translate(450.000000, 868.000000)">
                    <g id="Icon/CryptoFX" transform="translate(32.000000, 16.000000)">
                        <g>
                            <path d="M24,21 L80,21 C83.3137085,21 86,23.6862915 86,27 L86,61 C86,65.418278 82.418278,69 78,69 L27,69 C23.6862915,69 21,66.3137085 21,63 L21,24 C21,22.3431458 22.3431458,21 24,21 Z" id="Rectangle-Copy-44" fill="#FFCF07"></path>
                            <g id="Group-19" transform="translate(32.000000, 50.000000)" fill="#FFFFFF">
                                <rect id="Rectangle-Copy-14" x="0" y="0" width="18" height="3" rx="1.5"></rect>
                                <rect id="Rectangle-Copy-14" x="0" y="5" width="12" height="3" rx="1.5"></rect>
                            </g>
                            <g id="Group-21" transform="translate(57.000000, 50.000000)" fill="#FFFFFF">
                                <rect id="Rectangle-Copy-72" x="0" y="0" width="18" height="3" rx="1.5"></rect>
                                <rect id="Rectangle-Copy-71" x="0" y="5" width="12" height="3" rx="1.5"></rect>
                            </g>
                            <g id="Group-18" transform="translate(32.000000, 25.000000)">
                                <circle id="Oval" fill="#14161C" cx="3" cy="15" r="3"></circle>
                                <polyline id="Path-14" stroke="#14161C" stroke-width="3" points="3 15 13 6 23 14 33 3"></polyline>
                                <circle id="Oval-Copy-23" fill="#14161C" cx="13" cy="6" r="3"></circle>
                                <circle id="Oval-Copy-24" fill="#14161C" cx="23" cy="14" r="3"></circle>
                                <circle id="Oval-Copy-25" fill="#14161C" cx="33" cy="3" r="3"></circle>
                            </g>
                            <rect id="Rectangle-Copy-12" stroke="#14161C" stroke-width="2" x="18" y="18" width="65" height="48" rx="6"></rect>
                            <rect id="Rectangle-Copy-33" stroke="#14161C" stroke-width="2" fill="#14161C" x="73" y="13" width="20" height="23" rx="6"></rect>
                            <g id="Group-4" transform="translate(97.500000, 40.500000) scale(-1, 1) rotate(-360.000000) translate(-97.500000, -40.500000) translate(93.000000, 36.000000)" stroke="#14161C" stroke-linecap="round" stroke-width="2">
                                <path d="M5.00869593,-3.99680289e-15 C3.89565239,4.88498131e-15 2.22608708,4.88498131e-15 4.54747351e-13,4.88498131e-15" id="Shape"></path>
                                <path d="M10.7675018,5.75054979 C9.65445827,5.75054979 7.98489296,5.75054979 5.75880588,5.75054979" id="Shape-Copy" transform="translate(8.263154, 6.250550) rotate(90.000000) translate(-8.263154, -6.250550) "></path>
                            </g>
                            <rect id="Rectangle-Copy-35" stroke="#14161C" stroke-width="2" fill="#14161C" x="7" y="33" width="20" height="23" rx="6"></rect>
                            <polyline id="Path-10" stroke="#FFFFFF" stroke-width="2.5" stroke-linecap="round" stroke-linejoin="round" points="14 46 17 43 20 46"></polyline>
                            <polyline id="Path-10-Copy" stroke="#FFFFFF" stroke-width="2.5" stroke-linecap="round" stroke-linejoin="round" transform="translate(83.000000, 24.500000) scale(1, -1) translate(-83.000000, -24.500000) " points="80 26 83 23 86 26"></polyline>
                        </g>
                    </g>
                </g>
            </g>
        </g>
    </g>
</svg>