<?xml version="1.0" encoding="UTF-8"?>
<svg width="98px" height="57px" viewBox="0 0 98 57" version="1.1" xmlns="http://www.w3.org/2000/svg" xmlns:xlink="http://www.w3.org/1999/xlink">
    <!-- Generator: Sketch 53.2 (72643) - https://sketchapp.com -->
    <title>Icon/Exchange</title>
    <desc>Created with Sketch.</desc>
    <g id="Design" stroke="none" stroke-width="1" fill="none" fill-rule="evenodd">
        <g id="Revollet_LandingPage" transform="translate(-907.000000, -4156.000000)">
            <g id="E-wallet" transform="translate(425.000000, 3576.000000)">
                <g id="2" transform="translate(450.000000, 542.000000)">
                    <g id="Icon/Exchange" transform="translate(32.000000, 26.000000)">
                        <g>
                            <rect id="Rectangle" x="0" y="0" width="100" height="70"></rect>
                            <g id="2-copy" transform="translate(37.000000, 32.000000)">
                                <path d="M10,4 L48,4 C51.3137085,4 54,6.6862915 54,10 L54,29 C54,33.418278 50.418278,37 46,37 L10,37 C6.6862915,37 4,34.3137085 4,31 L4,10 C4,6.6862915 6.6862915,4 10,4 Z" id="Rectangle-Copy-43" fill="#FFCF07"></path>
                                <rect id="Rectangle-Copy-12" stroke="#14161C" stroke-width="2" x="1" y="1" width="50" height="33" rx="6"></rect>
                            </g>
                            <g id="2" transform="translate(0.000000, 12.000000)">
                                <rect id="Rectangle-Copy-12" stroke="#14161C" stroke-width="2" fill="#14161C" x="1" y="1" width="50" height="33" rx="6"></rect>
                                <path d="M29.4690474,12.0823706 C29.9637893,13.3842385 29.6471271,14.348823 28.9121548,15.0620429 C30.4263369,14.9932956 31.5554668,15.6049515 31.9214586,17.6219688 C32.3765616,20.1267172 30.8101567,21.3027807 28.3556168,22.19692 L29.0611431,24.7604716 L27.5767773,25.2038004 L26.8808728,22.6744852 C26.4963149,22.7896926 26.1013776,22.9039559 25.6918238,23.0167438 L26.3916417,25.5575597 L24.9087543,26 L24.2008808,23.4322156 C23.8530006,23.5335846 23.4975418,23.6328393 23.1379336,23.739719 L21.2062009,24.3165135 L20.9928068,22.3827274 C20.9928068,22.3827274 22.0957624,22.0727237 22.0719438,22.0608743 C22.4918156,21.9347011 22.5165331,21.5873685 22.4886599,21.3824738 L21.3730301,17.3302115 C21.427323,17.3134807 21.4803509,17.2980234 21.5297818,17.283189 C21.4660887,17.2927435 21.4114681,17.3071059 21.369913,17.3192582 L20.5731489,14.4267687 C20.4298552,14.1301484 20.1340722,13.8251411 19.5327541,14.0044588 C19.5451866,13.9780016 18.4549965,14.3270219 18.4549965,14.3270219 L18,12.6764841 L20.0475695,12.065974 L20.0499321,12.0737892 C20.3576211,11.9817003 20.6715208,11.8812604 20.9910217,11.7784798 L20.2924841,9.23997274 L21.7761106,8.7970882 L22.4612539,11.285669 C22.8552917,11.1591194 23.2519739,11.0320063 23.6421901,10.91545 L22.9612462,8.44332888 L24.445612,8 L25.144946,10.5390545 C27.1092076,10.1417807 28.7958805,10.3023344 29.4690474,12.0823706 Z M28.9045309,18.1933225 C28.3533846,16.1916586 25.2816832,17.4347197 24.2752924,17.7349063 L25.2119752,21.1374331 C26.2177257,20.836092 29.4338841,20.112141 28.9045309,18.1933225 Z M26.8920842,13.5990936 C26.3903579,11.7780846 23.8344825,12.8413976 22.9965297,13.0916417 L23.8463148,16.1775008 C24.6842676,15.9272567 27.3724748,15.3451915 26.8920842,13.5990936 Z" id="bch-e" fill="#FFFFFF" transform="translate(25.000000, 17.000000) rotate(18.000000) translate(-25.000000, -17.000000) "></path>
                            </g>
                            <path d="M59,51.6923077 L64.5,55.2523077 L64.5,60 L59,51.6923077 Z M70,51.6923077 L64.5,60 L64.5,55.2523077 L70,51.6923077 Z M64.5,54.1538462 L59,50.4615385 L70,50.4615385 L64.5,54.1538462 Z M64.5,40 L70,50.4615385 L59,50.4615385 L64.5,40 Z" id="Fill-1" fill="#14161C"></path>
                            <g id="Group" transform="translate(21.000000, 51.000000)" stroke="#14161C" stroke-linecap="round" stroke-width="2">
                                <path d="M3.00999572,2.019856 L3.00999572,5 C3.00999572,6.65685425 4.35314147,8 6.00999572,8 L12,8" id="Path-8"></path>
                                <polyline id="Path-10" stroke-linejoin="round" points="6.83897383e-14 3 3 4.6385118e-13 6 3"></polyline>
                            </g>
                            <g id="Group-Copy" transform="translate(62.000000, 24.000000) rotate(-180.000000) translate(-62.000000, -24.000000) translate(56.000000, 20.000000)" stroke="#14161C" stroke-linecap="round" stroke-width="2">
                                <path d="M3.00999572,2.019856 L3.00999572,5 C3.00999572,6.65685425 4.35314147,8 6.00999572,8 L12,8" id="Path-8"></path>
                                <polyline id="Path-10" stroke-linejoin="round" points="6.83897383e-14 3 3 4.6385118e-13 6 3"></polyline>
                            </g>
                            <g id="Group-4" transform="translate(92.500000, 27.500000) scale(-1, -1) rotate(-360.000000) translate(-92.500000, -27.500000) translate(88.000000, 23.000000)" stroke="#14161C" stroke-linecap="round" stroke-width="2">
                                <path d="M5.00869593,-3.99680289e-15 C3.89565239,4.88498131e-15 2.22608708,4.88498131e-15 4.54747351e-13,4.88498131e-15" id="Shape"></path>
                                <path d="M10.7675018,5.75054979 C9.65445827,5.75054979 7.98489296,5.75054979 5.75880588,5.75054979" id="Shape-Copy" transform="translate(8.263154, 6.250550) rotate(90.000000) translate(-8.263154, -6.250550) "></path>
                            </g>
                        </g>
                    </g>
                </g>
            </g>
        </g>
    </g>
</svg>