<?xml version="1.0" encoding="UTF-8"?>
<svg width="13px" height="13px" viewBox="0 0 13 13" version="1.1" xmlns="http://www.w3.org/2000/svg" xmlns:xlink="http://www.w3.org/1999/xlink">
    <!-- Generator: Sketch 53.2 (72643) - https://sketchapp.com -->
    <title>Fill 1</title>
    <desc>Created with Sketch.</desc>
    <g id="Design" stroke="none" stroke-width="1" fill="none" fill-rule="evenodd">
        <g id="Revollet_LandingPage" transform="translate(-890.000000, -9990.000000)" fill="#000000">
            <g id="Support" transform="translate(1.000000, 9327.000000)">
                <g id="Support/Button/CustomerFAQ" transform="translate(869.000000, 647.000000)">
                    <path d="M31.0600952,17.5987117 C30.3567683,17.0081753 29.5392231,16.5694652 28.6580819,16.3105028 C28.1182822,16.1459897 27.5612054,16.0459508 26.9975896,16.0129468 C26.7223533,15.9956844 26.4466099,15.9956844 26.1708665,16.0129468 C25.809817,16.0312271 25.4502755,16.0703249 25.093282,16.1297334 C24.337149,16.266325 23.60946,16.52985 22.9416491,16.9096625 C22.0433218,17.3966112 21.2871373,18.1090115 20.7473766,18.9762146 C20.0420216,20.0846628 19.8241673,21.4342911 20.1440978,22.7083053 C20.4035911,23.7669941 20.9896059,24.7164928 21.8199295,25.4223286 C22.85841,26.3317389 24.1497927,26.9035439 25.5209046,27.0604397 C25.6849258,27.0695791 25.8377801,27.1457444 25.9428982,27.2711635 C26.0485233,27.3970895 26.0972734,27.5605952 26.0774744,27.7235874 C26.0774744,27.936846 26.0292326,28.1485837 26.003334,28.3603215 C25.9632172,28.517724 25.9545839,28.6817433 25.9774353,28.8426946 C25.9794672,28.8883932 26.0007951,28.9315532 26.036341,28.9615116 C26.07138,28.9909617 26.1175911,29.0046715 26.163294,28.998579 C26.2968432,28.9813153 26.4278704,28.9472948 26.5532945,28.8970257 C27.1083303,28.6400911 27.634428,28.3257927 28.1234367,27.9586671 C29.2096532,27.1914378 30.2343796,26.3418741 31.1901409,25.4172681 C31.5232664,25.1120949 31.8243988,24.7739306 32.0899891,24.4088458 C32.6744829,23.5811851 32.9923724,22.5946008 32.9999969,21.5816029 C33.0005039,21.1317268 32.9390528,20.6843854 32.8166641,20.2518238 C32.5124897,19.2103974 31.9005659,18.2852325 31.0601017,17.598765 L31.0600952,17.5987117 Z" id="Fill-1"></path>
                </g>
            </g>
        </g>
    </g>
</svg>