<?xml version="1.0" encoding="UTF-8"?>
<svg width="86px" height="65px" viewBox="0 0 86 65" version="1.1" xmlns="http://www.w3.org/2000/svg" xmlns:xlink="http://www.w3.org/1999/xlink">
    <!-- Generator: Sketch 53.2 (72643) - https://sketchapp.com -->
    <title>Icon/Withdraw</title>
    <desc>Created with Sketch.</desc>
    <g id="Design" stroke="none" stroke-width="1" fill="none" fill-rule="evenodd">
        <g id="Revollet_LandingPage" transform="translate(-458.000000, -4465.000000)">
            <g id="E-wallet" transform="translate(425.000000, 3576.000000)">
                <g id="3" transform="translate(0.000000, 868.000000)">
                    <g id="Icon/Withdraw" transform="translate(33.000000, 22.000000)">
                        <g>
                            <g id="Group-4" transform="translate(48.500000, 4.500000) scale(-1, -1) rotate(-360.000000) translate(-48.500000, -4.500000) translate(44.000000, 0.000000)" stroke="#14161C" stroke-linecap="round" stroke-width="2">
                                <path d="M5.00869593,-3.99680289e-15 C3.89565239,4.88498131e-15 2.22608708,4.88498131e-15 4.54747351e-13,4.88498131e-15" id="Shape"></path>
                                <path d="M10.7675018,5.75054979 C9.65445827,5.75054979 7.98489296,5.75054979 5.75880588,5.75054979" id="Shape-Copy" transform="translate(8.263154, 6.250550) rotate(90.000000) translate(-8.263154, -6.250550) "></path>
                            </g>
                            <g id="Group" transform="translate(27.000000, 54.500000) scale(-1, 1) rotate(-90.000000) translate(-27.000000, -54.500000) translate(22.500000, 49.500000)" stroke="#14161C" stroke-linecap="round" stroke-width="2">
                                <path d="M1.51492586,2.51492586 L1.51492586,5.49506986 C1.51492586,7.15192411 2.85807161,8.49506986 4.51492586,8.49506986 L10.5049301,8.49506986" id="Path-8" transform="translate(6.009928, 5.504998) scale(1, -1) rotate(-270.000000) translate(-6.009928, -5.504998) "></path>
                                <polyline id="Path-10" stroke-linejoin="round" points="-1.13686838e-12 3 3 4.54747351e-13 6 3"></polyline>
                            </g>
                            <g id="Group-4" transform="translate(0.000000, 9.000000)">
                                <path d="M8,4 L41,4 C44.3137085,4 47,6.6862915 47,10 L47,31 C47,34.3137085 44.3137085,37 41,37 L10,37 C6.6862915,37 4,34.3137085 4,31 L4,8 C4,5.790861 5.790861,4 8,4 Z" id="Rectangle-Copy-44" fill="#FFCF07"></path>
                                <rect id="Rectangle-Copy-23" stroke="#14161C" stroke-width="2" x="1" y="1" width="43" height="33" rx="6"></rect>
                                <path d="M26.4690474,13.0823706 C26.9637893,14.3842385 26.6471271,15.348823 25.9121548,16.0620429 C27.4263369,15.9932956 28.5554668,16.6049515 28.9214586,18.6219688 C29.3765616,21.1267172 27.8101567,22.3027807 25.3556168,23.19692 L26.0611431,25.7604716 L24.5767773,26.2038004 L23.8808728,23.6744852 C23.4963149,23.7896926 23.1013776,23.9039559 22.6918238,24.0167438 L23.3916417,26.5575597 L21.9087543,27 L21.2008808,24.4322156 C20.8530006,24.5335846 20.4975418,24.6328393 20.1379336,24.739719 L18.2062009,25.3165135 L17.9928068,23.3827274 C17.9928068,23.3827274 19.0957624,23.0727237 19.0719438,23.0608743 C19.4918156,22.9347011 19.5165331,22.5873685 19.4886599,22.3824738 L18.3730301,18.3302115 C18.427323,18.3134807 18.4803509,18.2980234 18.5297818,18.283189 C18.4660887,18.2927435 18.4114681,18.3071059 18.369913,18.3192582 L17.5731489,15.4267687 C17.4298552,15.1301484 17.1340722,14.8251411 16.5327541,15.0044588 C16.5451866,14.9780016 15.4549965,15.3270219 15.4549965,15.3270219 L15,13.6764841 L17.0475695,13.065974 L17.0499321,13.0737892 C17.3576211,12.9817003 17.6715208,12.8812604 17.9910217,12.7784798 L17.2924841,10.2399727 L18.7761106,9.7970882 L19.4612539,12.285669 C19.8552917,12.1591194 20.2519739,12.0320063 20.6421901,11.91545 L19.9612462,9.44332888 L21.445612,9 L22.144946,11.5390545 C24.1092076,11.1417807 25.7958805,11.3023344 26.4690474,13.0823706 Z M25.9045309,19.1933225 C25.3533846,17.1916586 22.2816832,18.4347197 21.2752924,18.7349063 L22.2119752,22.1374331 C23.2177257,21.836092 26.4338841,21.112141 25.9045309,19.1933225 Z M23.8920842,14.5990936 C23.3903579,12.7780846 20.8344825,13.8413976 19.9965297,14.0916417 L20.8463148,17.1775008 C21.6842676,16.9272567 24.3724748,16.3451915 23.8920842,14.5990936 Z" id="bch-e" fill="#14161C" transform="translate(22.000000, 18.000000) rotate(18.000000) translate(-22.000000, -18.000000) "></path>
                            </g>
                            <g id="Group-8" transform="translate(40.000000, 25.000000)">
                                <rect id="Rectangle" fill="#14161C" x="4" y="10" width="38" height="28" rx="3.5"></rect>
                                <rect id="Rectangle-Copy-8" fill="#14161C" x="2" y="34" width="42" height="4" rx="2"></rect>
                                <rect id="Rectangle-Copy-111" fill="#14161C" x="0" y="36" width="46" height="3" rx="1.5"></rect>
                                <rect id="Rectangle-Copy-15" fill="#FFFFFF" x="11" y="16" width="8" height="18" rx="2"></rect>
                                <rect id="Rectangle-Copy-16" fill="#FFFFFF" x="27" y="16" width="8" height="18" rx="2"></rect>
                                <path d="M1.34915085,12.4240188 C1.13455795,12.5359804 1,12.7579556 1,13 L45,13 C45,12.7579556 44.865442,12.5359804 44.6508491,12.4240188 L24.850264,2.09327878 C23.6909091,1.48839796 22.3090909,1.48839796 21.149736,2.09327878 L1.34915085,12.4240188 Z" id="Rectangle-Copy-66" stroke="#14161C" stroke-width="2" fill="#14161C"></path>
                                <circle id="Oval" fill="#FFFFFF" cx="23" cy="8" r="2"></circle>
                            </g>
                        </g>
                    </g>
                </g>
            </g>
        </g>
    </g>
</svg>