<?xml version="1.0" encoding="UTF-8"?>
<svg width="548px" height="548px" viewBox="0 0 548 548" version="1.1" xmlns="http://www.w3.org/2000/svg" xmlns:xlink="http://www.w3.org/1999/xlink">
    <!-- Generator: Sketch 53.2 (72643) - https://sketchapp.com -->
    <title>Ewallet/Illustration</title>
    <desc>Created with Sketch.</desc>
    <defs>
        <circle id="path-1" cx="28.6493039" cy="28.6493039" r="28.6493039"></circle>
        <filter x="-45.4%" y="-33.2%" width="190.8%" height="190.8%" filterUnits="objectBoundingBox" id="filter-2">
            <feOffset dx="0" dy="7" in="SourceAlpha" result="shadowOffsetOuter1"></feOffset>
            <feGaussianBlur stdDeviation="7.5" in="shadowOffsetOuter1" result="shadowBlurOuter1"></feGaussianBlur>
            <feComposite in="shadowBlurOuter1" in2="SourceAlpha" operator="out" result="shadowBlurOuter1"></feComposite>
            <feColorMatrix values="0 0 0 0 0   0 0 0 0 0   0 0 0 0 0  0 0 0 0.2 0" type="matrix" in="shadowBlurOuter1"></feColorMatrix>
        </filter>
        <rect id="path-3" x="0" y="0" width="150" height="72" rx="16"></rect>
        <filter x="-17.3%" y="-26.4%" width="134.7%" height="172.2%" filterUnits="objectBoundingBox" id="filter-4">
            <feOffset dx="0" dy="7" in="SourceAlpha" result="shadowOffsetOuter1"></feOffset>
            <feGaussianBlur stdDeviation="7.5" in="shadowOffsetOuter1" result="shadowBlurOuter1"></feGaussianBlur>
            <feColorMatrix values="0 0 0 0 0   0 0 0 0 0   0 0 0 0 0  0 0 0 0.2 0" type="matrix" in="shadowBlurOuter1"></feColorMatrix>
        </filter>
        <filter x="-100.0%" y="-100.0%" width="300.0%" height="300.0%" filterUnits="objectBoundingBox" id="filter-5">
            <feGaussianBlur stdDeviation="6" in="SourceGraphic"></feGaussianBlur>
        </filter>
        <rect id="path-6" x="0" y="0" width="150" height="72" rx="16"></rect>
        <filter x="-17.3%" y="-26.4%" width="134.7%" height="172.2%" filterUnits="objectBoundingBox" id="filter-7">
            <feOffset dx="0" dy="7" in="SourceAlpha" result="shadowOffsetOuter1"></feOffset>
            <feGaussianBlur stdDeviation="7.5" in="shadowOffsetOuter1" result="shadowBlurOuter1"></feGaussianBlur>
            <feColorMatrix values="0 0 0 0 0   0 0 0 0 0   0 0 0 0 0  0 0 0 0.2 0" type="matrix" in="shadowBlurOuter1"></feColorMatrix>
        </filter>
        <filter x="-100.0%" y="-100.0%" width="300.0%" height="300.0%" filterUnits="objectBoundingBox" id="filter-8">
            <feGaussianBlur stdDeviation="6" in="SourceGraphic"></feGaussianBlur>
        </filter>
        <rect id="path-9" x="0" y="0" width="130" height="72" rx="16"></rect>
        <filter x="-20.0%" y="-26.4%" width="140.0%" height="172.2%" filterUnits="objectBoundingBox" id="filter-10">
            <feOffset dx="0" dy="7" in="SourceAlpha" result="shadowOffsetOuter1"></feOffset>
            <feGaussianBlur stdDeviation="7.5" in="shadowOffsetOuter1" result="shadowBlurOuter1"></feGaussianBlur>
            <feColorMatrix values="0 0 0 0 0   0 0 0 0 0   0 0 0 0 0  0 0 0 0.2 0" type="matrix" in="shadowBlurOuter1"></feColorMatrix>
        </filter>
        <filter x="-100.0%" y="-100.0%" width="300.0%" height="300.0%" filterUnits="objectBoundingBox" id="filter-11">
            <feGaussianBlur stdDeviation="6" in="SourceGraphic"></feGaussianBlur>
        </filter>
    </defs>
    <g id="Design" stroke="none" stroke-width="1" fill="none" fill-rule="evenodd">
        <g id="Revollet_LandingPage" transform="translate(-1071.000000, -3576.000000)">
            <g id="E-wallet" transform="translate(425.000000, 3576.000000)">
                <g id="Ewallet/Illustration" transform="translate(646.000000, 0.000000)">
                    <g id="Group-23">
                        <circle id="Oval-Copy-22" stroke="#FAFAFA" stroke-width="2" cx="274" cy="274" r="273"></circle>
                        <circle id="Oval-Copy-29" fill="#FAFAFA" cx="274" cy="274" r="200"></circle>
                        <path d="M181,120 L456,120 C469.254834,120 480,130.745166 480,144 L480,319 C480,332.254834 469.254834,343 456,343 L185,343 C171.745166,343 161,332.254834 161,319 L161,140 C161,128.954305 169.954305,120 181,120 Z" id="Rectangle-Copy-89" fill="#FFCF07"></path>
                        <rect id="Rectangle-Copy-90" stroke="#14161C" stroke-width="2" fill="#FFFFFF" x="283" y="151" width="58" height="12" rx="6"></rect>
                        <rect id="Rectangle-Copy-99" stroke="#14161C" stroke-width="2" fill="#FFFFFF" x="353" y="151" width="58" height="12" rx="6"></rect>
                        <rect id="Rectangle" stroke="#14161C" stroke-width="2" x="158" y="117" width="318" height="222" rx="24"></rect>
                        <rect id="Rectangle-Copy-80" stroke="#14161C" stroke-width="2" fill="#FFFFFF" x="112" y="182" width="318" height="232" rx="24"></rect>
                        <rect id="Rectangle-Copy-87" stroke="#14161C" stroke-width="2" fill="#FFFFFF" x="312" y="326" width="98" height="68" rx="6"></rect>
                        <rect id="Rectangle-Copy-97" stroke="#14161C" stroke-width="2" fill="#FFFFFF" x="323" y="343" width="58" height="1" rx="0.5"></rect>
                        <rect id="Rectangle-Copy-106" stroke="#14161C" stroke-width="2" fill="#FFFFFF" x="323" y="353" width="38" height="1" rx="0.5"></rect>
                        <rect id="Rectangle-Copy-108" stroke="#14161C" stroke-width="2" fill="#FFFFFF" x="323" y="370" width="58" height="1" rx="0.5"></rect>
                        <rect id="Rectangle-Copy-107" stroke="#14161C" stroke-width="2" fill="#FFFFFF" x="323" y="380" width="38" height="1" rx="0.5"></rect>
                        <rect id="Rectangle-Copy-88" stroke="#14161C" stroke-width="2" fill="#FFFFFF" x="312" y="246" width="98" height="68" rx="6"></rect>
                        <rect id="Rectangle-Copy-104" fill="#FFCF07" x="342" y="293" width="41" height="13" rx="4"></rect>
                        <rect id="Rectangle-Copy-105" stroke="#14161C" stroke-width="2" x="341" y="292" width="39" height="11" rx="4"></rect>
                        <rect id="Rectangle-Copy-90" stroke="#14161C" stroke-width="2" fill="#FFFFFF" x="243" y="247" width="58" height="34" rx="8"></rect>
                        <g id="Group-24" transform="translate(250.000000, 270.000000)" fill="#14161C">
                            <circle id="Oval" cx="2" cy="2" r="2"></circle>
                            <circle id="Oval-Copy-32" cx="12" cy="2" r="2"></circle>
                            <circle id="Oval-Copy-33" cx="22" cy="2" r="2"></circle>
                        </g>
                        <rect id="Rectangle-Copy-91" fill="#FFCF07" x="246" y="295" width="60" height="36" rx="6"></rect>
                        <rect id="Rectangle-Copy-92" stroke="#14161C" stroke-width="2" fill="#14161C" x="243" y="292" width="58" height="34" rx="8"></rect>
                        <g id="Group-24-Copy" transform="translate(250.000000, 315.000000)" fill="#FFFFFF">
                            <circle id="Oval" cx="2" cy="2" r="2"></circle>
                            <circle id="Oval-Copy-32" cx="12" cy="2" r="2"></circle>
                            <circle id="Oval-Copy-33" cx="22" cy="2" r="2"></circle>
                        </g>
                        <rect id="Rectangle-Copy-101" fill="#FFCF07" x="386" y="402" width="26" height="26" rx="13"></rect>
                        <rect id="Rectangle-Copy-92" stroke="#14161C" stroke-width="2" fill="#14161C" x="385" y="401" width="24" height="24" rx="12"></rect>
                        <rect id="Rectangle-Copy-95" stroke="#14161C" stroke-width="2" fill="#FFFFFF" x="173" y="247" width="58" height="34" rx="6"></rect>
                        <circle id="Oval" fill="#14161C" cx="182" cy="272" r="2"></circle>
                        <circle id="Oval-Copy-32" fill="#14161C" cx="192" cy="272" r="2"></circle>
                        <circle id="Oval-Copy-33" fill="#14161C" cx="202" cy="272" r="2"></circle>
                        <rect id="Rectangle-Copy-96" stroke="#14161C" stroke-width="2" fill="#FFFFFF" x="133" y="247" width="18" height="1" rx="0.5"></rect>
                        <rect id="Rectangle-Copy-102" stroke="#14161C" stroke-width="2" fill="#14161C" x="394" y="204" width="18" height="3" rx="1.5"></rect>
                        <rect id="Rectangle-Copy-103" stroke="#14161C" stroke-width="2" fill="#14161C" x="364" y="204" width="18" height="3" rx="1.5"></rect>
                        <rect id="Rectangle-Copy-96" stroke="#14161C" stroke-width="2" fill="#FFFFFF" x="284" y="141" width="18" height="1" rx="0.5"></rect>
                        <rect id="Rectangle-Copy-100" stroke="#14161C" stroke-width="2" fill="#FFFFFF" x="354" y="141" width="18" height="1" rx="0.5"></rect>
                        <rect id="Rectangle-Copy-97" stroke="#14161C" stroke-width="2" fill="#FFFFFF" x="133" y="267" width="18" height="1" rx="0.5"></rect>
                        <rect id="Rectangle-Copy-98" stroke="#14161C" stroke-width="2" fill="#FFFFFF" x="133" y="287" width="18" height="1" rx="0.5"></rect>
                        <rect id="Rectangle-Copy-94" stroke="#14161C" stroke-width="2" fill="#FFFFFF" x="173" y="293" width="58" height="34" rx="6"></rect>
                        <rect id="Rectangle-Copy-93" stroke="#14161C" stroke-width="2" fill="#FFFFFF" x="173" y="339" width="58" height="34" rx="6"></rect>
                        <g id="Group-24" transform="translate(180.000000, 316.000000)" fill="#14161C">
                            <circle id="Oval" cx="2" cy="48" r="2"></circle>
                            <circle id="Oval-Copy-32" cx="12" cy="48" r="2"></circle>
                            <circle id="Oval-Copy-33" cx="22" cy="48" r="2"></circle>
                            <circle id="Oval-Copy-37" cx="2" cy="2" r="2"></circle>
                            <circle id="Oval-Copy-36" cx="12" cy="2" r="2"></circle>
                            <circle id="Oval-Copy-35" cx="22" cy="2" r="2"></circle>
                        </g>
                        <rect id="Rectangle-Copy-81" fill="#FFCF07" x="133" y="202" width="14" height="14" rx="7"></rect>
                        <rect id="Rectangle-Copy-82" fill="#FFCF07" x="153" y="202" width="14" height="14" rx="7"></rect>
                        <rect id="Rectangle-Copy-83" fill="#FFCF07" x="173" y="202" width="14" height="14" rx="7"></rect>
                        <rect id="Rectangle-Copy-86" stroke="#14161C" stroke-width="2" x="132" y="201" width="12" height="12" rx="6"></rect>
                        <rect id="Rectangle-Copy-85" stroke="#14161C" stroke-width="2" x="152" y="201" width="12" height="12" rx="6"></rect>
                        <rect id="Rectangle-Copy-84" stroke="#14161C" stroke-width="2" x="172" y="201" width="12" height="12" rx="6"></rect>
                        <rect id="Rectangle-Copy-86" fill="#14161C" x="177" y="135" width="14" height="14" rx="7"></rect>
                        <rect id="Rectangle-Copy-85" fill="#14161C" x="197" y="135" width="14" height="14" rx="7"></rect>
                        <rect id="Rectangle-Copy-84" fill="#14161C" x="217" y="135" width="14" height="14" rx="7"></rect>
                        <g id="colored/ada" transform="translate(121.000000, 384.000000)">
                            <g id="Circle">
                                <use fill="black" fill-opacity="1" filter="url(#filter-2)" xlink:href="#path-1"></use>
                                <circle stroke="#14161C" stroke-width="2" stroke-linejoin="square" fill="#14161C" fill-rule="evenodd" cx="28.6493039" cy="28.6493039" r="27.6493039"></circle>
                            </g>
                            <path d="M28.1806966,11.2450145 C29.0132479,10.8143272 30.0295374,11.8134535 29.5871907,12.6386374 C29.3303013,13.3112903 28.3562218,13.4901591 27.8586773,12.9774271 C27.3315286,12.4853484 27.5034249,11.5127493 28.1806966,11.2450145 Z M19.2258511,12.2026447 C19.7316085,11.9961119 20.3718269,12.4557896 20.3202579,13.0026279 C20.3739278,13.5962677 19.6422223,14.0332078 19.1267243,13.7510726 C18.4437228,13.4886432 18.5218401,12.3887138 19.2258511,12.2026447 Z M37.5664288,13.7677468 C36.7760875,13.6730069 36.6509852,12.4402522 37.4119131,12.1920339 C38.0020907,11.906488 38.5435641,12.4419576 38.6298944,12.9969435 C38.506129,13.4708321 38.1061834,13.9047406 37.5664288,13.7677468 Z M21.263396,15.9837115 C22.108935,15.4531684 23.3154566,16.2432986 23.1853883,17.2176031 C23.1414592,18.2013815 21.8243511,18.7713363 21.0811858,18.1062627 C20.362659,17.5838673 20.4715267,16.3854084 21.263396,15.9837115 Z M34.1710937,16.5466556 C34.5483107,15.5822041 36.0768514,15.5530242 36.5062103,16.4918959 C36.9306034,17.2225295 36.4086114,18.1272949 35.6524583,18.3757028 C34.6508756,18.5612034 33.6995247,17.4870432 34.1710937,16.5466556 Z M27.1023333,18.3209432 C27.0941206,17.4919696 27.8552394,16.8742659 28.6494005,16.817801 C29.1761674,16.9225832 29.7503013,17.1452218 29.9762496,17.6725438 C30.3973956,18.3999562 30.0234256,19.4015457 29.2624977,19.7354089 C28.9145029,19.9288677 28.5030978,19.8562969 28.1241617,19.8337488 C27.5448711,19.5516136 27.0570674,18.998333 27.1023333,18.3209432 Z M13.7851403,19.528876 C14.557528,19.0578296 15.5996019,19.9174989 15.3071871,20.7498831 C15.1461775,21.4699058 14.1705702,21.7628414 13.612862,21.3031637 C13.0175276,20.8724763 13.1118796,19.83697 13.7851403,19.528876 Z M42.3820099,19.5273602 C43.037317,19.0225864 44.1187362,19.6016362 44.0406187,20.4224621 C44.0845479,21.1709069 43.1496227,21.7353667 42.4990904,21.3499651 C41.7826645,21.0305025 41.7095132,19.9370152 42.3820099,19.5273602 Z M30.8473821,21.0176177 C31.9288013,20.6322161 33.213249,21.0934097 33.829593,22.0499029 C34.6426628,23.2191821 34.2100569,24.999912 32.9483376,25.6708594 C31.6409703,26.4644002 29.7319658,25.7917475 29.2491279,24.3433649 C28.7009695,23.0467555 29.4995237,21.4240516 30.8473821,21.0176177 Z M24.5024964,21.1451375 C25.7009961,20.5838988 27.3139569,21.0547558 27.8928657,22.2710257 C28.5741482,23.4548947 28.0473813,25.1033678 26.8294002,25.7146292 C25.609891,26.4016825 23.8893994,25.8808029 23.2992218,24.6097733 C22.6374209,23.3806187 23.2251155,21.7111134 24.5024964,21.1451375 Z M18.1493979,23.2999003 C18.2405029,22.5338341 18.9689616,22.0353131 19.7039139,21.9837746 C20.4957832,22.0785145 21.1283619,22.688639 21.2145011,23.4836956 C21.1625501,24.2707942 20.5494531,25.0400817 19.708689,25.0353446 C18.7836955,25.1143577 17.9727267,24.2014446 18.1493979,23.2999003 Z M36.9143686,22.1503272 C37.8640005,21.6019732 39.1826367,22.4002508 39.1404265,23.4825587 C39.2055562,24.6292896 37.746156,25.4374205 36.8005351,24.7647678 C35.8182428,24.2046659 35.8948323,22.6272476 36.9143686,22.1503272 Z M21.9204221,26.1919285 C23.0310635,25.8887611 24.3009957,26.4081249 24.8457161,27.4208936 C25.4423875,28.4402942 25.1984857,29.8564653 24.2717733,30.604152 C23.0832054,31.7008604 20.8911448,31.2605096 20.2585663,29.7638097 C19.5316356,28.3917875 20.41461,26.5530768 21.9204221,26.1919285 Z M33.9548863,26.1862441 C35.0345865,25.8798556 36.3029906,26.2927317 36.8834273,27.268552 C37.650849,28.3845872 37.2845188,30.0491661 36.1419809,30.7686204 C34.9452004,31.6040362 33.0913937,31.1653908 32.4328395,29.859118 C31.6344765,28.5079385 32.4378055,26.5983624 33.9548863,26.1862441 Z M14.7769823,27.4595475 C15.736355,27.0995361 16.7998205,28.1498219 16.4111437,29.0934307 C16.1737357,29.9530998 14.9525076,30.2708573 14.321648,29.6370478 C13.5834486,29.0418922 13.8567638,27.7176188 14.7769823,27.4595475 Z M40.7810818,28.8289171 C40.7533874,28.0403027 41.3349701,27.3418807 42.1501409,27.2983002 C42.807167,27.4015667 43.4460484,27.9273728 43.3940974,28.6369741 C43.4542612,29.5741406 42.3159252,30.2111712 41.5110683,29.7708205 C41.1338514,29.580583 40.9403725,29.1966971 40.7810818,28.8289171 Z M10.0597642,27.9224462 C10.636954,27.6725226 11.3508969,28.1687699 11.2191096,28.8046636 C11.1881683,29.5246864 10.116681,29.8015162 9.72303831,29.1999182 C9.37523468,28.7821156 9.58342028,28.1378846 10.0597642,27.9224462 Z M46.4527067,27.9080459 C46.8591461,27.6209841 47.5112062,27.8273275 47.6722159,28.2983739 C47.9453401,28.8128113 47.4445487,29.5176757 46.860865,29.4307045 C46.0414925,29.504791 45.7763901,28.265973 46.4527067,27.9080459 Z M25.0554298,31.3643445 C26.5742295,30.9725005 28.206863,32.2289402 28.2164128,33.7803997 C28.3155396,35.3481545 26.7075448,36.7383669 25.1528376,36.3762711 C23.9510911,36.1843283 23.008144,35.035892 23.0471072,33.8311803 C23.0438602,32.6789544 23.9203408,31.6080153 25.0554298,31.3643445 Z M31.0702744,31.3611234 C32.6118028,30.9336572 34.2931402,32.212645 34.2686927,33.7999161 C34.350057,35.3386806 32.7922939,36.6820913 31.2700562,36.3768395 C29.8375865,36.1930442 28.7806149,34.6317319 29.1805604,33.2526988 C29.3824432,32.3337224 30.1563587,31.5864146 31.0702744,31.3611234 Z M19.4731908,32.3161008 C20.5399033,32.1355268 21.5399582,33.3161745 21.1073523,34.3209852 C20.7918269,35.3917348 19.2210762,35.6822072 18.5266149,34.8075689 C17.7120172,33.9676056 18.3201483,32.4320624 19.4731908,32.3161008 Z M37.1126225,32.3632813 C38.0637823,31.9680266 39.2313407,32.784305 39.1581891,33.8084427 C39.1963883,34.9358467 37.7549419,35.7132818 36.8247915,35.055219 C35.7712578,34.4644214 35.9630177,32.7257559 37.1126225,32.3632813 Z M42.0429921,37.2692888 C41.67055,36.5805302 42.3470577,35.6676171 43.1179173,35.7951369 C43.5016282,35.7886947 43.7699774,36.0886411 44.0155982,36.34027 C44.0660212,36.7484092 44.1506325,37.235372 43.8091317,37.5499082 C43.3453934,38.1321792 42.2949158,37.9660055 42.0429921,37.2692888 Z M13.7818934,35.9868904 C14.5023301,35.5111069 15.5390562,36.2207084 15.3770916,37.0563137 C15.2909524,37.7952843 14.3525893,38.2176345 13.7345264,37.7983161 C13.0711974,37.4176513 13.0956449,36.3338277 13.7818934,35.9868904 Z M28.0149121,37.5338023 C28.9580501,37.1209263 30.1596057,37.9354993 30.0702195,38.9660792 C30.1401241,40.104852 28.6539845,40.8934664 27.731856,40.2096342 C26.7075448,39.6224368 26.8782951,37.8949506 28.0149121,37.5338023 Z M21.4226865,39.0594927 C22.2260156,38.6401742 23.3039969,39.3643654 23.2308453,40.2562462 C23.2552929,40.9885851 22.534856,41.6127311 21.8063975,41.5045383 C21.2030413,41.4916537 20.8095896,40.9550472 20.6161107,40.4447786 C20.6260424,39.8886558 20.8567656,39.2692467 21.4226865,39.0594927 Z M34.7759779,39.0723772 C35.6020354,38.5658982 36.7760875,39.2933107 36.6979702,40.2471512 C36.7191708,41.2440038 35.3923219,41.8825502 34.6231812,41.2277086 C33.8784879,40.7144081 33.9694019,39.4805166 34.7759779,39.0723772 Z M37.0981067,44.7675676 C36.7306305,44.2159923 37.1632364,43.5514871 37.7599078,43.4256726 C38.2396896,43.5224968 38.7469749,43.8804238 38.646129,44.4321887 C38.5762245,45.1789281 37.4753238,45.408009 37.0981067,44.7675676 Z M18.664896,44.288563 C18.8111989,43.8514334 19.1656875,43.4169566 19.6844323,43.5306444 C20.4405854,43.5838881 20.6650056,44.7145134 20.0032047,45.0629664 C19.4080613,45.4610632 18.7176109,44.9159303 18.664896,44.288563 Z M27.5578587,44.7901158 C27.7026336,44.1434216 28.5464538,43.8288854 29.102634,44.172412 C29.4701102,44.3289222 29.5774499,44.7368719 29.671802,45.0836198 C29.6213791,45.2641938 29.5763041,45.4449574 29.5319929,45.6255316 C29.3043257,45.8932664 29.01172,46.1610011 28.6327839,46.1513376 C27.9285819,46.2331929 27.2933294,45.4434416 27.5578587,44.7901158 Z" id="ada-e" fill="#FFFFFF"></path>
                        </g>
                        <g id="Group-6" transform="translate(381.000000, 218.000000)">
                            <g id="Rectangle">
                                <use fill="black" fill-opacity="1" filter="url(#filter-4)" xlink:href="#path-3"></use>
                                <use fill="#FFFFFF" fill-rule="evenodd" xlink:href="#path-3"></use>
                            </g>
                            <rect id="Rectangle" fill="#D8D8D8" x="61" y="40" width="55" height="4" rx="2"></rect>
                            <rect id="Rectangle-Copy-34" fill="#D8D8D8" x="61" y="28" width="65" height="4" rx="2"></rect>
                            <g id="cryptos/icon/bitcoincash/v1" transform="translate(16.000000, 18.000000)">
                                <g id="colored/bch">
                                    <rect id="Shadow" fill="#8DC351" filter="url(#filter-5)" x="9" y="16" width="18" height="18" rx="9"></rect>
                                    <circle id="Circle" fill="#8DC351" fill-rule="nonzero" cx="18" cy="18" r="18"></circle>
                                    <path d="M22.9267004,11.9895641 C23.5274584,13.580736 23.1429401,14.7596725 22.2504736,15.6313858 C24.0891234,15.5473612 25.4602097,16.2949407 25.9046283,18.7601841 C26.4572534,21.8215433 24.5551903,23.2589542 21.5746776,24.3517912 L22.4313881,27.4850208 L20.6289439,28.0268672 L19.783917,24.935482 C19.3169538,25.0762909 18.8373871,25.2159461 18.3400717,25.353798 L19.1898507,28.4592397 L17.3892017,29 L16.5296409,25.8615969 C16.1072151,25.9854923 15.6755865,26.1068036 15.2389194,26.2374343 L12.893244,26.9424054 L12.6341226,24.578889 C12.6341226,24.578889 13.9734257,24.1999957 13.9445032,24.1855131 C14.4543475,24.0313013 14.4843616,23.6067837 14.4505156,23.3563569 L13.0958223,18.4035918 C13.1617493,18.383143 13.2261403,18.3642508 13.2861636,18.3461199 C13.208822,18.3577976 13.142497,18.3753516 13.0920372,18.3902045 L12.124538,14.8549396 C11.9505384,14.4924036 11.5913734,14.1196169 10.8612014,14.338783 C10.876298,14.3064464 9.55249575,14.7330267 9.55249575,14.7330267 L9,12.7157028 L11.4863344,11.9695238 L11.4892033,11.9790757 C11.8628257,11.8665226 12.2439896,11.7437627 12.6319549,11.618142 L11.7837307,8.51552224 L13.5852772,7.97421892 L14.4172369,11.0158176 C14.8957114,10.8611459 15.3773968,10.7057855 15.8512309,10.5633278 L15.0243704,7.54184641 L16.8268146,7 L17.6760058,10.1032888 C20.0611806,9.61773191 22.1092834,9.81396433 22.9267004,11.9895641 Z M22.2412161,19.4585053 C21.571967,17.0120272 17.8420439,18.531324 16.6199979,18.8982188 L17.7573984,23.0568627 C18.978667,22.6885569 22.8840022,21.8037279 22.2412161,19.4585053 Z M19.7975308,13.8433367 C19.1882917,11.617659 16.0847287,12.9172637 15.0672146,13.2231177 L16.0990966,16.9947231 C17.1166106,16.6888693 20.3808623,15.9774563 19.7975308,13.8433367 Z" id="bch-e" fill="#FFFFFF"></path>
                                </g>
                            </g>
                        </g>
                        <g id="Group-6-Copy-2" transform="translate(85.000000, 381.000000)">
                            <g id="Rectangle">
                                <use fill="black" fill-opacity="1" filter="url(#filter-7)" xlink:href="#path-6"></use>
                                <use fill="#FFFFFF" fill-rule="evenodd" xlink:href="#path-6"></use>
                            </g>
                            <rect id="Rectangle" fill="#D8D8D8" x="61" y="40" width="65" height="4" rx="2"></rect>
                            <rect id="Rectangle-Copy-34" fill="#D8D8D8" x="61" y="28" width="45" height="4" rx="2"></rect>
                            <g id="cryptos/icon/cardano/v1" transform="translate(16.000000, 18.000000)">
                                <g id="colored/ada">
                                    <rect id="Shadow" fill="#53DDDD" filter="url(#filter-8)" x="9" y="16" width="18" height="18" rx="9"></rect>
                                    <circle id="Circle" fill="#53DDDD" fill-rule="nonzero" cx="18" cy="18" r="18"></circle>
                                    <path d="M17.7055799,7.06510222 C18.2286614,6.79450678 18.8671834,7.42224535 18.5892625,7.94069812 C18.4278621,8.36331749 17.8158601,8.47569853 17.5032592,8.15355542 C17.1720582,7.84438852 17.2800585,7.23331663 17.7055799,7.06510222 Z M12.0793622,7.66676934 C12.3971233,7.53700734 12.7993645,7.82581709 12.7669643,8.16938878 C12.8006845,8.54236524 12.3409631,8.81688927 12.0170821,8.63962722 C11.5879608,8.47474614 11.6370409,7.7836742 12.0793622,7.66676934 Z M23.6025182,8.65010342 C23.1059567,8.59057956 23.0273564,7.81605517 23.5054379,7.66010267 C23.8762392,7.48069777 24.2164402,7.8171266 24.2706804,8.16581734 C24.1929201,8.46355566 23.9416393,8.73617492 23.6025182,8.65010342 Z M13.3595263,10.0423664 C13.8907679,9.70903279 14.6488103,10.2054617 14.56709,10.8176051 C14.5394899,11.4357008 13.7119673,11.7937963 13.2450458,11.3759388 C12.7936044,11.0477243 12.8620047,10.2947475 13.3595263,10.0423664 Z M21.4692716,10.3960571 C21.7062723,9.79010428 22.6666354,9.77177094 22.9363962,10.3616523 C23.2030371,10.8207003 22.875076,11.3891531 22.3999945,11.5452247 C21.7707125,11.6617724 21.1729906,10.9868909 21.4692716,10.3960571 Z M17.0280577,11.5108199 C17.0228977,10.9899861 17.5010992,10.6018906 18.0000607,10.5664144 C18.3310217,10.6322478 18.6917429,10.7721288 18.8337034,11.1034386 C19.0983041,11.5604628 18.8633435,12.189749 18.385262,12.399511 C18.1666212,12.5210587 17.9081405,12.4754635 17.6700597,12.4612968 C17.3060986,12.2840347 16.9996177,11.9364154 17.0280577,11.5108199 Z M8.66103157,12.269749 C9.14631308,11.9737964 9.80103513,12.5139159 9.61731455,13.0368925 C9.51615423,13.4892738 8.90319232,13.6733215 8.55279122,13.3845118 C8.17875005,13.1139163 8.23803024,12.4633206 8.66103157,12.269749 Z M26.6280877,12.2687966 C27.039809,11.9516535 27.7192512,12.3154633 27.6701709,12.831178 C27.697771,13.3014165 27.1103692,13.6560596 26.7016479,13.4139165 C26.2515265,13.2132022 26.2055664,12.5261777 26.6280877,12.2687966 Z M19.381025,13.2051068 C20.0604672,12.9629638 20.8674697,13.252726 21.2547109,13.8536787 C21.7655525,14.5883222 21.4937517,15.7071326 20.7010292,16.1286805 C19.8796266,16.6272523 18.6802229,16.2046329 18.3768619,15.2946323 C18.0324608,14.4799888 18.5341824,13.4604642 19.381025,13.2051068 Z M15.3946126,13.2852259 C16.147615,12.9326066 17.1610181,13.2284402 17.5247393,13.9926074 C17.9527806,14.7364175 17.6218195,15.7721326 16.8565772,16.1561805 C16.0903748,16.5878475 15.0094114,16.2605854 14.6386102,15.4620133 C14.2228089,14.6897508 14.5920501,13.6408215 15.3946126,13.2852259 Z M11.4030401,14.6390365 C11.4602803,14.1577267 11.9179618,13.8445121 12.3797231,13.8121311 C12.8772447,13.871655 13.274686,14.2549886 13.3288062,14.7545128 C13.296166,15.249037 12.9109649,15.7323707 12.3827232,15.7293945 C11.8015614,15.7790374 11.2920398,15.2054655 11.4030401,14.6390365 Z M23.1928369,13.916774 C23.7894788,13.57225 24.6179615,14.073798 24.5914413,14.7537985 C24.6323615,15.4742752 23.7154386,15.9820137 23.1213168,15.5593944 C22.5041548,15.2074894 22.552275,14.2164172 23.1928369,13.916774 Z M13.7723275,16.4560617 C14.4701297,16.2655854 15.2680122,16.5918952 15.6102532,17.2282051 C15.9851345,17.8686818 15.831894,18.7584444 15.2496521,19.2282067 C14.5028898,19.9172549 13.1256455,19.6405879 12.7282043,18.70023 C12.2714828,17.8382057 12.8262446,16.6829666 13.7723275,16.4560617 Z M21.3334311,16.4524903 C22.0117933,16.2599902 22.8087158,16.5193951 23.1733969,17.1324908 C23.6555584,17.8336818 23.4253977,18.8795159 22.7075554,19.3315401 C21.9556331,19.8564214 20.7909095,19.580826 20.3771482,18.760111 C19.8755466,17.9111819 20.3802682,16.711419 21.3334311,16.4524903 Z M9.28419351,17.2524909 C9.8869554,17.0263002 10.5551175,17.6861816 10.3109167,18.2790393 C10.1617563,18.8191587 9.39447385,19.0188017 8.99811262,18.6205872 C8.53431117,18.2466583 8.7060317,17.4146339 9.28419351,17.2524909 Z M25.6222446,18.1128487 C25.6048445,17.6173722 25.9702457,17.1785623 26.4824073,17.1511812 C26.8952086,17.2160622 27.2966098,17.5464197 27.2639697,17.9922533 C27.3017698,18.5810633 26.5865675,18.9813017 26.080886,18.7046348 C25.8438853,18.585111 25.7223249,18.3439203 25.6222446,18.1128487 Z M6.32042424,17.5433244 C6.68306538,17.3863005 7.13162678,17.6980865 7.04882652,18.0976105 C7.02938647,18.5499918 6.35618436,18.7239206 6.10886359,18.3459441 C5.89034291,18.0834439 6.02114332,17.6786816 6.32042424,17.5433244 Z M29.1856557,17.5342768 C29.4410165,17.3539195 29.8506977,17.4835625 29.9518581,17.779515 C30.1234586,18.1027296 29.8088176,18.5455871 29.4420965,18.4909442 C28.9272949,18.5374918 28.7607344,17.759158 29.1856557,17.5342768 Z M15.7420137,19.7058261 C16.6962566,19.4596354 17.7220199,20.2490408 17.7280199,21.2238034 C17.7903,22.2088042 16.780017,23.0822572 15.8032138,22.854757 C15.0481715,22.7341617 14.4557296,22.0126136 14.4802097,21.2557082 C14.4781697,20.5317791 15.0288515,19.8589214 15.7420137,19.7058261 Z M19.5210655,19.7038023 C20.4895885,19.4352306 21.5459519,20.2388027 21.5305918,21.2360653 C21.581712,22.2028518 20.6029888,23.0469 19.6465859,22.8551141 C18.7465831,22.7396378 18.082501,21.7586848 18.3337818,20.8922555 C18.4606222,20.3148741 18.9468637,19.8453499 19.5210655,19.7038023 Z M12.2347627,20.3038027 C12.9049648,20.1903503 13.5332868,20.9321365 13.2614859,21.5634465 C13.0632453,22.2361851 12.0763622,22.4186853 11.6400409,21.869161 C11.1282393,21.3414225 11.5103204,20.3766599 12.2347627,20.3038027 Z M23.3173974,20.3334456 C23.9149992,20.085112 24.6485616,20.5979696 24.6026014,21.2414225 C24.6266014,21.9497563 23.7209586,22.4382091 23.1365568,22.0247564 C22.4746347,21.6535657 22.5951151,20.5611839 23.3173974,20.3334456 Z M26.415087,23.4158289 C26.1810863,22.9830905 26.6061277,22.4095186 27.0904491,22.4896377 C27.3315299,22.4855901 27.5001304,22.6740426 27.6544509,22.832138 C27.686131,23.0885667 27.7392912,23.3945193 27.5247305,23.5921385 C27.2333695,23.9579721 26.5733675,23.8535673 26.415087,23.4158289 Z M8.65899156,22.610114 C9.11163297,22.3111851 9.762995,22.7570189 9.66123469,23.2820193 C9.60711452,23.7463053 9.01755267,24.0116626 8.62923146,23.7482101 C8.21247016,23.5090432 8.22783021,22.8280903 8.65899156,22.610114 Z M17.6014195,23.5820194 C18.1939813,23.3226145 18.9489037,23.8344006 18.8927435,24.4819011 C18.9366637,25.1973778 18.0029407,25.6928544 17.4235789,25.2632112 C16.780017,24.8942824 16.8872973,23.8089244 17.6014195,23.5820194 Z M13.4596065,24.5405916 C13.9643281,24.2771391 14.6416103,24.7321393 14.5956501,25.2924969 C14.6110102,25.7526163 14.1583687,26.1447595 13.7006873,26.0767832 C13.3216062,26.068688 13.0744053,25.7315449 12.952845,25.4109495 C12.959085,25.0615444 13.1040454,24.6723774 13.4596065,24.5405916 Z M21.8493128,24.5486868 C22.3683144,24.2304724 23.1059567,24.6874965 23.0568765,25.2867826 C23.0701966,25.9130927 22.236554,26.3142834 21.7533125,25.9028546 C21.285431,25.5803543 21.3425511,24.8051157 21.8493128,24.5486868 Z M23.3082773,28.1269038 C23.0773966,27.7803559 23.3491975,27.3628556 23.7240787,27.2838079 C24.0255196,27.3446414 24.3442406,27.5695225 24.2808804,27.9161894 C24.2369602,28.3853565 23.5452781,28.5292852 23.3082773,28.1269038 Z M11.7269211,27.8259512 C11.8188414,27.5513081 12.0415622,27.2783318 12.3674831,27.3497604 C12.8425646,27.3832128 12.983565,28.0935705 12.5677638,28.3124992 C12.1938426,28.5626185 11.7600412,28.2201183 11.7269211,27.8259512 Z M17.3142586,28.1410706 C17.4052188,27.7347607 17.9353806,27.5371415 18.2848216,27.752975 C18.5157023,27.8513084 18.5831425,28.1076181 18.6424228,28.3254755 C18.6107427,28.4389279 18.5824226,28.5524994 18.5545825,28.6659519 C18.411542,28.8341663 18.2277015,29.0023807 17.9896207,28.9963092 C17.5471793,29.0477379 17.1480581,28.551547 17.3142586,28.1410706 Z" id="ada-e" fill="#FFFFFF"></path>
                                </g>
                            </g>
                        </g>
                        <g id="Group-6-Copy-3" transform="translate(178.000000, 140.000000)">
                            <g id="Rectangle">
                                <use fill="black" fill-opacity="1" filter="url(#filter-10)" xlink:href="#path-9"></use>
                                <use fill="#FFFFFF" fill-rule="evenodd" xlink:href="#path-9"></use>
                            </g>
                            <rect id="Rectangle" fill="#D8D8D8" x="61" y="40" width="35" height="4" rx="2"></rect>
                            <rect id="Rectangle-Copy-34" fill="#D8D8D8" x="61" y="28" width="45" height="4" rx="2"></rect>
                            <g id="cryptos/icon/tether/v1" transform="translate(16.000000, 18.000000)">
                                <g id="colored/usdt">
                                    <rect id="Shadow" fill="#36BE9A" filter="url(#filter-11)" x="9" y="16" width="18" height="18" rx="9"></rect>
                                    <circle id="Circle" fill="#36BE9A" fill-rule="nonzero" cx="18" cy="18" r="18"></circle>
                                    <path d="M20.4319793,19.6770462 L20.4319793,19.6749741 C20.3231993,19.6822263 19.7651978,19.7166743 18.5215294,19.7166743 C17.5279041,19.7166743 16.8286396,19.6876655 16.5823736,19.6744561 L16.5823736,19.6775642 C12.7587039,19.504288 9.9037307,18.8192126 9.9037307,17.9997122 C9.9037307,17.1817659 12.7587039,16.4961724 16.5823736,16.3213422 L16.5823736,18.9961149 C16.8326685,19.0139864 17.5490557,19.0574997 18.5378968,19.0574997 C19.7251607,19.0574997 20.3206812,19.0067342 20.4319793,18.9961149 L20.4319793,16.3226373 C24.2480949,16.4974675 27.0957657,17.1830609 27.0957657,17.9997122 C27.0957657,18.8186946 24.2480949,19.502216 20.4319793,19.6770462 M20.4319793,16.044204 L20.4319793,13.6504547 L25.7566629,13.6504547 L25.7566629,10 L11.2569346,10 L11.2569346,13.6504547 L16.5823736,13.6504547 L16.5823736,16.043686 C12.2545888,16.2480431 9,17.1297053 9,18.1859388 C9,19.2421722 12.2545888,20.1235755 16.5823736,20.3294866 L16.5823736,28 L20.4319793,28 L20.4319793,20.3274145 C24.7522099,20.1222804 28,19.2413952 28,18.1859388 C28,17.1307413 24.7522099,16.2495971 20.4319793,16.044204" id="usdt-e" fill="#FFFFFF" fill-rule="nonzero"></path>
                                </g>
                            </g>
                        </g>
                    </g>
                </g>
            </g>
        </g>
    </g>
</svg>