<?xml version="1.0" encoding="UTF-8"?>
<svg width="42px" height="40px" viewBox="0 0 42 40" version="1.1" xmlns="http://www.w3.org/2000/svg" xmlns:xlink="http://www.w3.org/1999/xlink">
    <!-- Generator: Sketch 53.2 (72643) - https://sketchapp.com -->
    <title>Logo_Revex</title>
    <desc>Created with Sketch.</desc>
    <g id="Design" stroke="none" stroke-width="1" fill="none" fill-rule="evenodd">
        <g id="Revollet_LandingPage" transform="translate(-445.000000, -6358.000000)" fill="#FFCF07">
            <g id="Crypto-Forex" transform="translate(0.000000, 5772.000000)">
                <g id="Revex" transform="translate(444.000000, 586.000000)">
                    <g id="Logo_Revex" transform="translate(1.000000, 0.000000)">
                        <path d="M10.4614121,26.3367248 L0,20 L10.9332308,13.3333333 L0,6.89655172 L10.9332308,0 C21.283356,6.2835249 26.4584186,9.42528736 26.4584186,9.42528736 C27.0415243,9.42528736 28.1348474,8.65900383 29.7383879,7.12643678 C31.4877048,5.13409962 32.5810279,4.75095785 33.0183572,5.97701149 C33.674351,7.81609195 30.3943818,8.73563218 27.7704063,10.3448276 C25.1464309,11.954023 24.9277663,12.6436782 25.5837602,13.7931034 C26.3126422,14.4061303 27.4788535,14.0996169 29.082394,12.8735632 L36.2983264,6.89655172 C38.7765254,4.75095785 40.4529541,4.21455939 41.3276126,5.28735632 C42.6396003,6.89655172 42.2022711,8.27586207 38.4849726,9.88505747 C36.0067736,10.9578544 30.5401582,14.3295019 22.0851263,20 L33.0183572,26.8965517 L33.0183572,40 L11,26.6629602 L11,40 L0,32.877193 L10.4614121,26.3367248 Z" id="Combined-Shape"></path>
                    </g>
                </g>
            </g>
        </g>
    </g>
</svg>