<?xml version="1.0" encoding="UTF-8"?>
<svg width="43px" height="43px" viewBox="0 0 43 43" version="1.1" xmlns="http://www.w3.org/2000/svg" xmlns:xlink="http://www.w3.org/1999/xlink">
    <!-- Generator: Sketch 53.2 (72643) - https://sketchapp.com -->
    <title>Logo_MT5</title>
    <desc>Created with Sketch.</desc>
    <g id="Design" stroke="none" stroke-width="1" fill="none" fill-rule="evenodd">
        <g id="Revollet_LandingPage" transform="translate(-444.000000, -6066.000000)" stroke="#FFCF07">
            <g id="Crypto-Forex" transform="translate(0.000000, 5772.000000)">
                <g id="MT5" transform="translate(439.000000, 289.000000)">
                    <g id="Logo_MT5">
                        <g id="Oval-2" transform="translate(25.772309, 20.476986)" stroke-width="2">
                            <path d="M0.214049229,22.2101185 C2.39019841,24.5220894 4.95942221,25.6780749 7.92172063,25.6780749 C12.8305594,25.6780749 16.5849293,23.5618538 19.1848305,19.3294118 C21.7378021,13.1319073 21.3623651,8.4459893 18.0585195,5.27165775 C14.754674,2.0973262 10.0992552,0.510542017 4.09226326,0.511305197" id="Path-2" stroke-linecap="round"></path>
                            <path d="M3.01930113,19.8004202 C3.83318684,20.2422078 4.71645268,20.4631016 5.66909865,20.4631016 C7.27673912,20.4631016 8.5139558,20.0096257 9.3807487,19.1026738" id="Path-12" stroke-linecap="round"></path>
                            <path d="M14.0038,11.3935829 C14.2155849,7.61461676 12.3162588,5.19607843 8.30582155,4.13796791" id="Path-13" stroke-linecap="round"></path>
                            <path d="M15.0204839,14.8892261 C15.0125582,14.8892129 15.0125582,14.8892129 15.0046324,14.889226 C13.2545121,14.8935941 11.8393002,16.315888 11.8436683,18.0660084 C11.8480786,19.8330098 13.2794097,21.2643559 15.046411,21.2687847 L17.7176222,21.2754798 C17.7255479,21.275493 17.7255479,21.275493 17.7334737,21.2754798 C19.483594,21.2711118 20.8988059,19.8488179 20.8944378,18.0986975 C20.8900275,16.3316961 19.4586964,14.90035 17.6916951,14.8959212 L15.0204839,14.8892261 Z" id="Rectangle" fill="#14161C" transform="translate(16.369053, 18.082353) rotate(25.000000) translate(-16.369053, -18.082353) "></path>
                        </g>
                        <g id="Oval-2-Copy" transform="translate(17.265411, 36.242449) rotate(120.000000) translate(-17.265411, -36.242449) translate(5.265411, 23.242449)" stroke-width="2">
                            <path d="M0.342188578,22.3444496 C2.49085037,24.5668664 5.01736105,25.6780749 7.92172063,25.6780749 C12.8305594,25.6780749 16.5849293,23.5618538 19.1848305,19.3294118 C21.7378021,13.1319073 21.3623651,8.4459893 18.0585195,5.27165775 C14.754674,2.0973262 10.0992552,0.510542017 4.09226326,0.511305197" id="Path-2" stroke-linecap="round"></path>
                            <path d="M2.85610483,19.7083299 C3.71474782,20.211511 4.65241243,20.4631016 5.66909865,20.4631016 C7.27673912,20.4631016 8.5139558,20.0096257 9.3807487,19.1026738" id="Path-12" stroke-linecap="round"></path>
                            <path d="M14.0038,11.3935829 C14.2155849,7.61461676 12.3162588,5.19607843 8.30582155,4.13796791" id="Path-13" stroke-linecap="round"></path>
                            <path d="M15.0204839,14.8892261 C15.0125582,14.8892129 15.0125582,14.8892129 15.0046324,14.889226 C13.2545121,14.8935941 11.8393002,16.315888 11.8436683,18.0660084 C11.8480786,19.8330098 13.2794097,21.2643559 15.046411,21.2687847 L17.7176222,21.2754798 C17.7255479,21.275493 17.7255479,21.275493 17.7334737,21.2754798 C19.483594,21.2711118 20.8988059,19.8488179 20.8944378,18.0986975 C20.8900275,16.3316961 19.4586964,14.90035 17.6916951,14.8959212 L15.0204839,14.8892261 Z" id="Rectangle" fill="#14161C" transform="translate(16.369053, 18.082353) rotate(25.000000) translate(-16.369053, -18.082353) "></path>
                        </g>
                        <g id="Oval-2-Copy-2" transform="translate(25.130789, 16.953701) rotate(240.000000) translate(-25.130789, -16.953701) translate(13.130789, 3.953701)" stroke-width="2">
                            <path d="M0.259140664,22.2577996 C2.42566377,24.5379831 4.97985709,25.6780749 7.92172063,25.6780749 C12.8305594,25.6780749 16.5849293,23.5618538 19.1848305,19.3294118 C21.7378021,13.1319073 21.3623651,8.4459893 18.0585195,5.27165775 C14.754674,2.0973262 10.0992552,0.510542017 4.09226326,0.511305197" id="Path-2" stroke-linecap="round"></path>
                            <path d="M2.88044691,19.7225151 C3.73246102,20.2162394 4.6620116,20.4631016 5.66909865,20.4631016 C7.27673912,20.4631016 8.5139558,20.0096257 9.3807487,19.1026738" id="Path-12" stroke-linecap="round"></path>
                            <path d="M14.0038,11.3935829 C14.2155849,7.61461676 12.3162588,5.19607843 8.30582155,4.13796791" id="Path-13" stroke-linecap="round"></path>
                            <path d="M15.0204839,14.8892261 C15.0125582,14.8892129 15.0125582,14.8892129 15.0046324,14.889226 C13.2545121,14.8935941 11.8393002,16.315888 11.8436683,18.0660084 C11.8480786,19.8330098 13.2794097,21.2643559 15.046411,21.2687847 L17.7176222,21.2754798 C17.7255479,21.275493 17.7255479,21.275493 17.7334737,21.2754798 C19.483594,21.2711118 20.8988059,19.8488179 20.8944378,18.0986975 C20.8900275,16.3316961 19.4586964,14.90035 17.6916951,14.8959212 L15.0204839,14.8892261 Z" id="Rectangle" fill="#14161C" transform="translate(16.369053, 18.082353) rotate(25.000000) translate(-16.369053, -18.082353) "></path>
                        </g>
                        <path d="M16.9967223,29.8387002 L18.7609862,28.9935026 C19.0632863,28.8486811 19.4258233,28.9384889 19.625565,29.2076764 L21.618909,31.8940628 C21.8492793,32.2045279 21.7843497,32.6429616 21.4738846,32.8733319 C21.4653152,32.8796906 21.4566014,32.8858524 21.4477503,32.8918127 L19.838879,33.9752085 C19.5274661,34.1849105 19.1060709,34.111597 18.8837794,33.8090423 L16.7350429,30.8844576 C16.5061422,30.5729074 16.5731429,30.1347855 16.8846931,29.9058848 C16.9198604,29.8800469 16.9573667,29.8575541 16.9967223,29.8387002 Z" id="Path-11" stroke-width="0.7" fill="#FFCF07"></path>
                        <path d="M30.6811721,32.3165276 L32.4484127,31.4777077 C32.7495352,31.33478 33.1096718,31.4240049 33.3092397,31.69098 L35.3137692,34.372571 C35.5452361,34.6822194 35.4818574,35.12088 35.172209,35.3523468 C35.1623263,35.3597342 35.1522501,35.3668591 35.1419908,35.3737139 L33.5309642,36.4501291 C33.2204077,36.6576289 32.8016451,36.5847593 32.5794356,36.2845521 L30.418692,33.3653658 C30.1886885,33.0546288 30.254136,32.6162721 30.5648729,32.3862687 C30.6012909,32.3593126 30.64024,32.335956 30.6811721,32.3165276 Z" id="Path-11-Copy" stroke-width="0.7" fill="#FFCF07" transform="translate(32.867215, 33.989088) rotate(-120.000000) translate(-32.867215, -33.989088) "></path>
                        <path d="M25.0681193,19.2150236 L26.8426302,18.3671462 C27.1443104,18.2230007 27.5058133,18.3123247 27.7056406,18.5803879 L29.696737,21.2513932 C29.9277926,21.5613485 29.8638318,21.9999246 29.5538765,22.2309803 C29.544546,22.2379357 29.5350434,22.2446574 29.5253777,22.251139 L27.9065974,23.3366636 C27.5957063,23.5451416 27.1758169,23.4721442 26.9535278,23.1709732 L24.8067007,20.2623207 C24.5771203,19.9512711 24.6431641,19.5130039 24.9542137,19.2834234 C24.9899276,19.2570636 25.0280679,19.2341605 25.0681193,19.2150236 Z" id="Path-11-Copy" stroke-width="0.7" fill="#FFCF07" transform="translate(27.252708, 20.877014) rotate(-236.000000) translate(-27.252708, -20.877014) "></path>
                    </g>
                </g>
            </g>
        </g>
    </g>
</svg>