<?xml version="1.0" encoding="UTF-8"?>
<svg width="530px" height="506px" viewBox="0 0 530 506" version="1.1" xmlns="http://www.w3.org/2000/svg" xmlns:xlink="http://www.w3.org/1999/xlink">
    <!-- Generator: Sketch 53.2 (72643) - https://sketchapp.com -->
    <title>Security/Illustration</title>
    <desc>Created with Sketch.</desc>
    <defs>
        <rect id="path-1" x="0" y="0" width="150" height="72" rx="16"></rect>
        <filter x="-17.3%" y="-26.4%" width="134.7%" height="172.2%" filterUnits="objectBoundingBox" id="filter-2">
            <feOffset dx="0" dy="7" in="SourceAlpha" result="shadowOffsetOuter1"></feOffset>
            <feGaussianBlur stdDeviation="7.5" in="shadowOffsetOuter1" result="shadowBlurOuter1"></feGaussianBlur>
            <feColorMatrix values="0 0 0 0 0   0 0 0 0 0   0 0 0 0 0  0 0 0 0.2 0" type="matrix" in="shadowBlurOuter1"></feColorMatrix>
        </filter>
        <filter x="-100.0%" y="-100.0%" width="300.0%" height="300.0%" filterUnits="objectBoundingBox" id="filter-3">
            <feGaussianBlur stdDeviation="6" in="SourceGraphic"></feGaussianBlur>
        </filter>
        <rect id="path-4" x="0" y="0" width="144" height="72" rx="16"></rect>
        <filter x="-18.1%" y="-26.4%" width="136.1%" height="172.2%" filterUnits="objectBoundingBox" id="filter-5">
            <feOffset dx="0" dy="7" in="SourceAlpha" result="shadowOffsetOuter1"></feOffset>
            <feGaussianBlur stdDeviation="7.5" in="shadowOffsetOuter1" result="shadowBlurOuter1"></feGaussianBlur>
            <feColorMatrix values="0 0 0 0 0   0 0 0 0 0   0 0 0 0 0  0 0 0 0.2 0" type="matrix" in="shadowBlurOuter1"></feColorMatrix>
        </filter>
        <filter x="-100.0%" y="-100.0%" width="300.0%" height="300.0%" filterUnits="objectBoundingBox" id="filter-6">
            <feGaussianBlur stdDeviation="6" in="SourceGraphic"></feGaussianBlur>
        </filter>
    </defs>
    <g id="Design" stroke="none" stroke-width="1" fill="none" fill-rule="evenodd">
        <g id="Revollet_LandingPage" transform="translate(-707.000000, -5243.000000)">
            <g id="Security" transform="translate(0.000000, 4862.000000)">
                <g id="Security/Illustration" transform="translate(707.000000, 381.000000)">
                    <g id="Group-10">
                        <circle id="Oval-Copy-22" fill="#FFFFFF" cx="252.5" cy="253.5" r="171.5"></circle>
                        <circle id="Oval-Copy-30" stroke="#FFFFFF" stroke-width="2" cx="253" cy="253" r="252"></circle>
                    </g>
                    <rect id="Rectangle" stroke="#14161C" stroke-width="2" fill="#FFFFFF" x="103" y="103" width="302" height="282" rx="22"></rect>
                    <g id="Visual" transform="translate(126.000000, 125.000000)">
                        <path d="M57.2928932,198.287163 L41.7939384,182.792893 L25.2928932,182.792893 C24.1883237,182.792893 23.2928932,181.897463 23.2928932,180.792893 L23.2928932,154.792893 C23.2928932,153.688324 24.1883237,152.792893 25.2928932,152.792893 L32.2928932,152.792893 L32.2928932,91.7928932 L25.2928932,91.7928932 C24.1883237,91.7928932 23.2928932,90.8974627 23.2928932,89.7928932 L23.2928932,63.7928932 C23.2928932,62.6883237 24.1883237,61.7928932 25.2928932,61.7928932 L41.7939384,61.7928932 L57.2928932,46.298623 L57.2928932,33.7928932 C57.2928932,32.6883237 58.1883237,31.7928932 59.2928932,31.7928932 L87.2928932,31.7928932 L87.2928932,24.7928932 C87.2928932,23.6883237 88.1883237,22.7928932 89.2928932,22.7928932 L131.292893,22.7928932 C131.313645,22.7928932 131.334322,22.7932093 131.354921,22.7938368 C131.500838,22.793208 131.646829,22.7928932 131.792893,22.7928932 C186.745226,22.7928932 231.292893,67.3405606 231.292893,122.292893 C231.292893,177.245226 186.745226,221.792893 131.792893,221.792893 C131.646829,221.792893 131.500838,221.792578 131.354921,221.79195 C131.334322,221.792577 131.313645,221.792893 131.292893,221.792893 L89.2928932,221.792893 C88.1883237,221.792893 87.2928932,220.897463 87.2928932,219.792893 L87.2928932,212.792893 L59.2928932,212.792893 C58.1883237,212.792893 57.2928932,211.897463 57.2928932,210.792893 L57.2928932,198.287163 Z" id="Combined-Shape-Copy-3" fill="#FFCF07"></path>
                        <path d="M38.4939033,178.792893 L54.2928932,194.591883 L54.2928932,207.792893 C54.2928932,208.345178 54.7406085,208.792893 55.2928932,208.792893 L84.2928932,208.792893 L84.2928932,216.792893 C84.2928932,217.345178 84.7406085,217.792893 85.2928932,217.792893 L127.292893,217.792893 C127.313962,217.792893 127.334888,217.792255 127.425129,217.78917 C127.714235,217.791652 128.003491,217.792893 128.292893,217.792893 C182.969083,217.792893 227.292893,173.469083 227.292893,118.792893 C227.292893,64.116703 182.969083,19.7928932 128.292893,19.7928932 C128.003491,19.7928932 127.714235,19.7941347 127.355663,19.7947982 C127.334888,19.793531 127.313962,19.7928932 127.292893,19.7928932 L85.2928932,19.7928932 C84.7406085,19.7928932 84.2928932,20.2406085 84.2928932,20.7928932 L84.2928932,28.7928932 L55.2928932,28.7928932 C54.7406085,28.7928932 54.2928932,29.2406085 54.2928932,29.7928932 L54.2928932,42.9939033 L38.4939033,58.7928932 L21.2928932,58.7928932 C20.7406085,58.7928932 20.2928932,59.2406085 20.2928932,59.7928932 L20.2928932,85.7928932 C20.2928932,86.345178 20.7406085,86.7928932 21.2928932,86.7928932 L29.2928932,86.7928932 L29.2928932,150.792893 L21.2928932,150.792893 C20.7406085,150.792893 20.2928932,151.240608 20.2928932,151.792893 L20.2928932,177.792893 C20.2928932,178.345178 20.7406085,178.792893 21.2928932,178.792893 L38.4939033,178.792893 Z" id="Combined-Shape" stroke="#14161C" stroke-width="2"></path>
                        <rect id="Rectangle-Copy-50" stroke="#14161C" stroke-width="2" fill="#FFFFFF" transform="translate(174.199708, 72.479708) rotate(-135.000000) translate(-174.199708, -72.479708) " x="170.199708" y="9.97970773" width="8" height="125" rx="2"></rect>
                        <rect id="Rectangle-Copy-54" stroke="#14161C" stroke-width="2" fill="#FFFFFF" transform="translate(173.840620, 164.754834) rotate(-45.000000) translate(-173.840620, -164.754834) " x="169.84062" y="101.754834" width="8" height="126" rx="2"></rect>
                        <rect id="Rectangle-Copy-60" stroke="#14161C" stroke-width="2" fill="#FFFFFF" transform="translate(69.292893, 118.792893) rotate(-270.000000) translate(-69.292893, -118.792893) " x="65.2928932" y="60.7928932" width="8" height="116" rx="2"></rect>
                        <circle id="Oval-Copy-8" stroke="#14161C" stroke-width="2" fill="#FFFFFF" cx="225.292893" cy="118.792893" r="19"></circle>
                        <circle id="Oval-Copy-17" fill="#FFCF07" cx="9.29289322" cy="9.79289322" r="6"></circle>
                        <circle id="Oval-Copy-14" fill="#FFCF07" cx="9.29289322" cy="231.792893" r="6"></circle>
                        <circle id="Oval-Copy-16" fill="#FFCF07" cx="251.292893" cy="9.79289322" r="6"></circle>
                        <circle id="Oval-Copy-15" fill="#FFCF07" cx="251.292893" cy="231.792893" r="6"></circle>
                        <circle id="Oval-Copy-5" stroke="#14161C" stroke-width="2" cx="249.29" cy="229.79" r="6"></circle>
                        <circle id="Oval-Copy-4" stroke="#14161C" stroke-width="2" cx="7.29289322" cy="7.79289322" r="6"></circle>
                        <circle id="Oval-Copy-5" stroke="#14161C" stroke-width="2" cx="7.29289322" cy="229.792893" r="6"></circle>
                        <circle id="Oval-Copy-7" stroke="#14161C" stroke-width="2" cx="249.292893" cy="7.79289322" r="6"></circle>
                        <rect id="Rectangle" stroke="#14161C" stroke-width="2" fill="#14161C" x="124.292893" y="188.792893" width="8" height="44" rx="3"></rect>
                        <g id="Group-27" transform="translate(81.292893, 66.792893)" stroke="#14161C" stroke-width="2">
                            <circle id="Oval-Copy-13" fill="#FFFFFF" transform="translate(47.000000, 51.500000) rotate(-360.000000) translate(-47.000000, -51.500000) " cx="47" cy="51.5" r="39"></circle>
                            <rect id="Rectangle-Copy-55" fill="#FFFFFF" transform="translate(46.500000, 52.000000) rotate(-720.000000) translate(-46.500000, -52.000000) " x="43.5" y="1" width="6" height="102" rx="3"></rect>
                            <path d="M47.1154299,1.31577239 C45.5062659,1.3251783 44.2057863,2.63051104 44.2023744,4.23969893 L43.9997387,99.8101219 C43.9997296,99.8215446 43.9997296,99.8215446 43.9997812,99.8329672 C44.0090399,101.416933 45.3006038,102.693486 46.8845701,102.684228 C48.4937341,102.674822 49.7942137,101.369489 49.7976256,99.7603011 L50.0002613,4.18987811 C50.0002704,4.17845539 50.0002704,4.17845539 50.0002188,4.1670328 C49.9909601,2.58306654 48.6993962,1.30651377 47.1154299,1.31577239 Z" id="Rectangle-Copy-56" fill="#FFFFFF" transform="translate(47.000000, 52.000000) rotate(-600.000000) translate(-47.000000, -52.000000) "></path>
                            <path d="M46.8845701,1.31577239 C46.8731475,1.31572079 46.8731475,1.31572079 46.8617248,1.31572984 C45.2777352,1.31908834 43.9963805,2.60588821 43.999739,4.18987779 L44.2023747,99.7603014 C44.2057866,101.369489 45.5062661,102.674822 47.1154299,102.684228 C47.1268525,102.684279 47.1268525,102.684279 47.1382752,102.68427 C48.7222648,102.680912 50.0036195,101.394112 50.000261,99.8101222 L49.7976253,4.23969862 C49.7942134,2.6305109 48.4937339,1.3251783 46.8845701,1.31577239 Z" id="Rectangle-Copy-57" fill="#FFFFFF" transform="translate(47.000000, 52.000000) rotate(-300.000000) translate(-47.000000, -52.000000) "></path>
                            <circle id="Oval-Copy-10" fill="#14161C" transform="translate(47.000000, 52.000000) rotate(-360.000000) translate(-47.000000, -52.000000) " cx="47" cy="52" r="16"></circle>
                        </g>
                        <rect id="Rectangle-Copy-45" stroke="#14161C" stroke-width="2" fill="#14161C" x="124.292893" y="4.79289322" width="8" height="44" rx="3"></rect>
                        <rect id="Rectangle-Copy-61" stroke="#14161C" stroke-width="2" fill="#14161C" transform="translate(216.606602, 30.106602) rotate(-225.000000) translate(-216.606602, -30.106602) " x="210.606602" y="22.1066017" width="12" height="16" rx="4"></rect>
                        <rect id="Rectangle-Copy-62" stroke="#14161C" stroke-width="2" fill="#14161C" transform="translate(216.606602, 207.476602) rotate(45.000000) translate(-216.606602, -207.476602) " x="210.606602" y="199.476602" width="12" height="16" rx="4"></rect>
                        <rect id="Rectangle-Copy-58" stroke="#14161C" stroke-width="2" fill="#FFFFFF" x="3.29289322" y="54.7928932" width="18" height="38" rx="4"></rect>
                        <rect id="Rectangle-Copy-58" stroke="#14161C" stroke-width="2" fill="#14161C" x="9.29289322" y="110.792893" width="12" height="16" rx="2"></rect>
                        <rect id="Rectangle-Copy-59" stroke="#14161C" stroke-width="2" fill="#FFFFFF" x="3.29289322" y="144.792893" width="18" height="38" rx="4"></rect>
                        <path d="M207.414046,102.792845 C207.394459,102.792845 207.374877,102.79342 207.355324,102.79457 C206.803992,102.827002 206.38334,103.300235 206.415772,103.851567 L208.056328,131.741025 C208.157135,133.454735 209.576269,134.792845 211.292942,134.792845 C213.009614,134.792845 214.428749,133.454735 214.529556,131.741025 L216.170112,103.851567 C216.171262,103.832014 216.171838,103.812431 216.171838,103.792845 C216.171838,103.24056 215.724122,102.792845 215.171838,102.792845 L207.414046,102.792845 Z" id="Rectangle-Copy-49" stroke="#14161C" stroke-width="2" fill="#14161C" transform="translate(211.292893, 118.792845) rotate(-270.000000) translate(-211.292893, -118.792845) "></path>
                        <g id="Group-9-Copy" transform="translate(168.597980, 78.487807) rotate(-135.000000) translate(-168.597980, -78.487807) translate(163.597980, 26.487807)"></g>
                        <circle id="Oval" fill="#14161C" cx="10.2928932" cy="151.792893" r="2"></circle>
                        <circle id="Oval" fill="#14161C" cx="119.292893" cy="7.79289322" r="2"></circle>
                        <circle id="Oval-Copy-18" fill="#14161C" cx="137.292893" cy="7.79289322" r="2"></circle>
                        <circle id="Oval-Copy-20" fill="#14161C" cx="119.292893" cy="230.792893" r="2"></circle>
                        <circle id="Oval-Copy-19" fill="#14161C" cx="137.292893" cy="230.792893" r="2"></circle>
                        <circle id="Oval-Copy-9" fill="#14161C" cx="10.2928932" cy="175.792893" r="2"></circle>
                        <circle id="Oval-Copy-12" fill="#14161C" cx="10.2928932" cy="61.7928932" r="2"></circle>
                        <circle id="Oval-Copy-11" fill="#14161C" cx="10.2928932" cy="85.7928932" r="2"></circle>
                    </g>
                    <g id="Crypto" transform="translate(21.000000, 134.000000)">
                        <g id="Rectangle">
                            <use fill="black" fill-opacity="1" filter="url(#filter-2)" xlink:href="#path-1"></use>
                            <use fill="#FFFFFF" fill-rule="evenodd" xlink:href="#path-1"></use>
                        </g>
                        <rect id="Rectangle" fill="#D8D8D8" x="61" y="40" width="65" height="4" rx="2"></rect>
                        <rect id="Rectangle-Copy-34" fill="#D8D8D8" x="61" y="28" width="45" height="4" rx="2"></rect>
                        <g id="cryptos/icon/ripple/v1" transform="translate(16.000000, 18.000000)">
                            <g id="colored/xrp">
                                <rect id="Shadow" fill="#00C6F0" filter="url(#filter-3)" x="9" y="16" width="18" height="18" rx="9"></rect>
                                <circle id="Circle" fill="#00C6F0" fill-rule="nonzero" cx="18" cy="18" r="18"></circle>
                                <path d="M22.9607258,20.2052162 C22.2704736,19.7969333 21.4931636,19.6785975 20.72322,19.6510528 C20.0772398,19.6279439 19.1134664,19.2038822 19.1134664,18.0000561 C19.1134664,17.1031305 19.8232218,16.381284 20.7235503,16.3490781 C21.4934296,16.3215335 22.2706662,16.2030473 22.9607258,15.7949054 C24.6744127,14.7813518 25.4303642,12.6536481 24.7535615,10.7487838 C24.0767587,8.84391954 22.1625926,7.71182285 20.2138715,8.06387171 C18.2651504,8.41592057 16.844464,10.1504796 16.8445318,12.1776004 C16.8445318,12.9869018 17.1255112,13.7316599 17.4840354,14.4224094 C17.7855729,15.003375 17.9381306,16.0816573 16.9039403,16.6933064 C16.1346205,17.148324 15.1744982,16.8602095 14.6949279,16.0739512 C14.2898383,15.4098535 13.8008283,14.7876133 13.1161904,14.3826101 C11.4025323,13.3690578 9.22587264,13.7622312 7.95394542,15.3150745 C6.68201819,16.8679178 6.68201819,19.132138 7.95394542,20.6849813 C9.22587264,22.2378246 11.4025323,22.630998 13.1161904,21.6174457 C13.8006356,21.2125929 14.2896915,20.5907567 14.6945242,19.9270632 C15.0269586,19.3820626 15.8572188,18.687366 16.9039036,19.3068904 C17.6720491,19.7615509 17.909518,20.7576974 17.4836776,21.5782009 C17.1252085,22.268847 16.8445868,23.0134453 16.8445868,23.8226058 C16.8445899,25.8496762 18.2652865,27.5841471 20.2139666,27.9361447 C22.1626466,28.2881423 24.0767458,27.1560486 24.7535191,25.2512269 C25.4302925,23.3464052 24.6743624,21.2187583 22.9607258,20.2052162 Z" id="xrp-e" fill="#FFFFFF"></path>
                            </g>
                        </g>
                    </g>
                    <g id="Crypto" transform="translate(371.000000, 264.000000)">
                        <g id="Rectangle">
                            <use fill="black" fill-opacity="1" filter="url(#filter-5)" xlink:href="#path-4"></use>
                            <use fill="#FFFFFF" fill-rule="evenodd" xlink:href="#path-4"></use>
                        </g>
                        <rect id="Rectangle" fill="#D8D8D8" x="61" y="40" width="58" height="4" rx="2"></rect>
                        <rect id="Rectangle-Copy-34" fill="#D8D8D8" x="61" y="28" width="52" height="4" rx="2"></rect>
                        <g id="cryptos/icon/xgate/v1" transform="translate(16.000000, 18.000000)">
                            <g id="colored/xgate">
                                <rect id="Shadow" fill="#3D50CE" filter="url(#filter-6)" x="9" y="16" width="18" height="18" rx="9"></rect>
                                <circle id="Circle" fill="#3D50CE" fill-rule="nonzero" cx="18" cy="18" r="18"></circle>
                                <g id="xgate" transform="translate(7.000000, 9.000000)" fill="#FFFFFF">
                                    <polygon id="Path-2" points="3.51821862 5.45864662 9.79757085 17.4135338 12.2469636 17.4135338"></polygon>
                                    <polygon id="Path-3" points="-1.42108547e-14 0.22556391 14.562753 17.4135338 19.5506073 17.4135338"></polygon>
                                    <ellipse id="Oval" cx="7.74898785" cy="1.89473684" rx="1.87044534" ry="1.89473684"></ellipse>
                                    <path d="" id="Path-4"></path>
                                    <polygon id="Path-5" points="4.89878543 10.8270677 5.87854251 9.51879699 6.14574899 9.7443609"></polygon>
                                    <path d="M7.88259109,7.26315789 C11.2375169,4.13533835 14.4291498,2.57142857 17.4574899,2.57142857 C20.48583,2.57142857 22,4.19548872 22,7.44360902 C21.8367072,10.3909774 20.6194332,13.3533835 18.3481781,16.3308271 C18.3481781,16.3308271 20.5748988,13.0827068 20.5748988,10.1729323 C20.5748988,7.26315789 18.3883688,6.76691729 17.2348178,6.76691729 C16.0812668,6.76691729 13.2712551,7.39849624 10.8663968,9.69924812 C9.26315789,11.2330827 8.89946019,11.0225564 9.77530364,9.06766917 C13.0334002,6.5112782 15.8316458,5.23308271 18.1700405,5.23308271 C18.4379591,5.23308271 18.8090792,5.26315789 19.2834008,5.32330827 C18.9250652,4.87218045 18.1679802,4.64661654 17.0121457,4.64661654 C15.2783941,4.64661654 12.4696356,5.23308271 8.68421053,7.84962406" id="Path-6"></path>
                                    <path d="M7.03643725,11.8195489 C5.19568151,14.0150376 4.02294197,15.8796992 3.51821862,17.4135338 C4.43859649,17.4135338 5.10661269,17.4135338 5.52226721,17.4135338 C5.75978408,16.2406015 6.50202429,14.7218045 7.74898785,12.8571429" id="Path-7"></path>
                                </g>
                            </g>
                        </g>
                    </g>
                </g>
            </g>
        </g>
    </g>
</svg>