<?xml version="1.0" encoding="UTF-8"?>
<svg width="820px" height="616px" viewBox="0 0 820 616" version="1.1" xmlns="http://www.w3.org/2000/svg" xmlns:xlink="http://www.w3.org/1999/xlink">
    <!-- Generator: Sketch 53.2 (72643) - https://sketchapp.com -->
    <title>Group 7</title>
    <desc>Created with Sketch.</desc>
    <g id="Design" stroke="none" stroke-width="1" fill="none" fill-rule="evenodd">
        <g id="Revollet_LandingPage" transform="translate(-549.000000, -9327.000000)">
            <g id="Support" transform="translate(0.000000, 9327.000000)">
                <g id="BG">
                    <g id="Group-7" transform="translate(549.000000, -204.000000)">
                        <circle id="Oval-Copy-30" stroke="#FFFFFF" stroke-width="2" opacity="0.200000003" cx="410" cy="410" r="252"></circle>
                        <circle id="Oval-Copy-31" stroke="#FFFFFF" opacity="0.209999993" cx="410" cy="410" r="409.5"></circle>
                        <g id="Illustration" transform="translate(258.000000, 295.000000)">
                            <path d="M124.704433,129.5 L124.704433,74.75 C126.412151,67.25 129.844007,63.5 135,63.5 C140.155993,63.5 158.259442,63.5 189.310345,63.5 C192.816092,64 195.445402,67.75 197.198276,74.75 C198.951149,81.75 200.829228,93.3040343 202.832512,109.412103 C200.704433,116.804034 198.200328,120.5 195.320197,120.5 C192.440066,120.5 192.440066,123.5 195.320197,129.5 L124.704433,129.5 Z" id="Path-18" fill="#FFF8F8"></path>
                            <rect id="Rectangle" fill="#14161C" x="15.0246305" y="107" width="31" height="3" rx="1.5"></rect>
                            <rect id="Rectangle-Copy-78" fill="#14161C" x="45.0246305" y="129" width="230" height="3" rx="1.5"></rect>
                            <rect id="Rectangle-Copy-63" fill="#14161C" x="0" y="99.5" width="37.5615764" height="3" rx="1.5"></rect>
                            <rect id="Rectangle-Copy-72" fill="#14161C" x="30.0492611" y="80" width="15.7758621" height="3" rx="1.5"></rect>
                            <rect id="Rectangle-Copy-70" fill="#14161C" x="189.310345" y="68" width="15.7758621" height="3" rx="1.5"></rect>
                            <rect id="Rectangle-Copy-71" fill="#14161C" x="258.921182" y="77" width="15.7758621" height="3" rx="1.5"></rect>
                            <rect id="Rectangle-Copy-64" fill="#14161C" x="267.438424" y="99.5" width="37.5615764" height="3" rx="1.5"></rect>
                            <rect id="Rectangle-Copy-77" fill="#14161C" x="257.438424" y="109.5" width="27.561576" height="3" rx="1.5"></rect>
                            <g id="Group-16" transform="translate(43.571429, 0.000000)">
                                <path d="M1.5,110.110779 L76.6280788,115.880388 L76.6280788,78.5 C76.6280788,72.7015615 71.9187971,68 66.1083744,68 L12.0197044,68 C6.20928168,68 1.5,72.7015615 1.5,78.5 L1.5,110.110779 Z" id="Path" stroke="#14161C" stroke-width="3"></path>
                                <path d="M25.4869348,125 L23.345925,68 L12.0197044,68 C6.20928168,68 1.5,72.7015615 1.5,78.5 L1.5,114.5 C1.5,120.298438 6.20928168,125 12.0197044,125 L25.4869348,125 Z" id="Path" stroke="#14161C" stroke-width="3"></path>
                                <rect id="Rectangle-Copy-2" stroke="#14161C" stroke-width="3" fill="#FFFFFF" x="24.0369458" y="92" width="31.5566502" height="42" rx="6"></rect>
                                <rect id="Rectangle-Copy-75" stroke="#14161C" stroke-width="3" fill="#FFFFFF" x="12.0172414" y="32" width="54.0935961" height="9" rx="4.5"></rect>
                                <rect id="Rectangle-Copy-67" stroke="#14161C" stroke-width="3" fill="#FFFFFF" x="30.046798" y="47" width="18.0344828" height="28.5" rx="9.01724138"></rect>
                                <rect id="Rectangle-Copy-74" stroke="#14161C" stroke-width="3" fill="#FFFFFF" x="18.0270936" y="11" width="42.0738916" height="52.5" rx="21.0369458"></rect>
                                <path d="M19.6135757,32 C21.9767146,30.7647884 23.9694711,28.8242611 25.5918451,26.1784179 C27.2142191,23.5325748 27.7618151,20.8064358 27.2346331,18.0000009 C23.0604975,17.9987414 20.1332717,19.3682804 18.4529557,22.108618 C16.7726398,24.8489555 17.1595131,28.1460829 19.6135757,32 Z" id="Path-9-Copy-5" fill="#FFCF07"></path>
                                <path d="M52.6135757,31 C54.9767146,29.7647884 56.9694711,27.8242611 58.5918451,25.1784179 C60.2142191,22.5325748 60.7618151,19.8064358 60.2346331,17.0000009 C56.0604975,16.9987414 53.1332717,18.3682804 51.4529557,21.108618 C49.7726398,23.8489555 50.1595131,27.1460829 52.6135757,31 Z" id="Path-9-Copy-6" fill="#FFCF07" transform="translate(55.428571, 24.000000) scale(-1, 1) translate(-55.428571, -24.000000) "></path>
                                <rect id="Rectangle-Copy-74" stroke="#14161C" stroke-width="3" x="18.0270936" y="11" width="42.0738916" height="52.5" rx="21.0369458"></rect>
                                <g id="Group-3" transform="translate(17.969968, 0.029087)" fill="#14161C">
                                    <path d="M15.5318821,17.6710252 C19.093013,19.7851383 23.3611636,20.8508722 28.3363341,20.8682266 C33.3115046,20.8855811 37.5707301,19.4292544 41.1140106,16.4992465 C37.8963489,11.0236255 33.7110904,8.27682794 28.5582353,8.25885366 C23.4053802,8.24087938 19.0632624,11.3782699 15.5318821,17.6710252 Z" id="Path-9-Copy" transform="translate(28.322946, 14.563578) rotate(-13.000000) translate(-28.322946, -14.563578) "></path>
                                    <path d="M13.7602287,21.4709133 C18.023103,21.1736696 22.2557728,19.5711393 26.4582381,16.6633223 C30.6607034,13.7555054 33.3800372,10.017253 34.6162394,5.44856511 C28.6357597,2.69047813 23.4692432,2.8172684 19.1166899,5.82893595 C14.7641365,8.84060349 12.9786494,14.0545959 13.7602287,21.4709133 Z" id="Path-9-Copy-2"></path>
                                    <path d="M18.9707473,24.4712652 C21.2909534,21.3800881 22.4979953,17.6485422 22.5918728,13.2766276 C22.6857503,8.90471289 21.1890112,5.1352241 18.1016555,1.96816116 C12.1831136,4.69646804 9.17522755,8.32464871 9.07799726,12.8527032 C8.98076698,17.3807576 12.2783503,21.2536116 18.9707473,24.4712652 Z" id="Path-9-Copy-3" transform="translate(15.835968, 13.219713) rotate(18.000000) translate(-15.835968, -13.219713) "></path>
                                    <path d="M3.01418844,24.4709133 C6.20966449,22.75044 8.90430317,20.0475626 11.0981045,16.3622811 C13.2919058,12.6769996 14.0323743,8.87987737 13.31951,4.97091447 C7.67517385,4.96916022 3.71693009,6.87673246 1.44477875,10.6936312 C-0.827372588,14.5105299 -0.304236026,19.1029572 3.01418844,24.4709133 Z" id="Path-9-Copy-4"></path>
                                </g>
                                <path d="M63.8546798,84.5 L63.8546798,129.5" id="Path-16-Copy-2" stroke="#14161C" stroke-width="3" stroke-linecap="round" stroke-linejoin="round"></path>
                                <path d="M76.6256158,84.5 L76.6256158,129.5" id="Path-16-Copy-3" stroke="#14161C" stroke-width="3" stroke-linecap="round" stroke-linejoin="round"></path>
                                <path d="M13.5221675,85.25 L13.5221675,108.5 C13.5221675,110.985281 15.5368861,113 18.0221675,113 L27.044335,113" id="Path-3" stroke="#14161C" stroke-width="3" stroke-linecap="round" stroke-linejoin="round"></path>
                                <rect id="Rectangle" fill="#FFCF07" x="22.2714284" y="113" width="21" height="12"></rect>
                                <path d="M21.7857143,113 L39.820197,113 C41.4770513,113 42.820197,114.343146 42.820197,116 L42.820197,122 C42.820197,123.656854 41.4770513,125 39.820197,125 L21.7857143,125" id="Path-4" stroke="#14161C" stroke-width="3"></path>
                                <polyline id="Path-14" stroke="#14161C" stroke-width="3" stroke-linecap="round" stroke-linejoin="round" points="39.0640394 38.75 38.3128079 44.75 39.8152709 44.75"></polyline>
                            </g>
                            <path d="M211.832512,77 L214.100985,77 L228.374384,94.0111842 L242.647783,77 L249.428571,77 C256.055988,77 261.428571,82.372583 261.428571,89 L261.428571,113 C261.428571,121.284271 254.712843,128 246.428571,128 L202.832512,128 L202.832512,86 C202.832512,81.0294373 206.86195,77 211.832512,77 Z" id="Rectangle-Copy-6" fill="#FFCF07"></path>
                            <polyline id="Path-17" fill="#FFFFFF" points="212.598522 72.5 229.490102 96.5 247.155172 72.5"></polyline>
                            <path d="M199.827586,126.5 L199.827586,83.0365854 C199.827586,77.21739 205.016798,72.5 211.418015,72.5 L211.418015,72.5 L249.086911,72.5 C255.488128,72.5 260.67734,77.21739 260.67734,83.0365854 L260.67734,126.5" id="Path" stroke="#14161C" stroke-width="3"></path>
                            <path d="M212.598522,96.5 L212.598522,129.5" id="Path-16-Copy-2" stroke="#14161C" stroke-width="3" stroke-linecap="round" stroke-linejoin="round"></path>
                            <path d="M199.827586,96.5 L199.827586,129.5" id="Path-16-Copy-9" stroke="#14161C" stroke-width="3" stroke-linecap="round" stroke-linejoin="round"></path>
                            <path d="M229.125616,107 L229.125616,110" id="Path-16-Copy-5" stroke="#14161C" stroke-width="3" stroke-linecap="round" stroke-linejoin="round"></path>
                            <path d="M229.125616,122 L229.125616,125" id="Path-16-Copy-6" stroke="#14161C" stroke-width="3" stroke-linecap="round" stroke-linejoin="round"></path>
                            <path d="M247.155172,96.5 L247.155172,129.5" id="Path-16-Copy-4" stroke="#14161C" stroke-width="3" stroke-linecap="round" stroke-linejoin="round"></path>
                            <path d="M260.67734,96.5 L260.67734,129.5" id="Path-16-Copy-10" stroke="#14161C" stroke-width="3" stroke-linecap="round" stroke-linejoin="round"></path>
                            <rect id="Rectangle-Copy-4" stroke="#14161C" stroke-width="3" fill="#FFFFFF" x="222.362069" y="60.5" width="15.0295567" height="19.5" rx="7.51477833"></rect>
                            <rect id="Rectangle-Copy-75" stroke="#14161C" stroke-width="3" fill="#FFFFFF" x="207.337438" y="44" width="45.0788177" height="9" rx="4.5"></rect>
                            <rect id="Rectangle-Copy-5" stroke="#14161C" stroke-width="3" fill="#FFFFFF" x="211.844828" y="23" width="36.0640394" height="46.5" rx="18.0320197"></rect>
                            <ellipse id="Oval" fill="#FFCF07" cx="219.5" cy="57" rx="2.5" ry="2"></ellipse>
                            <ellipse id="Oval-Copy-34" fill="#FFCF07" cx="240.5" cy="57" rx="2.5" ry="2"></ellipse>
                            <path d="M226.839901,17 L232.913793,17 C243.683346,17 252.413793,25.7304474 252.413793,36.5 L252.413793,39.5 C237.389163,37.25 228.721106,35.25 226.409625,33.5 C222.653467,36.5 216.296893,38.75 207.339901,40.25 L207.339901,36.5 C207.339901,25.7304474 216.070349,17 226.839901,17 Z" id="Rectangle-Copy-7" fill="#14161C"></path>
                            <rect id="Rectangle" fill="#14161C" x="207.339901" y="36.5" width="4.50738916" height="7.5" rx="2.25369458"></rect>
                            <rect id="Rectangle-Copy-3" fill="#14161C" x="247.906404" y="36.5" width="4.50738916" height="7.5" rx="2.25369458"></rect>
                            <path d="M214.100985,73.75 L229.876847,96.25 L214.100985,73.75 Z" id="Path-5" stroke="#14161C" stroke-width="3" stroke-linecap="round" stroke-linejoin="round"></path>
                            <path d="M229.876847,73.75 L245.652709,96.25 L229.876847,73.75 Z" id="Path-5-Copy" stroke="#14161C" stroke-width="3" stroke-linecap="round" stroke-linejoin="round" transform="translate(237.764778, 85.000000) scale(-1, 1) translate(-237.764778, -85.000000) "></path>
                            <path d="M212.598522,40.25 C222.114122,37.5 226.871921,34.75 226.871921,32 C226.871921,35.6309763 237.764778,38 247.155172,38" id="Path-6" stroke="#14161C" stroke-width="3"></path>
                            <rect id="Rectangle" fill="#14161C" x="220.862069" y="9.5" width="16.5270936" height="18" rx="8.25"></rect>
                            <path d="" id="Path-7" stroke="#979797" stroke-width="1.5"></path>
                            <path d="M89.0803312,111.657834 L90.2557454,110.843578 L93.6388003,108.5 L99.9187192,108.5 C101.575573,108.5 102.918719,109.843146 102.918719,111.5 L102.918719,123.5 C102.918719,125.156854 101.575573,126.5 99.9187192,126.5 L93.6388003,126.5 L90.6303894,125.805318 C88.5888884,125.333908 87.1428571,123.515918 87.1428571,121.420696 L87.1428571,115.35695 C87.1428571,113.880763 87.8668671,112.498449 89.0803312,111.657834 Z" id="Path-8" fill="#FFFFFF"></path>
                            <path d="M88.6101789,111.695079 L94.0422751,108.5 L99.9187192,108.5 C101.575573,108.5 102.918719,109.843146 102.918719,111.5 L102.918719,123.5 C102.918719,125.156854 101.575573,126.5 99.9187192,126.5 L94.0422751,126.5 L90.0258313,125.712529 C87.91455,125.298587 86.3916256,123.448081 86.3916256,121.296603 L86.3916256,115.573868 C86.3916256,113.979169 87.2356235,112.503573 88.6101789,111.695079 Z" id="Path-8-Copy" stroke="#14161C" stroke-width="3" stroke-linecap="round" stroke-linejoin="round"></path>
                            <g id="Group" transform="translate(73.620690, 27.500000)">
                                <path d="M51.0837438,88.5 L51.0837438,47.25 C51.0837438,41.0367966 56.4651488,36 63.1034483,36 L111.182266,36 C117.820565,36 123.20197,41.0367966 123.20197,47.25 L123.20197,88.5" id="Path" stroke="#14161C" stroke-width="3"></path>
                                <path d="M65.3571429,61.3548387 L65.3571429,102" id="Path-16-Copy-2" stroke="#14161C" stroke-width="3" stroke-linecap="round" stroke-linejoin="round"></path>
                                <path d="M121.699507,54 L121.699507,102" id="Path-16-Copy-8" stroke="#14161C" stroke-width="3" stroke-linecap="round" stroke-linejoin="round"></path>
                                <path d="M51.0837438,58.5 L51.0837438,102" id="Path-16-Copy-7" stroke="#14161C" stroke-width="3" stroke-linecap="round" stroke-linejoin="round"></path>
                                <path d="M57.8401708,81.912103 C57.8401708,81.8175521 57.8414503,81.7230056 57.844009,81.6284893 L56.3445583,81.587897 L54.8446957,81.567599 L54.8403081,81.891805 L56.3401708,81.912103 L57.8401708,81.912103 Z M71.1501106,36 L88.8608013,93 L118.6376,93 C119.198669,93 119.758894,92.9515145 120.31298,92.8549796 C126.070074,91.8519587 130.02256,85.9617002 129.073566,79.6742963 L123.933589,45.6202422 C123.093517,40.0544855 118.658456,36 113.497623,36 L71.1501106,36 Z" id="Shape" stroke="#14161C" stroke-width="3" fill="#FFFFFF"></path>
                                <path d="M80.3026504,79.5 L82.9086431,79.5 C84.4173475,79.5 85.6403941,80.8431458 85.6403941,82.5 L85.6403941,91.5 C85.6403941,93.1568542 84.4173475,94.5 82.9086431,94.5 L77.5708994,94.5 L73.9237654,93.71343 C72.001853,93.2989351 70.6157635,92.9487258 70.6157635,90.7977729 L70.6157635,85.0717266 L70.6157635,80.25 L75.3963278,74.25 L76.7622033,66.75 C78.5833707,66.75 79.4939543,67.75 79.4939543,69.75 C79.4939543,71.75 79.4939543,73.25 79.4939543,74.25" id="Path-8-Copy" fill="#FFFFFF" transform="translate(78.128079, 80.625000) scale(-1, 1) translate(-78.128079, -80.625000) "></path>
                                <circle id="Oval" fill="#FFCF07" cx="78.8793103" cy="64" r="6.5"></circle>
                                <path d="M80.3026504,78 L82.9086431,78 C84.4173475,78 85.6403941,79.3431458 85.6403941,81 L85.6403941,91.5 C85.6403941,93.1568542 84.4173475,94.5 82.9086431,94.5 L77.5708994,94.5 L73.9237654,93.71343 C72.001853,93.2989351 70.6157635,92.9487258 70.6157635,90.7977729 L70.6157635,85.0717266 L70.6157635,80.25 L75.3963278,74.25 L76.7622033,66.75 C78.5833707,66.75 79.4939543,67.75 79.4939543,69.75 C79.4939543,71.75 79.4939543,73.25 79.4939543,74.25" id="Path-8-Copy-2" stroke="#14161C" stroke-width="3" stroke-linecap="round" stroke-linejoin="round" transform="translate(78.128079, 80.625000) scale(-1, 1) translate(-78.128079, -80.625000) "></path>
                                <g id="Group-2" transform="translate(45.825123, 66.000000) rotate(-270.000000) translate(-45.825123, -66.000000) translate(33.054187, 21.000000)" fill="#14161C">
                                    <rect id="Rectangle-Copy-65" x="0" y="10.5" width="9.01477833" height="3" rx="1.5"></rect>
                                    <rect id="Rectangle-Copy-66" x="9.01477833" y="0" width="3.00492611" height="9" rx="1.50246305"></rect>
                                    <rect id="Rectangle-Copy-66" x="16.5270936" y="81" width="3.00492611" height="9" rx="1.50246305"></rect>
                                    <rect id="Rectangle-Copy-69" x="22.5369458" y="78" width="3.00492611" height="12" rx="1.50246305"></rect>
                                </g>
                                <path d="M89.3965517,57 L85.6403941,81 L113.076676,81 C114.519785,81 115.689655,82.3431458 115.689655,84 L115.689655,90 C115.689655,91.6568542 114.519785,93 113.076676,93 L85.6403941,93" id="Rectangle" stroke="#14161C" stroke-width="3" stroke-linecap="round" stroke-linejoin="bevel" transform="translate(100.665025, 75.000000) scale(-1, 1) translate(-100.665025, -75.000000) "></path>
                                <rect id="Rectangle-Copy-75" stroke="#14161C" stroke-width="3" fill="#FFFFFF" x="60.0960591" y="1.5" width="54.0935961" height="9" rx="4.5"></rect>
                            </g>
                            <path d="" id="Path-10" stroke="#979797" stroke-width="1.5"></path>
                            <path d="M151.748768,63.5 C148.243021,61 146.490148,61.75 146.490148,65.75 C146.490148,69.75 149.244663,74.25 154.753695,79.25 C157.758621,76.75 159.761905,75.5 160.763547,75.5" id="Path-12" stroke="#14161C" stroke-width="3" fill="#FFCF07"></path>
                            <path d="M166.773399,63.5 C163.267652,61 161.514778,61.75 161.514778,65.75 C161.514778,69.75 164.269294,74.25 169.778325,79.25 C172.783251,76.75 174.786535,75.5 175.788177,75.5" id="Path-12-Copy" stroke="#14161C" stroke-width="3" fill="#FFCF07" transform="translate(168.651478, 70.653846) scale(-1, 1) translate(-168.651478, -70.653846) "></path>
                            <rect id="Rectangle-Copy-68" stroke="#14161C" stroke-width="3" fill="#FFFFFF" x="151.746305" y="47" width="18.0344828" height="28.5" rx="9.01724138"></rect>
                            <rect id="Rectangle-Copy-76" stroke="#14161C" stroke-width="3" fill="#FFFFFF" x="139.726601" y="5" width="42.0738916" height="54" rx="21.0369458"></rect>
                            <path d="M165.270936,52.2567734 C165.267195,47.6966834 161.567479,43.9969674 157.007389,43.9932266" id="Oval-Copy-10" stroke="#14161C" stroke-width="3" stroke-linecap="round" transform="translate(161.139163, 48.125000) rotate(-225.000000) translate(-161.139163, -48.125000) "></path>
                            <ellipse id="Oval" fill="#14161C" cx="154.002463" cy="35" rx="2.25369458" ry="3"></ellipse>
                            <ellipse id="Oval-Copy-3" fill="#14161C" cx="166.773399" cy="35" rx="2.25369458" ry="3"></ellipse>
                            <ellipse id="Oval" fill="#14161C" cx="75.8743842" cy="36.5" rx="2.25369458" ry="3"></ellipse>
                            <ellipse id="Oval-Copy-3" fill="#14161C" cx="89.3965517" cy="36.5" rx="2.25369458" ry="3"></ellipse>
                            <path d="M142.73399,16.25 C147.7422,18.75 153.752053,20 160.763547,20 C167.775041,20 173.784893,18.25 178.793103,14.75 C174.285714,8.25 168.401067,5 161.139163,5 C153.877258,5 147.7422,8.75 142.73399,16.25 Z" id="Path-9" fill="#14161C"></path>
                            <polyline id="Path-11" fill="#14161C" points="139.729064 24.5 150.246305 15.5 142.73399 15.5"></polyline>
                            <polyline id="Path-11-Copy" fill="#14161C" transform="translate(176.539409, 20.000000) scale(-1, 1) translate(-176.539409, -20.000000) " points="171.280788 24.5 181.79803 15.5 174.285714 15.5"></polyline>
                            <ellipse id="Oval" fill="#14161C" cx="223.115764" cy="50" rx="2.25369458" ry="3"></ellipse>
                            <ellipse id="Oval-Copy-3" fill="#14161C" cx="235.135468" cy="50" rx="2.25369458" ry="3"></ellipse>
                            <path d="M220.862069,47.75 C220.862069,48.75 221.6133,49.5 223.115764,50" id="Path-13" stroke="#14161C" stroke-width="1.5" stroke-linecap="round" stroke-linejoin="round"></path>
                            <path d="M235.135468,47.75 C235.135468,48.75 235.8867,49.5 237.389163,50" id="Path-13-Copy" stroke="#14161C" stroke-width="1.5" stroke-linecap="round" stroke-linejoin="round" transform="translate(236.262315, 48.875000) scale(-1, 1) translate(-236.262315, -48.875000) "></path>
                            <path d="M78.1280788,32.7543103 C78.1256983,29.8524349 75.7713336,27.4980702 72.8694581,27.4956897" id="Oval" stroke="#14161C" stroke-width="3" stroke-linecap="round" transform="translate(75.498768, 30.125000) rotate(-45.000000) translate(-75.498768, -30.125000) "></path>
                            <path d="M156.256158,32.7543103 C156.253777,29.8524349 153.899412,27.4980702 150.997537,27.4956897" id="Oval-Copy-7" stroke="#14161C" stroke-width="3" stroke-linecap="round" transform="translate(153.626847, 30.125000) rotate(-45.000000) translate(-153.626847, -30.125000) "></path>
                            <path d="M169.778325,32.7543103 C169.775945,29.8524349 167.42158,27.4980702 164.519704,27.4956897" id="Oval-Copy-8" stroke="#14161C" stroke-width="3" stroke-linecap="round" transform="translate(167.149015, 30.125000) rotate(-45.000000) translate(-167.149015, -30.125000) "></path>
                            <path d="M92.4088004,32.7543103 C92.4064199,29.8524349 90.0520552,27.4980702 87.1501797,27.4956897" id="Oval-Copy-4" stroke="#14161C" stroke-width="3" stroke-linecap="round" transform="translate(89.779490, 30.125000) rotate(-45.000000) translate(-89.779490, -30.125000) "></path>
                            <path d="M85.6403941,53.7543103 C85.6380136,50.8524349 83.2836489,48.4980702 80.3817734,48.4956897" id="Oval-Copy-10" stroke="#14161C" stroke-width="3" stroke-linecap="round" transform="translate(83.011084, 51.125000) rotate(-225.000000) translate(-83.011084, -51.125000) "></path>
                            <path d="M233.997145,64.5567639 C233.993291,59.8579504 230.128837,55.8447323 225.408926,55.9981492 C222.674902,56.0870164 233.999455,67.3725316 233.997145,64.5567639 Z" id="Oval-Copy-11" fill="#14161C" transform="translate(229.490102, 60.500839) rotate(-225.000000) translate(-229.490102, -60.500839) "></path>
                            <path d="M225.369458,46.2543103 C225.367078,43.3524349 223.012713,40.9980702 220.110837,40.9956897" id="Oval-Copy-5" stroke="#14161C" stroke-width="3" stroke-linecap="round" transform="translate(222.740148, 43.625000) rotate(-45.000000) translate(-222.740148, -43.625000) "></path>
                            <path d="M238.891626,46.2543103 C238.889245,43.3524349 236.53488,40.9980702 233.633005,40.9956897" id="Oval-Copy-6" stroke="#14161C" stroke-width="3" stroke-linecap="round" transform="translate(236.262315, 43.625000) rotate(-45.000000) translate(-236.262315, -43.625000) "></path>
                            <polyline id="Path-15" stroke="#14161C" stroke-width="3" stroke-linecap="round" stroke-linejoin="round" points="160.763547 37.25 160.012315 43.25 161.514778 43.25"></polyline>
                            <polyline id="Path-16" stroke="#14161C" stroke-width="3" stroke-linecap="round" stroke-linejoin="round" points="229.125616 51.5 228.374384 55.25 229.876847 55.25"></polyline>
                        </g>
                    </g>
                </g>
            </g>
        </g>
    </g>
</svg>