<?xml version="1.0" encoding="UTF-8"?>
<svg width="17px" height="13px" viewBox="0 0 17 13" version="1.1" xmlns="http://www.w3.org/2000/svg" xmlns:xlink="http://www.w3.org/1999/xlink">
    <!-- Generator: Sketch 53.2 (72643) - https://sketchapp.com -->
    <title>Fill 1</title>
    <desc>Created with Sketch.</desc>
    <g id="Design" stroke="none" stroke-width="1" fill="none" fill-rule="evenodd">
        <g id="Revollet_LandingPage" transform="translate(-469.000000, -2289.000000)" fill="#14161C">
            <g id="WhyRevollet" transform="translate(0.000000, 1043.000000)">
                <g id="Scroll" transform="translate(449.000000, 1224.000000)">
                    <g id="&lt;">
                        <path d="M36.6239942,27.6072387 L31.381351,22.3623671 C30.8983342,21.879211 30.0930676,21.879211 29.6100508,22.3623671 C29.1270341,22.8455232 29.1270341,23.6510221 29.6100508,24.1341782 L32.7053166,27.2491319 L21.2526369,27.2491319 C20.5550255,27.2491319 20,27.8043175 20,28.5021301 C20,29.1999427 20.5550255,29.7551283 21.2526369,29.7551283 L32.7053166,29.7551283 L29.609335,32.852003 C29.1263183,33.3351591 29.1263183,34.140658 29.609335,34.6238141 C29.8595761,34.8741274 30.1818259,35 30.5040757,35 C30.8263255,35 31.1485752,34.8748398 31.3988163,34.6238141 L36.6239226,29.3972004 C36.8566983,29.1643576 37,28.8420148 37,28.5022017 C37,28.1623886 36.8748759,27.8400458 36.6239226,27.6072029 L36.6239942,27.6072387 Z" id="Fill-1" transform="translate(28.500000, 28.500000) scale(-1, 1) translate(-28.500000, -28.500000) "></path>
                    </g>
                </g>
            </g>
        </g>
    </g>
</svg>