<?xml version="1.0" encoding="utf-8"?>
<!-- Generator: Adobe Illustrator 23.0.0, SVG Export Plug-In . SVG Version: 6.00 Build 0)  -->
<svg version="1.1" id="Layer_1" xmlns="http://www.w3.org/2000/svg" xmlns:xlink="http://www.w3.org/1999/xlink" x="0px" y="0px"
	 viewBox="0 0 280 160" style="enable-background:new 0 0 280 160;" xml:space="preserve">
<style type="text/css">
	.st0{clip-path:url(#SVGID_2_);}
	.st1{fill:url(#SVGID_3_);}
	.st2{opacity:0.2;fill:url(#SVGID_4_);enable-background:new    ;}
	.st3{fill:#FFFFFF;}
	.st4{display:none;fill:none;}
</style>
<g>
	<defs>
		<rect id="SVGID_1_" width="280" height="160"/>
	</defs>
	<clipPath id="SVGID_2_">
		<use xlink:href="#SVGID_1_"  style="overflow:visible;"/>
	</clipPath>
	<g class="st0">
		
			<linearGradient id="SVGID_3_" gradientUnits="userSpaceOnUse" x1="151.3208" y1="120.4579" x2="133.2218" y2="58.9739" gradientTransform="matrix(1 0 0 -1 0 162)">
			<stop  offset="0" style="stop-color:#4A4C5D"/>
			<stop  offset="1" style="stop-color:#272937"/>
		</linearGradient>
		<path class="st1" d="M272,0H8C3.6,0,0,3.6,0,8v144c0,4.4,3.6,8,8,8h264c4.4,0,8-3.6,8-8V8C280,3.6,276.4,0,272,0z"/>
		
			<linearGradient id="SVGID_4_" gradientUnits="userSpaceOnUse" x1="64.8075" y1="-17.7775" x2="259.9675" y2="177.3825" gradientTransform="matrix(1 0 0 -1 0 162)">
			<stop  offset="0" style="stop-color:#000000"/>
			<stop  offset="1" style="stop-color:#FFFFFF"/>
		</linearGradient>
		<path class="st2" d="M254.6,25.8c-1.3,8.2-2.4,12.8-3.1,13.2c-0.4,0.5-0.6,1.1-0.6,1.7c-0.3,1.7-1,3.3-1.8,4.7
			c-0.7,1.3-1.3,2.6-1.8,4c0,1-5.8,9.5-9.4,13.9c-6.2,7.4-13.8,13.6-22.4,18.2c-1.8,0.9-3.6,1.8-5.3,2.9c-1.2,0.6-2.4,1.1-3.7,1.4
			c-1.8,0.5-3.9,1.2-4.7,1.5c-5.3,2-21.7,4.4-31.1,4.4c-7.6,0-8.6,0.3-8.6,2.8c0,1.7,2.3,4.5,8.6,10.5c1.3,1.3,4.4,4.2,6.8,6.5
			l4.4,4.2l5.3-0.4c5.6-0.4,11.2-1.3,16.7-2.9c1.5-0.5,3-0.9,4.6-1.1c0.9-0.1,1.7-0.3,2.5-0.7c3-1.5,6.2-2.7,9.5-3.6
			c1.7-0.5,3.1-1.3,3.1-1.6s0.6-0.6,1.4-0.6c0.9-0.1,1.7-0.5,2.3-1.1c0.5-0.6,1.2-1,1.9-1.1c0.6,0,1-0.3,1-0.7
			c0-0.2,0.1-0.4,0.3-0.5c0.1-0.1,0.3-0.2,0.5-0.2c1.2,0,10.1-6.1,13.4-9.1c1.6-1.5,4-3.6,5.2-4.7c2-1.8,3.8-3.8,5.5-6
			c1.5-1.9,3-3.7,4.7-5.4c0.8-0.6,1.4-1.4,1.7-2.3c0-0.2,0-0.4,0.1-0.6c0.1-0.2,0.3-0.4,0.4-0.5c1-0.4,5-7.4,8.4-14.8
			c1.9-4,3.7-7.9,4.1-8.5c0.4-0.8,0.6-1.7,0.7-2.6c0-0.7,0.2-1.4,0.7-2c0.8-0.9,2.7-9.6,3.6-16.7c0.9-7.6,1-15.3,0.2-22.9
			c-0.6-1.5-1.6-2.8-3-3.7C275.2,0.5,273.6,0,272,0h-18.3C255.1,8.5,255.6,19.6,254.6,25.8z M201.4,21c-0.4,0.6-1.2,2.5-1.8,3.9
			c-1.7,3.9-7.6,9.4-11.7,11.1c-3.5,1.5-5.4,1.5-81.2,1.7c-75.9,0.2-77.7,0.2-78.1,1.6c-0.4,1.4,1.3,3.3,97.5,98.3l22.6,22.4h34.9
			l-14.1-14c-26.6-26.4-56.5-55.9-66.3-65.8L85.2,62.5h47.6c45.6,0,57.6-0.4,59.6-2.3c0.7-0.5,1.5-0.7,2.3-0.7
			c0.8,0.1,1.5-0.2,2.1-0.7c1.2-0.9,2.6-1.5,4-1.9c2-0.7,3.6-1.5,3.6-1.9c0-0.2,0.1-0.4,0.3-0.5c0.2-0.1,0.3-0.2,0.5-0.2
			c1-0.3,1.9-1,2.6-1.8c0.6-0.7,1.3-1.3,2.1-1.8c0.9,0,7.6-7.5,8.9-10c0.7-1.4,1.6-3.2,2-3.9s0.9-1.4,1.2-1.4c0.4,0,0.6-0.7,0.6-1.7
			c0-0.9,0.3-1.8,0.8-2.5c1.5-1.5,2.4-7.1,2.4-16.2c0-7.3-0.6-12-1.8-15.3h-28.4c4.2,4.3,6.6,9.9,6.7,15.9
			C202.2,17.6,202,19.4,201.4,21z M98.8,160h8.7c-4-3.8-6.6-5.9-7.3-5.9C99.2,154.1,98.9,154.3,98.8,160z M223.5,130.6
			c-4.8,2.1-9.8,3.8-14.9,4.9c-1.1,0.3-2.1,0.9-2.8,1.9c-0.6,1.1,1.8,3.9,20.6,22.6h35.1C227.3,126.1,229.2,128.2,223.5,130.6z
			 M68.9,121.6l-10.6-10.5c-5.9-5.7-11.1-10.5-11.9-10.5c-1.2,0-1.2,3.8-1.5,58.7v0.6h24v-2.4L68.9,121.6z"/>
		<path class="st3" d="M213.7,79.2c-0.8,0-1.6-0.1-2.3-0.4c-0.7-0.3-1.2-0.7-1.6-1.3c-0.4-0.6-0.6-1.2-0.6-2c0-0.7,0.2-1.4,0.5-1.9
			s0.9-1,1.5-1.3c-0.5-0.3-0.9-0.6-1.2-1.1c-0.3-0.5-0.4-1-0.4-1.6c0-1,0.4-1.9,1.1-2.4c0.8-0.6,1.7-0.9,2.9-0.9s2.1,0.3,2.9,0.9
			c0.8,0.6,1.2,1.4,1.2,2.4c0,0.6-0.1,1.2-0.4,1.6c-0.3,0.5-0.7,0.8-1.2,1.1c0.6,0.3,1.1,0.7,1.5,1.3s0.5,1.2,0.5,1.9
			c0,0.8-0.2,1.5-0.6,2c-0.4,0.6-0.9,1-1.6,1.3C215.3,79,214.6,79.2,213.7,79.2z M213.7,71.7c0.8,0,1.5-0.2,2.1-0.6
			c0.6-0.4,0.8-0.9,0.8-1.6c0-0.7-0.3-1.2-0.8-1.6c-0.6-0.4-1.2-0.6-2.1-0.6s-1.5,0.2-2.1,0.6c-0.6,0.4-0.8,0.9-0.8,1.6
			c0,0.7,0.3,1.2,0.8,1.6C212.2,71.5,212.9,71.7,213.7,71.7z M213.7,78.1c0.9,0,1.7-0.2,2.4-0.7c0.6-0.5,1-1.1,1-1.9
			c0-0.8-0.3-1.4-1-1.9c-0.6-0.5-1.4-0.7-2.4-0.7c-1,0-1.8,0.2-2.4,0.7c-0.6,0.5-1,1.1-1,1.9c0,0.8,0.3,1.4,1,1.9
			C212,77.9,212.8,78.1,213.7,78.1z M222.9,79c-0.1,0-0.2,0-0.3-0.1c-0.1-0.1-0.1-0.2-0.1-0.3c0-0.1,0-0.1,0.1-0.2l2.8-4
			c-0.4,0.1-0.8,0.1-1.2,0.1c-0.9,0-1.7-0.2-2.3-0.6c-0.6-0.4-1.1-0.9-1.4-1.5c-0.3-0.6-0.5-1.3-0.5-2s0.2-1.4,0.5-2
			c0.3-0.6,0.8-1.2,1.4-1.5c0.6-0.4,1.4-0.6,2.3-0.6c0.9,0,1.7,0.2,2.3,0.6c0.6,0.4,1.1,0.9,1.5,1.5c0.3,0.6,0.5,1.3,0.5,2
			c0,0.6-0.1,1.2-0.3,1.7c-0.2,0.5-0.5,0.9-0.8,1.4l-3.7,5.2c0,0,0,0.1-0.1,0.1c0,0.1-0.1,0.1-0.2,0.2c-0.1,0-0.2,0.1-0.3,0.1H222.9
			z M224.3,73.4c0.6,0,1.1-0.1,1.6-0.4c0.5-0.3,0.9-0.6,1.2-1.1c0.3-0.5,0.4-1,0.4-1.6c0-0.6-0.1-1.2-0.4-1.6
			c-0.3-0.5-0.7-0.8-1.2-1.1c-0.5-0.3-1-0.4-1.6-0.4c-0.6,0-1.1,0.1-1.6,0.4s-0.9,0.6-1.2,1.1c-0.3,0.5-0.4,1-0.4,1.6
			s0.1,1.2,0.4,1.6c0.3,0.5,0.7,0.8,1.2,1.1S223.8,73.4,224.3,73.4z M233.2,79c-0.1,0-0.2,0-0.3-0.1c-0.1-0.1-0.1-0.2-0.1-0.3
			c0-0.1,0-0.1,0.1-0.2l2.8-4c-0.4,0.1-0.8,0.1-1.2,0.1c-0.9,0-1.7-0.2-2.3-0.6c-0.6-0.4-1.1-0.9-1.4-1.5s-0.5-1.3-0.5-2
			s0.2-1.4,0.5-2c0.3-0.6,0.8-1.2,1.4-1.5c0.6-0.4,1.4-0.6,2.3-0.6s1.7,0.2,2.3,0.6c0.6,0.4,1.1,0.9,1.5,1.5c0.3,0.6,0.5,1.3,0.5,2
			c0,0.6-0.1,1.2-0.3,1.7c-0.2,0.5-0.5,0.9-0.8,1.4l-3.7,5.2c0,0,0,0.1-0.1,0.1c0,0.1-0.1,0.1-0.2,0.2c-0.1,0-0.2,0.1-0.3,0.1H233.2
			z M234.6,73.4c0.6,0,1.1-0.1,1.6-0.4c0.5-0.3,0.9-0.6,1.2-1.1c0.3-0.5,0.4-1,0.4-1.6c0-0.6-0.1-1.2-0.4-1.6
			c-0.3-0.5-0.7-0.8-1.2-1.1c-0.5-0.3-1-0.4-1.6-0.4s-1.1,0.1-1.6,0.4c-0.5,0.3-0.9,0.6-1.2,1.1c-0.3,0.5-0.4,1-0.4,1.6
			s0.1,1.2,0.4,1.6c0.3,0.5,0.7,0.8,1.2,1.1C233.5,73.3,234.1,73.4,234.6,73.4z M245.5,79.2c-1.5,0-2.6-0.5-3.3-1.4
			c-0.7-0.9-1-2.1-1-3.6l0-1.5l0-1.5c0-1.5,0.4-2.7,1-3.6c0.7-0.9,1.8-1.4,3.3-1.4c1.5,0,2.6,0.5,3.3,1.4c0.7,0.9,1,2.1,1.1,3.6
			c0,0.3,0,0.8,0,1.5c0,0.7,0,1.2,0,1.5c0,1.5-0.4,2.7-1.1,3.6C248.1,78.7,247,79.2,245.5,79.2z M245.5,78.1c1,0,1.8-0.3,2.3-1
			c0.5-0.7,0.8-1.7,0.8-3c0-0.3,0-0.8,0-1.4s0-1.1,0-1.4c0-1.2-0.3-2.2-0.8-2.9c-0.5-0.7-1.3-1.1-2.3-1.1s-1.8,0.4-2.4,1.1
			c-0.5,0.7-0.8,1.7-0.8,2.9l0,1.4l0,1.4c0,1.3,0.3,2.3,0.8,3C243.6,77.8,244.4,78.1,245.5,78.1z"/>
		<path class="st3" d="M26.1,79.2c-0.9,0-1.7-0.2-2.4-0.6c-0.7-0.4-1.2-0.9-1.5-1.6c-0.3-0.6-0.5-1.3-0.5-2.1c0-1,0.4-2.1,1.1-3.2
			l3.5-5c0,0,0-0.1,0.1-0.1c0.1-0.1,0.1-0.1,0.2-0.2c0.1,0,0.2-0.1,0.3-0.1h0.3c0.1,0,0.2,0,0.3,0.1c0.1,0.1,0.1,0.2,0.1,0.3
			c0,0.1,0,0.1-0.1,0.2l-2.7,3.8c0.4-0.1,0.8-0.1,1.2-0.1c0.9,0,1.7,0.2,2.4,0.6c0.7,0.4,1.2,0.9,1.5,1.5c0.3,0.6,0.5,1.3,0.5,2.1
			c0,0.7-0.2,1.4-0.5,2.1c-0.3,0.6-0.8,1.2-1.5,1.6C27.8,79,27,79.2,26.1,79.2z M26.1,78.1c0.6,0,1.1-0.1,1.6-0.4
			c0.5-0.3,0.9-0.6,1.2-1.1c0.3-0.5,0.4-1,0.4-1.7c0-0.7-0.1-1.2-0.4-1.7c-0.3-0.5-0.7-0.8-1.2-1.1c-0.5-0.3-1-0.4-1.6-0.4
			s-1.1,0.1-1.6,0.4c-0.5,0.2-0.9,0.6-1.2,1.1c-0.3,0.5-0.5,1-0.5,1.7c0,0.7,0.1,1.2,0.5,1.7c0.3,0.5,0.7,0.8,1.2,1.1
			C25,78,25.5,78.1,26.1,78.1z M32.5,79c-0.1,0-0.2,0-0.3-0.1s-0.1-0.2-0.1-0.3v-0.3c0-0.2,0.2-0.5,0.5-0.8l4.7-4.7
			c0.7-0.6,1.1-1.1,1.3-1.5c0.2-0.4,0.3-0.9,0.3-1.5c0-0.8-0.2-1.4-0.7-1.9c-0.5-0.5-1.1-0.7-2-0.7c-0.8,0-1.4,0.2-1.9,0.7
			s-0.8,1.1-0.9,1.9c0,0.1-0.1,0.2-0.2,0.3c-0.1,0.1-0.2,0.1-0.3,0.1h-0.4c-0.1,0-0.2,0-0.3-0.1c-0.1-0.1-0.1-0.2-0.1-0.3
			c0-0.6,0.2-1.2,0.5-1.7c0.3-0.6,0.7-1.1,1.3-1.4c0.6-0.4,1.3-0.6,2.2-0.6c1.3,0,2.2,0.3,2.9,1s0.9,1.6,0.9,2.6
			c0,0.7-0.2,1.4-0.5,1.9c-0.3,0.6-0.8,1.2-1.5,1.8l-4.2,4.3h6c0.1,0,0.2,0,0.3,0.1c0.1,0.1,0.1,0.2,0.1,0.3v0.3
			c0,0.1,0,0.2-0.1,0.3C40.1,79,40,79,39.9,79H32.5z M46.4,79.2c-0.9,0-1.6-0.1-2.3-0.4c-0.6-0.3-1.1-0.7-1.5-1.1
			c-0.3-0.5-0.5-1-0.6-1.5c0-0.1,0-0.2,0.1-0.3c0.1-0.1,0.2-0.1,0.3-0.1h0.3c0.1,0,0.2,0,0.3,0.1c0.1,0,0.1,0.2,0.2,0.3
			c0.2,0.7,0.5,1.2,1.1,1.5c0.6,0.3,1.3,0.4,2.1,0.4c1,0,1.7-0.2,2.3-0.7s0.9-1.1,0.9-2c0-1.7-1-2.5-3-2.5H45c-0.1,0-0.2,0-0.3-0.1
			c-0.1-0.1-0.1-0.2-0.1-0.3v-0.3c0-0.1,0.1-0.3,0.2-0.4l3.7-4.4H43c-0.1,0-0.2,0-0.3-0.1c-0.1-0.1-0.1-0.2-0.1-0.3v-0.3
			c0-0.1,0-0.2,0.1-0.3c0.1-0.1,0.2-0.1,0.3-0.1h6.7c0.1,0,0.2,0,0.3,0.1c0.1,0.1,0.1,0.2,0.1,0.3v0.3c0,0.1,0,0.2-0.1,0.3l-3.8,4.4
			h0.4c1.3,0,2.3,0.3,3,0.9c0.7,0.6,1.1,1.5,1.1,2.7c0,0.8-0.2,1.4-0.6,2c-0.4,0.6-0.9,1-1.5,1.3C48,79,47.2,79.2,46.4,79.2z
			 M56.8,79.2c-0.9,0-1.6-0.1-2.3-0.4c-0.6-0.3-1.1-0.7-1.5-1.1c-0.3-0.5-0.5-1-0.6-1.5c0-0.1,0-0.2,0.1-0.3
			c0.1-0.1,0.2-0.1,0.3-0.1h0.3c0.1,0,0.2,0,0.3,0.1c0.1,0,0.1,0.2,0.2,0.3c0.2,0.7,0.5,1.2,1.1,1.5c0.6,0.3,1.3,0.4,2.1,0.4
			c1,0,1.7-0.2,2.3-0.7c0.6-0.5,0.9-1.1,0.9-2c0-1.7-1-2.5-3-2.5h-1.6c-0.1,0-0.2,0-0.3-0.1S55,72.7,55,72.6v-0.3
			c0-0.1,0.1-0.3,0.2-0.4l3.7-4.4h-5.4c-0.1,0-0.2,0-0.3-0.1c-0.1-0.1-0.1-0.2-0.1-0.3v-0.3c0-0.1,0-0.2,0.1-0.3
			c0.1-0.1,0.2-0.1,0.3-0.1h6.7c0.1,0,0.2,0,0.3,0.1c0.1,0.1,0.1,0.2,0.1,0.3v0.3c0,0.1,0,0.2-0.1,0.3l-3.8,4.4H57
			c1.3,0,2.3,0.3,3,0.9c0.7,0.6,1.1,1.5,1.1,2.7c0,0.8-0.2,1.4-0.6,2c-0.4,0.6-0.9,1-1.5,1.3C58.3,79,57.6,79.2,56.8,79.2z"/>
		<path class="st3" d="M98.8,79.2c-1.5,0-2.6-0.5-3.3-1.4c-0.7-0.9-1-2.1-1-3.6l0-1.5l0-1.5c0-1.5,0.4-2.7,1-3.6
			c0.7-0.9,1.8-1.4,3.3-1.4s2.6,0.5,3.3,1.4c0.7,0.9,1,2.1,1.1,3.6c0,0.3,0,0.8,0,1.5c0,0.7,0,1.2,0,1.5c0,1.5-0.4,2.7-1.1,3.6
			C101.4,78.7,100.3,79.2,98.8,79.2z M98.8,78.1c1,0,1.8-0.3,2.3-1c0.5-0.7,0.8-1.7,0.8-3c0-0.3,0-0.8,0-1.4s0-1.1,0-1.4
			c0-1.2-0.3-2.2-0.8-2.9c-0.5-0.7-1.3-1.1-2.3-1.1c-1,0-1.8,0.4-2.4,1.1c-0.5,0.7-0.8,1.7-0.8,2.9l0,1.4l0,1.4c0,1.3,0.3,2.3,0.8,3
			C97,77.8,97.8,78.1,98.8,78.1z M109.4,79c-0.1,0-0.2,0-0.3-0.1c-0.1-0.1-0.1-0.2-0.1-0.3V67.9l-3.2,2.5c-0.1,0.1-0.2,0.1-0.3,0.1
			c-0.1,0-0.2-0.1-0.3-0.2L105,70c-0.1-0.1-0.1-0.2-0.1-0.3c0-0.1,0.1-0.2,0.2-0.3l3.8-3c0.1-0.1,0.3-0.1,0.5-0.1h0.3
			c0.1,0,0.2,0,0.3,0.1c0.1,0.1,0.1,0.2,0.1,0.3v11.8c0,0.1,0,0.2-0.1,0.3s-0.2,0.1-0.3,0.1H109.4z M112.9,79c-0.1,0-0.2,0-0.3-0.1
			s-0.1-0.2-0.1-0.3v-0.3c0-0.2,0.2-0.5,0.5-0.8l4.7-4.7c0.7-0.6,1.1-1.1,1.3-1.5c0.2-0.4,0.3-0.9,0.3-1.5c0-0.8-0.2-1.4-0.7-1.9
			c-0.5-0.5-1.1-0.7-2-0.7c-0.8,0-1.4,0.2-1.9,0.7c-0.5,0.5-0.8,1.1-0.9,1.9c0,0.1-0.1,0.2-0.2,0.3c-0.1,0.1-0.2,0.1-0.3,0.1h-0.4
			c-0.1,0-0.2,0-0.3-0.1c-0.1-0.1-0.1-0.2-0.1-0.3c0-0.6,0.2-1.2,0.5-1.7c0.3-0.6,0.7-1.1,1.3-1.4c0.6-0.4,1.3-0.6,2.2-0.6
			c1.3,0,2.2,0.3,2.9,1s0.9,1.6,0.9,2.6c0,0.7-0.2,1.4-0.5,1.9c-0.3,0.6-0.8,1.2-1.5,1.8l-4.2,4.3h6c0.1,0,0.2,0,0.3,0.1
			c0.1,0.1,0.1,0.2,0.1,0.3v0.3c0,0.1,0,0.2-0.1,0.3c-0.1,0.1-0.2,0.1-0.3,0.1H112.9z M126.8,79.2c-0.9,0-1.6-0.1-2.3-0.4
			c-0.6-0.3-1.1-0.7-1.5-1.1c-0.3-0.5-0.5-1-0.6-1.5c0-0.1,0-0.2,0.1-0.3c0.1-0.1,0.2-0.1,0.3-0.1h0.3c0.1,0,0.2,0,0.3,0.1
			c0.1,0,0.1,0.2,0.2,0.3c0.2,0.7,0.5,1.2,1.1,1.5c0.6,0.3,1.3,0.4,2.1,0.4c1,0,1.7-0.2,2.3-0.7c0.6-0.5,0.9-1.1,0.9-2
			c0-1.7-1-2.5-3-2.5h-1.6c-0.1,0-0.2,0-0.3-0.1s-0.1-0.2-0.1-0.3v-0.3c0-0.1,0.1-0.3,0.2-0.4l3.7-4.4h-5.4c-0.1,0-0.2,0-0.3-0.1
			s-0.1-0.2-0.1-0.3v-0.3c0-0.1,0-0.2,0.1-0.3c0.1-0.1,0.2-0.1,0.3-0.1h6.7c0.1,0,0.2,0,0.3,0.1c0.1,0.1,0.1,0.2,0.1,0.3v0.3
			c0,0.1,0,0.2-0.1,0.3l-3.8,4.4h0.4c1.3,0,2.3,0.3,3,0.9c0.7,0.6,1.1,1.5,1.1,2.7c0,0.8-0.2,1.4-0.6,2c-0.4,0.6-0.9,1-1.5,1.3
			C128.3,79,127.6,79.2,126.8,79.2z"/>
		<path class="st3" d="M157.6,79c-0.1,0-0.2,0-0.3-0.1c-0.1-0.1-0.1-0.2-0.1-0.3v-2.8h-5.9c-0.1,0-0.2,0-0.3-0.1
			c-0.1-0.1-0.1-0.2-0.1-0.3v-0.3c0-0.2,0.1-0.4,0.2-0.5l5.5-7.8c0.1-0.1,0.1-0.2,0.3-0.2c0.1-0.1,0.3-0.1,0.4-0.1h0.7
			c0.1,0,0.2,0,0.3,0.1c0.1,0.1,0.1,0.2,0.1,0.3v7.9h1.6c0.1,0,0.2,0,0.3,0.1s0.1,0.2,0.1,0.3v0.3c0,0.1,0,0.2-0.1,0.3
			s-0.2,0.1-0.3,0.1h-1.6v2.8c0,0.1,0,0.2-0.1,0.3c-0.1,0.1-0.2,0.1-0.3,0.1H157.6z M152.3,74.7h4.9v-7L152.3,74.7z M166,79.2
			c-0.8,0-1.6-0.2-2.2-0.5c-0.6-0.3-1.1-0.7-1.4-1.2c-0.3-0.5-0.5-1-0.5-1.6v0c0-0.1,0-0.2,0.1-0.2c0.1-0.1,0.2-0.1,0.3-0.1h0.3
			c0.1,0,0.2,0,0.3,0.1c0.1,0,0.1,0.2,0.2,0.3c0.2,0.7,0.5,1.3,1.1,1.6s1.2,0.5,1.9,0.5c0.9,0,1.7-0.3,2.3-0.8
			c0.6-0.6,0.9-1.3,0.9-2.3c0-0.6-0.1-1.1-0.4-1.6c-0.3-0.4-0.7-0.8-1.2-1c-0.5-0.2-1-0.4-1.6-0.4c-0.5,0-0.9,0.1-1.2,0.2
			c-0.3,0.1-0.6,0.3-0.9,0.5c-0.2,0.1-0.3,0.2-0.4,0.3c-0.1,0.1-0.2,0.1-0.4,0.1h-0.3c-0.1,0-0.2,0-0.3-0.1
			c-0.1-0.1-0.1-0.2-0.1-0.3l0.5-5.9c0-0.1,0-0.2,0.1-0.3c0.1-0.1,0.2-0.1,0.3-0.1h5.9c0.1,0,0.2,0,0.3,0.1c0.1,0.1,0.1,0.2,0.1,0.3
			v0.3c0,0.1,0,0.2-0.1,0.3c-0.1,0.1-0.2,0.1-0.3,0.1h-5.2l-0.4,4.1c0.6-0.4,1.4-0.6,2.3-0.6c0.8,0,1.5,0.2,2.2,0.5
			c0.7,0.3,1.2,0.8,1.6,1.4c0.4,0.6,0.6,1.3,0.6,2.2c0,0.9-0.2,1.7-0.6,2.3c-0.4,0.6-0.9,1.1-1.6,1.4C167.6,79,166.9,79.2,166,79.2z
			 M176.7,79.2c-0.9,0-1.7-0.2-2.4-0.6c-0.7-0.4-1.2-0.9-1.5-1.6c-0.3-0.6-0.5-1.3-0.5-2.1c0-1,0.4-2.1,1.1-3.2l3.5-5
			c0,0,0-0.1,0.1-0.1c0.1-0.1,0.1-0.1,0.2-0.2c0.1,0,0.2-0.1,0.3-0.1h0.3c0.1,0,0.2,0,0.3,0.1c0.1,0.1,0.1,0.2,0.1,0.3
			c0,0.1,0,0.1-0.1,0.2l-2.7,3.8c0.4-0.1,0.8-0.1,1.2-0.1c0.9,0,1.7,0.2,2.4,0.6c0.7,0.4,1.2,0.9,1.5,1.5c0.3,0.6,0.5,1.3,0.5,2.1
			c0,0.7-0.2,1.4-0.5,2.1c-0.3,0.6-0.8,1.2-1.5,1.6C178.4,79,177.6,79.2,176.7,79.2z M176.7,78.1c0.6,0,1.1-0.1,1.6-0.4
			c0.5-0.3,0.9-0.6,1.2-1.1c0.3-0.5,0.4-1,0.4-1.7c0-0.7-0.1-1.2-0.4-1.7c-0.3-0.5-0.7-0.8-1.2-1.1c-0.5-0.3-1-0.4-1.6-0.4
			c-0.6,0-1.1,0.1-1.6,0.4c-0.5,0.2-0.9,0.6-1.2,1.1c-0.3,0.5-0.4,1-0.4,1.7c0,0.7,0.1,1.2,0.4,1.7c0.3,0.5,0.7,0.8,1.2,1.1
			C175.6,78,176.1,78.1,176.7,78.1z M184,79c-0.1,0-0.2,0-0.3-0.1c-0.1-0.1-0.1-0.2-0.1-0.3l0-0.2l4.6-11h-6.1c-0.1,0-0.2,0-0.3-0.1
			c-0.1-0.1-0.1-0.2-0.1-0.3v-0.3c0-0.1,0-0.2,0.1-0.3c0.1-0.1,0.2-0.1,0.3-0.1h6.9c0.1,0,0.2,0,0.3,0.1c0.1,0.1,0.1,0.2,0.1,0.3
			v0.3c0,0.2,0,0.4-0.1,0.7l-4.6,10.8c-0.1,0.1-0.1,0.3-0.2,0.3c-0.1,0.1-0.1,0.1-0.3,0.1H184z"/>
		<path class="st3" d="M180.6,42.1c-0.1,0-0.2,0-0.4-0.1c-0.1-0.1-0.1-0.2-0.1-0.3l0.4-2.7h-2.2c-0.1,0-0.3,0-0.4-0.1
			c-0.1-0.1-0.1-0.2-0.1-0.4v-0.7c0-0.1,0-0.3,0.1-0.4c0.1-0.1,0.2-0.1,0.4-0.1h2.4l0.6-3.9h-2.4c-0.1,0-0.3,0-0.4-0.1
			c-0.1-0.1-0.1-0.2-0.1-0.4v-0.7c0-0.1,0-0.3,0.1-0.4c0.1-0.1,0.2-0.1,0.4-0.1h2.7l0.4-2.7c0-0.1,0.1-0.2,0.2-0.3
			c0.1-0.1,0.2-0.1,0.3-0.1h0.7c0.1,0,0.2,0,0.3,0.1s0.1,0.2,0.1,0.3l-0.4,2.7h3.3l0.4-2.7c0-0.1,0.1-0.2,0.2-0.3s0.2-0.1,0.3-0.1
			h0.7c0.1,0,0.2,0,0.3,0.1s0.1,0.2,0.1,0.3l-0.4,2.7h2.2c0.1,0,0.3,0,0.4,0.1c0.1,0.1,0.1,0.2,0.1,0.4v0.7c0,0.1,0,0.3-0.1,0.4
			c-0.1,0.1-0.2,0.1-0.4,0.1h-2.4l-0.6,3.9h2.4c0.1,0,0.3,0,0.4,0.1c0.1,0.1,0.1,0.2,0.1,0.4v0.7c0,0.1,0,0.3-0.1,0.4
			c-0.1,0.1-0.2,0.1-0.4,0.1h-2.7l-0.4,2.7c0,0.1-0.1,0.2-0.2,0.3c-0.1,0.1-0.2,0.1-0.3,0.1h-0.7c-0.1,0-0.2,0-0.4-0.1
			c-0.1-0.1-0.1-0.2-0.1-0.3l0.4-2.7h-3.3l-0.4,2.7c0,0.1-0.1,0.2-0.2,0.3c-0.1,0.1-0.2,0.1-0.3,0.1H180.6z M182.5,37.3h3.3l0.6-3.9
			h-3.3L182.5,37.3z M195.9,42.1c-0.1,0-0.2,0-0.4-0.1c-0.1-0.1-0.1-0.2-0.1-0.3l0.4-2.7h-2.2c-0.1,0-0.3,0-0.4-0.1
			c-0.1-0.1-0.1-0.2-0.1-0.4v-0.7c0-0.1,0-0.3,0.1-0.4c0.1-0.1,0.2-0.1,0.4-0.1h2.4l0.6-3.9h-2.4c-0.1,0-0.3,0-0.4-0.1
			c-0.1-0.1-0.1-0.2-0.1-0.4v-0.7c0-0.1,0-0.3,0.1-0.4c0.1-0.1,0.2-0.1,0.4-0.1h2.7l0.4-2.7c0-0.1,0.1-0.2,0.2-0.3
			c0.1-0.1,0.2-0.1,0.3-0.1h0.7c0.1,0,0.2,0,0.3,0.1s0.1,0.2,0.1,0.3l-0.4,2.7h3.3l0.4-2.7c0-0.1,0.1-0.2,0.2-0.3
			c0.1-0.1,0.2-0.1,0.3-0.1h0.7c0.1,0,0.2,0,0.3,0.1s0.1,0.2,0.1,0.3l-0.4,2.7h2.2c0.1,0,0.3,0,0.4,0.1s0.1,0.2,0.1,0.4v0.7
			c0,0.1,0,0.3-0.1,0.4c-0.1,0.1-0.2,0.1-0.4,0.1h-2.4l-0.6,3.9h2.4c0.1,0,0.3,0,0.4,0.1c0.1,0.1,0.1,0.2,0.1,0.4v0.7
			c0,0.1,0,0.3-0.1,0.4c-0.1,0.1-0.2,0.1-0.4,0.1h-2.7l-0.4,2.7c0,0.1-0.1,0.2-0.2,0.3c-0.1,0.1-0.2,0.1-0.3,0.1h-0.7
			c-0.1,0-0.2,0-0.4-0.1c-0.1-0.1-0.1-0.2-0.1-0.3l0.4-2.7h-3.3l-0.4,2.7c0,0.1-0.1,0.2-0.2,0.3c-0.1,0.1-0.2,0.1-0.3,0.1H195.9z
			 M197.8,37.3h3.3l0.6-3.9h-3.3L197.8,37.3z M209.4,43c-0.1,0-0.3,0-0.4-0.1c-0.1-0.1-0.1-0.2-0.1-0.4V41c0-0.1,0-0.3,0.1-0.4
			c0.1-0.1,0.2-0.2,0.4-0.2h1.5c0.1,0,0.3,0.1,0.4,0.2c0.1,0.1,0.2,0.2,0.2,0.4v1.5c0,0.1-0.1,0.3-0.2,0.4c-0.1,0.1-0.2,0.1-0.4,0.1
			H209.4z M216.8,42.1c-0.1,0-0.3,0-0.4-0.1c-0.1-0.1-0.1-0.2-0.1-0.3l0.4-2.7h-2.2c-0.1,0-0.3,0-0.4-0.1c-0.1-0.1-0.1-0.2-0.1-0.4
			v-0.7c0-0.1,0-0.3,0.1-0.4c0.1-0.1,0.2-0.1,0.4-0.1h2.4l0.6-3.9h-2.4c-0.1,0-0.3,0-0.4-0.1c-0.1-0.1-0.1-0.2-0.1-0.4v-0.7
			c0-0.1,0-0.3,0.1-0.4c0.1-0.1,0.2-0.1,0.4-0.1h2.7l0.4-2.7c0-0.1,0.1-0.2,0.2-0.3s0.2-0.1,0.3-0.1h0.7c0.1,0,0.2,0,0.3,0.1
			c0.1,0.1,0.1,0.2,0.1,0.3l-0.4,2.7h3.3l0.4-2.7c0-0.1,0.1-0.2,0.2-0.3c0.1-0.1,0.2-0.1,0.3-0.1h0.7c0.1,0,0.2,0,0.3,0.1
			s0.1,0.2,0.1,0.3l-0.4,2.7h2.2c0.1,0,0.3,0,0.4,0.1s0.1,0.2,0.1,0.4v0.7c0,0.1,0,0.3-0.1,0.4c-0.1,0.1-0.2,0.1-0.4,0.1h-2.4
			l-0.6,3.9h2.4c0.1,0,0.3,0,0.4,0.1c0.1,0.1,0.1,0.2,0.1,0.4v0.7c0,0.1,0,0.3-0.1,0.4c-0.1,0.1-0.2,0.1-0.4,0.1h-2.7l-0.4,2.7
			c0,0.1-0.1,0.2-0.2,0.3c-0.1,0.1-0.2,0.1-0.3,0.1h-0.7c-0.1,0-0.3,0-0.4-0.1c-0.1-0.1-0.1-0.2-0.1-0.3l0.4-2.7h-3.3l-0.4,2.7
			c0,0.1-0.1,0.2-0.2,0.3c-0.1,0.1-0.2,0.1-0.3,0.1H216.8z M218.7,37.3h3.3l0.6-3.9h-3.3L218.7,37.3z"/>
		<path class="st3" d="M235,30.5v5.8c0,0.8-0.3,1.5-0.8,2c-0.5,0.5-1.2,0.8-2,0.9l-0.3,0c-0.9,0-1.7-0.3-2.2-0.8
			c-0.6-0.5-0.8-1.2-0.8-2.1v-5.8h1.1v5.8c0,0.6,0.2,1.1,0.5,1.4c0.3,0.3,0.8,0.5,1.5,0.5c0.6,0,1.1-0.2,1.5-0.5
			c0.3-0.3,0.5-0.8,0.5-1.4v-5.8H235z M239.3,35.2c-1-0.3-1.7-0.6-2.1-1c-0.4-0.4-0.7-0.9-0.7-1.5c0-0.7,0.3-1.2,0.8-1.7
			c0.5-0.4,1.2-0.7,2.1-0.7c0.6,0,1.1,0.1,1.6,0.3c0.5,0.2,0.8,0.5,1.1,0.9c0.3,0.4,0.4,0.8,0.4,1.3h-1.1c0-0.5-0.2-0.9-0.5-1.2
			c-0.3-0.3-0.8-0.4-1.4-0.4c-0.6,0-1,0.1-1.3,0.4c-0.3,0.2-0.5,0.6-0.5,1c0,0.3,0.1,0.6,0.4,0.9c0.3,0.2,0.8,0.5,1.5,0.7
			c0.7,0.2,1.3,0.4,1.7,0.7c0.4,0.2,0.7,0.5,0.9,0.8c0.2,0.3,0.3,0.7,0.3,1.1c0,0.7-0.3,1.2-0.8,1.7c-0.5,0.4-1.3,0.6-2.2,0.6
			c-0.6,0-1.1-0.1-1.6-0.3c-0.5-0.2-0.9-0.5-1.2-0.9c-0.3-0.4-0.4-0.8-0.4-1.3h1.1c0,0.5,0.2,0.9,0.6,1.2c0.4,0.3,0.9,0.4,1.5,0.4
			c0.6,0,1-0.1,1.4-0.4c0.3-0.2,0.5-0.6,0.5-1c0-0.4-0.1-0.7-0.4-1C240.6,35.6,240.1,35.4,239.3,35.2z M243.9,39v-8.5h2.4
			c0.7,0,1.4,0.2,2,0.5c0.6,0.3,1,0.8,1.3,1.4c0.3,0.6,0.5,1.3,0.5,2.1V35c0,0.8-0.2,1.5-0.5,2.1c-0.3,0.6-0.8,1.1-1.3,1.4
			c-0.6,0.3-1.2,0.5-2,0.5H243.9z M245,31.4v6.7h1.2c0.9,0,1.5-0.3,2-0.8c0.5-0.5,0.7-1.3,0.7-2.3v-0.5c0-1-0.2-1.7-0.7-2.3
			c-0.5-0.5-1.1-0.8-1.9-0.8H245z"/>
		<path class="st3" d="M176.3,96.4h-2.7v7.6h-1.1v-7.6h-2.7v-0.9h6.6V96.4z M181.8,101.8h-3.6l-0.8,2.2h-1.2l3.3-8.5h1l3.3,8.5h-1.2
			L181.8,101.8z M178.5,100.8h2.9l-1.5-4L178.5,100.8z M188,100.5h-2v3.5h-1.1v-8.5h2.8c1,0,1.7,0.2,2.2,0.7
			c0.5,0.4,0.8,1.1,0.8,1.9c0,0.5-0.1,1-0.4,1.4c-0.3,0.4-0.7,0.7-1.2,0.9l2,3.6v0.1h-1.2L188,100.5z M186,99.6h1.7
			c0.6,0,1-0.1,1.3-0.4c0.3-0.3,0.5-0.7,0.5-1.2c0-0.5-0.2-0.9-0.5-1.2c-0.3-0.3-0.8-0.4-1.4-0.4H186V99.6z M198.9,100
			c0,0.8-0.1,1.6-0.4,2.2c-0.3,0.6-0.7,1.1-1.2,1.4c-0.5,0.3-1.1,0.5-1.8,0.5c-0.7,0-1.3-0.2-1.8-0.5c-0.5-0.3-0.9-0.8-1.2-1.4
			c-0.3-0.6-0.4-1.3-0.4-2.1v-0.6c0-0.8,0.1-1.5,0.4-2.2c0.3-0.6,0.7-1.1,1.2-1.4c0.5-0.3,1.1-0.5,1.8-0.5c0.7,0,1.3,0.2,1.8,0.5
			c0.5,0.3,0.9,0.8,1.2,1.4c0.3,0.6,0.4,1.4,0.4,2.2V100z M197.7,99.5c0-1-0.2-1.8-0.6-2.3c-0.4-0.5-1-0.8-1.7-0.8
			c-0.7,0-1.3,0.3-1.7,0.8c-0.4,0.5-0.6,1.3-0.6,2.3v0.6c0,1,0.2,1.8,0.6,2.3c0.4,0.6,1,0.8,1.7,0.8c0.7,0,1.3-0.3,1.7-0.8
			c0.4-0.5,0.6-1.3,0.6-2.3V99.5z M206.1,99.8l2.2-4.3h1.3l-2.9,5.3v3.2h-1.1v-3.2l-2.9-5.3h1.3L206.1,99.8z M214.9,101.8h-3.6
			l-0.8,2.2h-1.2l3.3-8.5h1l3.3,8.5h-1.2L214.9,101.8z M211.7,100.8h2.9l-1.5-4L211.7,100.8z M219.5,95.5l2.8,7l2.8-7h1.5v8.5h-1.1
			v-3.3l0.1-3.6l-2.8,6.9h-0.9l-2.8-6.9l0.1,3.6v3.3H218v-8.5H219.5z M233.3,101.8h-3.6l-0.8,2.2h-1.2l3.3-8.5h1l3.3,8.5h-1.2
			L233.3,101.8z M230.1,100.8h2.9l-1.5-4L230.1,100.8z M236.4,104v-8.5h2.4c0.7,0,1.4,0.2,2,0.5c0.6,0.3,1,0.8,1.3,1.4
			c0.3,0.6,0.5,1.3,0.5,2.1v0.5c0,0.8-0.2,1.5-0.5,2.1c-0.3,0.6-0.8,1.1-1.3,1.4c-0.6,0.3-1.2,0.5-2,0.5H236.4z M237.5,96.4v6.7h1.2
			c0.9,0,1.5-0.3,2-0.8c0.5-0.5,0.7-1.3,0.7-2.3v-0.5c0-1-0.2-1.7-0.7-2.3c-0.5-0.5-1.1-0.8-1.9-0.8H237.5z M248.9,101.8h-3.6
			l-0.8,2.2h-1.2l3.3-8.5h1l3.3,8.5h-1.2L248.9,101.8z M245.6,100.8h2.9l-1.5-4L245.6,100.8z"/>
		<path class="st3" d="M225.1,125.4c0,1.3-0.2,2.2-0.7,2.8c-0.4,0.6-1.1,0.9-2,0.9c-0.9,0-1.6-0.3-2-0.9c-0.4-0.6-0.7-1.5-0.7-2.7
			v-1.4c0-1.3,0.2-2.2,0.7-2.8c0.4-0.6,1.1-0.9,2-0.9c0.9,0,1.6,0.3,2,0.9c0.4,0.6,0.7,1.5,0.7,2.7V125.4z M224,123.9
			c0-0.9-0.1-1.6-0.4-2c-0.3-0.4-0.7-0.6-1.2-0.6c-0.6,0-1,0.2-1.2,0.6c-0.3,0.4-0.4,1.1-0.4,1.9v1.7c0,0.9,0.1,1.6,0.4,2
			c0.3,0.4,0.7,0.7,1.2,0.7c0.5,0,0.9-0.2,1.2-0.6c0.3-0.4,0.4-1.1,0.4-2V123.9z M231,126.1h1.2v0.9H231v2h-1.1v-2H226v-0.6l3.8-5.9
			h1.2V126.1z M227.3,126.1h2.7V122l-0.1,0.2L227.3,126.1z M233.5,129.7h-0.9l3.6-9.3h0.9L233.5,129.7z M243.7,129h-5.6v-0.8l3-3.3
			c0.4-0.5,0.7-0.9,0.9-1.2c0.2-0.3,0.3-0.6,0.3-1c0-0.4-0.1-0.8-0.4-1.1c-0.3-0.3-0.6-0.4-1.1-0.4c-0.5,0-1,0.2-1.3,0.5
			c-0.3,0.3-0.4,0.7-0.4,1.3H238c0-0.8,0.3-1.4,0.8-1.9c0.5-0.5,1.2-0.7,2-0.7c0.8,0,1.4,0.2,1.9,0.6c0.5,0.4,0.7,1,0.7,1.7
			c0,0.8-0.5,1.8-1.6,3l-2.3,2.5h4.3V129z M248.4,129h-1.1v-7.2l-2.2,0.8v-1l3.1-1.2h0.2V129z"/>
		<rect x="20" y="14" class="st4" width="56" height="28"/>
	</g>
</g>
</svg>
