<?xml version="1.0" encoding="utf-8"?>
<!-- Generator: Adobe Illustrator 23.0.0, SVG Export Plug-In . SVG Version: 6.00 Build 0)  -->
<svg version="1.1" id="Layer_1" xmlns="http://www.w3.org/2000/svg" xmlns:xlink="http://www.w3.org/1999/xlink" x="0px" y="0px"
	 viewBox="0 0 280 160" style="enable-background:new 0 0 280 160;" xml:space="preserve">
<style type="text/css">
	.st0{fill:url(#card-bg_1_);}
	.st1{opacity:0.2;fill:url(#SVGID_1_);enable-background:new    ;}
	.st2{enable-background:new    ;}
	.st3{fill:#FFFFFF;}
	.st4{fill:#FFCF07;}
</style>
<g id="layer_2">
	<g id="card-svg">
		
			<linearGradient id="card-bg_1_" gradientUnits="userSpaceOnUse" x1="-1918.8015" y1="1118.1659" x2="-1918.9716" y2="1117.8359" gradientTransform="matrix(280 0 0 -160 537434.1875 178953.5156)">
			<stop  offset="0" style="stop-color:#4A4C5D"/>
			<stop  offset="1" style="stop-color:#272937"/>
		</linearGradient>
		<path id="card-bg" class="st0" d="M8,0h264c4.4,0,8,3.6,8,8v144c0,4.4-3.6,8-8,8H8c-4.4,0-8-3.6-8-8V8C0,3.6,3.6,0,8,0z"/>
		
			<linearGradient id="SVGID_1_" gradientUnits="userSpaceOnUse" x1="64.8075" y1="-17.7775" x2="259.9677" y2="177.3828" gradientTransform="matrix(1 0 0 -1 0 162)">
			<stop  offset="0" style="stop-color:#000000"/>
			<stop  offset="1" style="stop-color:#FFFFFF"/>
		</linearGradient>
		<path class="st1" d="M254.6,25.8c-1.3,8.2-2.4,12.8-3.1,13.1c-0.4,0.5-0.6,1.1-0.6,1.7c-0.3,1.7-1,3.3-1.8,4.7
			c-0.7,1.3-1.3,2.6-1.8,4c0,1-5.8,9.5-9.4,13.9c-6.2,7.4-13.8,13.6-22.4,18.2c-1.8,0.9-3.6,1.8-5.3,2.9c-1.2,0.6-2.4,1.1-3.7,1.4
			c-1.8,0.5-3.9,1.2-4.7,1.5c-5.3,2-21.7,4.4-31.1,4.4c-7.6,0-8.6,0.3-8.6,2.8c0,1.7,2.3,4.5,8.6,10.5c1.3,1.3,4.4,4.2,6.8,6.5
			l4.4,4.2l5.3-0.4c5.6-0.4,11.2-1.4,16.7-2.9c1.5-0.5,3-0.9,4.6-1.1c0.9-0.1,1.7-0.3,2.5-0.7c3-1.5,6.2-2.7,9.5-3.6
			c1.7-0.5,3.1-1.3,3.1-1.6s0.6-0.6,1.4-0.6c0.9-0.1,1.7-0.5,2.3-1.1c0.5-0.6,1.2-1,1.9-1.1c0.6,0,1-0.3,1-0.7
			c0-0.4,0.4-0.7,0.8-0.7c1.2,0,10.1-6.1,13.4-9.1c1.6-1.4,4-3.6,5.2-4.7c2-1.8,3.8-3.8,5.5-6c1.5-1.9,3-3.7,4.7-5.4
			c0.8-0.6,1.4-1.4,1.7-2.3c0-0.4,0.2-0.9,0.6-1.1c1-0.4,5-7.4,8.4-14.8c1.9-4,3.7-7.8,4.1-8.5c0.4-0.8,0.6-1.7,0.7-2.6
			c0-0.7,0.2-1.4,0.7-2c0.8-0.9,2.7-9.6,3.6-16.7c0.9-7.6,1-15.3,0.2-22.9C278.3,2,275.3,0,272,0h-18.3
			C255.1,8.5,255.6,19.6,254.6,25.8z M201.4,21c-0.4,0.6-1.2,2.5-1.8,3.9c-1.7,3.9-7.6,9.4-11.7,11.1c-3.5,1.5-5.4,1.5-81.2,1.7
			s-77.7,0.2-78.1,1.6s1.3,3.3,97.5,98.3l22.6,22.4h34.9l-14.1-14c-26.6-26.4-56.5-55.9-66.3-65.8L85.2,62.5h47.6
			c45.6,0,57.6-0.4,59.6-2.3c0.7-0.5,1.5-0.7,2.3-0.7c0.8,0.1,1.5-0.2,2.1-0.7c1.2-0.9,2.6-1.5,4-1.9c2-0.7,3.6-1.5,3.6-1.9
			c0-0.4,0.4-0.7,0.8-0.7c1-0.3,1.9-1,2.6-1.8c0.6-0.7,1.3-1.3,2.1-1.8c0.9,0,7.6-7.5,8.9-10c0.7-1.4,1.6-3.2,2-3.9s0.9-1.4,1.2-1.4
			s0.6-0.7,0.6-1.7c0-0.9,0.3-1.8,0.8-2.5c1.5-1.5,2.4-7.1,2.4-16.2c0-7.3-0.6-12-1.8-15.3h-28.4c4.2,4.3,6.6,9.9,6.7,15.9
			C202.2,17.6,202,19.4,201.4,21z M98.8,160h8.7c-4-3.8-6.6-5.9-7.3-5.9C99.2,154.1,98.9,154.3,98.8,160z M223.5,130.6
			c-4.8,2.1-9.8,3.8-14.9,4.9c-1.1,0.3-2.1,0.9-2.8,1.9c-0.6,1.1,1.8,3.9,20.6,22.6h35.1C227.3,126.1,229.2,128.2,223.5,130.6z
			 M68.9,121.6l-10.6-10.5c-5.9-5.7-11.1-10.5-11.9-10.5c-1.2,0-1.2,3.8-1.5,58.7v0.6h24v-2.4L68.9,121.6z"/>
		<g class="st2">
			<path class="st3" d="M235.2,71.2c0.1,0,0.2,0,0.3,0.1c0.1,0.1,0.1,0.2,0.1,0.3v1c0,0.1,0,0.2-0.1,0.3c-0.1,0.1-0.1,0.2-0.2,0.2
				l-2,2.2c0.4,0.1,0.8,0.2,1.1,0.3c0.3,0.1,0.6,0.3,0.9,0.6c0.2,0.2,0.4,0.5,0.6,0.8c0.1,0.3,0.2,0.7,0.2,1.1
				c0,0.5-0.1,0.9-0.3,1.3s-0.5,0.7-0.8,1s-0.7,0.5-1.2,0.6c-0.5,0.1-1,0.2-1.5,0.2c-0.7,0-1.2-0.1-1.7-0.2s-0.9-0.4-1.2-0.6
				c-0.3-0.2-0.6-0.5-0.7-0.8c-0.2-0.3-0.3-0.6-0.3-0.9c0-0.1,0-0.2,0.1-0.3c0.1-0.1,0.2-0.1,0.3-0.1h1.1c0.1,0,0.2,0,0.2,0.1
				c0.1,0.1,0.1,0.1,0.2,0.3c0.1,0.1,0.1,0.2,0.2,0.3c0.1,0.1,0.2,0.2,0.4,0.3c0.2,0.1,0.3,0.1,0.6,0.2s0.5,0.1,0.9,0.1
				c0.6,0,1-0.1,1.4-0.3s0.5-0.6,0.5-1s-0.2-0.7-0.5-0.9s-0.8-0.3-1.4-0.3H231c-0.1,0-0.2,0-0.3-0.1c-0.1-0.1-0.1-0.2-0.1-0.3v-1
				c0-0.1,0-0.2,0.1-0.3c0.1-0.1,0.1-0.2,0.2-0.2l2-2.1H229c-0.1,0-0.2,0-0.3-0.1c-0.1-0.1-0.1-0.2-0.1-0.3v-1c0-0.1,0-0.2,0.1-0.3
				c0.1-0.1,0.2-0.1,0.3-0.1H235.2z"/>
			<path class="st3" d="M243.7,81c-0.1,0-0.2,0-0.3-0.1c-0.1-0.1-0.1-0.2-0.1-0.3v-1.7h-4.3c-0.1,0-0.2,0-0.3-0.1
				c-0.1-0.1-0.1-0.2-0.1-0.3v-1c0-0.1,0-0.2,0.1-0.3s0.1-0.2,0.2-0.3l4.3-5.3c0.2-0.2,0.4-0.3,0.6-0.3h1.1c0.1,0,0.2,0,0.3,0.1
				c0.1,0.1,0.1,0.2,0.1,0.3v5.6h1.2c0.1,0,0.2,0,0.3,0.1c0.1,0.1,0.1,0.2,0.1,0.3v1c0,0.1,0,0.2-0.1,0.3c-0.1,0.1-0.2,0.1-0.3,0.1
				h-1.2v1.7c0,0.1,0,0.2-0.1,0.3c-0.1,0.1-0.2,0.1-0.3,0.1H243.7z M243.3,77.2v-3l-2.4,3H243.3z"/>
			<path class="st3" d="M250.1,71.6c0-0.1,0-0.2,0.1-0.3c0.1-0.1,0.2-0.1,0.3-0.1h5.3c0.1,0,0.2,0,0.3,0.1c0.1,0.1,0.1,0.2,0.1,0.3
				v1c0,0.1,0,0.2-0.1,0.3c-0.1,0.1-0.2,0.1-0.3,0.1h-3.9l-0.2,1.8c0.3-0.1,0.5-0.2,0.7-0.2c0.2,0,0.5,0,0.6,0c0.5,0,1,0.1,1.5,0.2
				c0.4,0.1,0.8,0.3,1.2,0.6c0.3,0.3,0.6,0.6,0.8,1c0.2,0.4,0.3,0.9,0.3,1.4c0,0.6-0.1,1.1-0.3,1.5c-0.2,0.4-0.5,0.8-0.8,1
				c-0.3,0.3-0.7,0.5-1.2,0.6c-0.4,0.1-0.9,0.2-1.4,0.2c-0.6,0-1.2-0.1-1.7-0.2c-0.5-0.1-0.8-0.4-1.1-0.6c-0.3-0.3-0.5-0.5-0.7-0.9
				c-0.2-0.3-0.2-0.7-0.3-1c0-0.1,0-0.2,0.1-0.3c0.1-0.1,0.2-0.1,0.3-0.1h1.1c0.1,0,0.2,0,0.3,0.1c0.1,0.1,0.1,0.1,0.2,0.2
				c0.1,0.2,0.1,0.4,0.3,0.5c0.1,0.1,0.3,0.2,0.4,0.3c0.2,0.1,0.3,0.1,0.5,0.2c0.2,0,0.4,0,0.6,0c0.5,0,1-0.1,1.3-0.4
				c0.3-0.3,0.5-0.7,0.5-1.2c0-0.4-0.2-0.8-0.5-1c-0.3-0.3-0.8-0.4-1.3-0.4c-0.3,0-0.5,0-0.7,0.1c-0.2,0-0.3,0.1-0.4,0.1
				c-0.1,0.1-0.2,0.1-0.3,0.1s-0.2,0.1-0.3,0.1h-1.3c-0.1,0-0.2,0-0.3-0.1c-0.1-0.1-0.1-0.2-0.1-0.3L250.1,71.6z"/>
			<path class="st3" d="M259.4,77.7c0-0.5,0.1-1,0.3-1.4c0.2-0.4,0.4-0.7,0.6-1.1l2.7-3.8c0-0.1,0.1-0.1,0.1-0.2s0.2-0.1,0.3-0.1
				h1.3c0.1,0,0.2,0,0.3,0.1c0.1,0.1,0.1,0.2,0.1,0.3c0,0,0,0.1,0,0.1c0,0,0,0.1,0,0.1l-1.7,2.5c0.6,0,1.1,0.1,1.5,0.3
				s0.9,0.4,1.2,0.7s0.6,0.7,0.8,1.1c0.2,0.4,0.3,0.9,0.3,1.4c0,0.5-0.1,1-0.3,1.4c-0.2,0.4-0.4,0.8-0.8,1.1
				c-0.3,0.3-0.7,0.5-1.2,0.7s-1,0.3-1.5,0.3c-0.6,0-1.1-0.1-1.5-0.3s-0.9-0.4-1.2-0.7c-0.3-0.3-0.6-0.7-0.8-1.1
				S259.4,78.2,259.4,77.7z M265.1,77.7c0-0.5-0.2-0.9-0.5-1.2c-0.3-0.3-0.8-0.5-1.4-0.5s-1.1,0.2-1.4,0.5c-0.3,0.3-0.5,0.7-0.5,1.2
				c0,0.5,0.2,0.9,0.5,1.2c0.3,0.3,0.8,0.5,1.4,0.5s1.1-0.2,1.4-0.5C265,78.6,265.1,78.2,265.1,77.7z"/>
		</g>
		<g class="st2">
			<path class="st3" d="M179.5,43.5c0,0.1-0.1,0.3-0.2,0.4c-0.1,0.1-0.2,0.2-0.4,0.2h-0.8c-0.1,0-0.3-0.1-0.4-0.2
				c-0.1-0.1-0.2-0.2-0.2-0.4v-11l-3.2,2.5c-0.1,0.1-0.3,0.1-0.4,0.1c-0.1,0-0.3-0.1-0.4-0.2l-0.5-0.6c-0.1-0.1-0.1-0.3-0.1-0.4
				c0-0.1,0.1-0.3,0.2-0.4l4.3-3.3c0.1-0.1,0.2-0.1,0.3-0.1c0.1,0,0.2,0,0.3,0h0.8c0.1,0,0.3,0.1,0.4,0.2s0.2,0.2,0.2,0.4V43.5z"/>
			<path class="st3" d="M192.4,35.3c0,0.6,0,1.2,0,1.7c0,0.5,0,1.1,0,1.7c0,0.8-0.1,1.5-0.3,2.2c-0.2,0.7-0.5,1.3-0.9,1.8
				c-0.4,0.5-0.9,0.9-1.6,1.2c-0.6,0.3-1.4,0.4-2.3,0.4c-0.9,0-1.6-0.1-2.3-0.4c-0.6-0.3-1.2-0.7-1.6-1.2s-0.7-1.1-0.9-1.8
				c-0.2-0.7-0.3-1.4-0.3-2.2c0-0.6,0-1.2,0-1.7c0-0.5,0-1.1,0-1.7c0-0.8,0.1-1.5,0.3-2.2c0.2-0.7,0.5-1.3,0.9-1.8s0.9-0.9,1.6-1.2
				c0.6-0.3,1.4-0.4,2.3-0.4c0.9,0,1.6,0.1,2.3,0.4c0.6,0.3,1.2,0.7,1.6,1.2c0.4,0.5,0.7,1.1,0.9,1.8
				C192.3,33.8,192.4,34.5,192.4,35.3z M184.1,38.7c0,1.3,0.3,2.2,0.9,2.8c0.5,0.6,1.3,0.9,2.4,0.9s1.8-0.3,2.4-0.9s0.8-1.5,0.9-2.8
				c0-0.6,0-1.2,0-1.7c0-0.5,0-1.1,0-1.7c0-1.3-0.3-2.2-0.9-2.8c-0.5-0.6-1.3-0.9-2.4-0.9s-1.8,0.3-2.4,0.9
				c-0.5,0.6-0.8,1.5-0.9,2.8c0,0.6,0,1.2,0,1.7C184.1,37.5,184.1,38.1,184.1,38.7z"/>
			<path class="st3" d="M205.1,35.3c0,0.6,0,1.2,0,1.7c0,0.5,0,1.1,0,1.7c0,0.8-0.1,1.5-0.3,2.2c-0.2,0.7-0.5,1.3-0.9,1.8
				c-0.4,0.5-0.9,0.9-1.6,1.2c-0.6,0.3-1.4,0.4-2.3,0.4c-0.9,0-1.6-0.1-2.3-0.4c-0.6-0.3-1.2-0.7-1.6-1.2s-0.7-1.1-0.9-1.8
				c-0.2-0.7-0.3-1.4-0.3-2.2c0-0.6,0-1.2,0-1.7c0-0.5,0-1.1,0-1.7c0-0.8,0.1-1.5,0.3-2.2c0.2-0.7,0.5-1.3,0.9-1.8s0.9-0.9,1.6-1.2
				c0.6-0.3,1.4-0.4,2.3-0.4c0.9,0,1.6,0.1,2.3,0.4c0.6,0.3,1.2,0.7,1.6,1.2c0.4,0.5,0.7,1.1,0.9,1.8
				C205,33.8,205.1,34.5,205.1,35.3z M196.8,38.7c0,1.3,0.3,2.2,0.9,2.8c0.5,0.6,1.3,0.9,2.4,0.9s1.8-0.3,2.4-0.9s0.8-1.5,0.9-2.8
				c0-0.6,0-1.2,0-1.7c0-0.5,0-1.1,0-1.7c0-1.3-0.3-2.2-0.9-2.8c-0.5-0.6-1.3-0.9-2.4-0.9s-1.8,0.3-2.4,0.9
				c-0.5,0.6-0.8,1.5-0.9,2.8c0,0.6,0,1.2,0,1.7C196.8,37.5,196.8,38.1,196.8,38.7z"/>
			<path class="st3" d="M217.8,35.3c0,0.6,0,1.2,0,1.7c0,0.5,0,1.1,0,1.7c0,0.8-0.1,1.5-0.3,2.2c-0.2,0.7-0.5,1.3-0.9,1.8
				c-0.4,0.5-0.9,0.9-1.6,1.2c-0.6,0.3-1.4,0.4-2.3,0.4c-0.9,0-1.6-0.1-2.3-0.4c-0.6-0.3-1.2-0.7-1.6-1.2s-0.7-1.1-0.9-1.8
				c-0.2-0.7-0.3-1.4-0.3-2.2c0-0.6,0-1.2,0-1.7c0-0.5,0-1.1,0-1.7c0-0.8,0.1-1.5,0.3-2.2c0.2-0.7,0.5-1.3,0.9-1.8s0.9-0.9,1.6-1.2
				c0.6-0.3,1.4-0.4,2.3-0.4c0.9,0,1.6,0.1,2.3,0.4c0.6,0.3,1.2,0.7,1.6,1.2c0.4,0.5,0.7,1.1,0.9,1.8
				C217.7,33.8,217.8,34.5,217.8,35.3z M209.5,38.7c0,1.3,0.3,2.2,0.9,2.8c0.5,0.6,1.3,0.9,2.4,0.9s1.8-0.3,2.4-0.9s0.8-1.5,0.9-2.8
				c0-0.6,0-1.2,0-1.7c0-0.5,0-1.1,0-1.7c0-1.3-0.3-2.2-0.9-2.8c-0.5-0.6-1.3-0.9-2.4-0.9s-1.8,0.3-2.4,0.9
				c-0.5,0.6-0.8,1.5-0.9,2.8c0,0.6,0,1.2,0,1.7C209.5,37.5,209.5,38.1,209.5,38.7z"/>
			<path class="st3" d="M233.4,30.8c0.1,0,0.2,0,0.3,0.1c0.1,0.1,0.1,0.2,0.1,0.3v6.4c0,0.7-0.1,1.3-0.2,1.8c-0.2,0.5-0.4,1-0.8,1.4
				s-0.8,0.7-1.3,0.9c-0.5,0.2-1.2,0.3-2,0.3c-0.8,0-1.4-0.1-2-0.3c-0.5-0.2-1-0.5-1.3-0.9s-0.6-0.9-0.8-1.4
				c-0.2-0.5-0.2-1.2-0.2-1.8v-6.4c0-0.1,0-0.2,0.1-0.3c0.1-0.1,0.2-0.1,0.3-0.1h0.7c0.1,0,0.2,0,0.3,0.1c0.1,0.1,0.1,0.2,0.1,0.3
				v6.5c0,1,0.2,1.8,0.7,2.3s1.2,0.8,2,0.8c0.9,0,1.6-0.3,2.1-0.8s0.7-1.3,0.7-2.3v-6.5c0-0.1,0-0.2,0.1-0.3
				c0.1-0.1,0.2-0.1,0.3-0.1H233.4z"/>
			<path class="st3" d="M239.9,30.6c0.7,0,1.2,0.1,1.7,0.3c0.5,0.2,0.9,0.5,1.3,0.7c0.3,0.3,0.6,0.6,0.8,0.9
				c0.2,0.3,0.3,0.6,0.3,0.9c0,0.1,0,0.2-0.1,0.2s-0.2,0.1-0.3,0.1H243c-0.1,0-0.2,0-0.3-0.1s-0.1-0.1-0.2-0.3
				c-0.1-0.1-0.1-0.2-0.3-0.4c-0.1-0.2-0.3-0.3-0.5-0.5c-0.2-0.2-0.5-0.3-0.8-0.4c-0.3-0.1-0.6-0.2-1-0.2c-0.3,0-0.6,0-0.9,0.1
				c-0.3,0.1-0.5,0.2-0.7,0.3c-0.2,0.1-0.4,0.3-0.5,0.5c-0.1,0.2-0.2,0.5-0.2,0.7s0.1,0.5,0.2,0.7c0.1,0.2,0.3,0.4,0.6,0.5
				c0.3,0.2,0.6,0.3,1,0.4s0.9,0.3,1.5,0.4c0.6,0.2,1.1,0.3,1.5,0.5c0.4,0.2,0.8,0.4,1,0.6c0.3,0.2,0.5,0.5,0.6,0.8
				c0.1,0.3,0.2,0.7,0.2,1.1c0,0.5-0.1,0.9-0.3,1.3c-0.2,0.4-0.5,0.7-0.9,1c-0.4,0.3-0.8,0.5-1.4,0.7c-0.5,0.2-1.1,0.2-1.8,0.2
				c-0.6,0-1.2-0.1-1.7-0.3c-0.5-0.2-1-0.4-1.3-0.7c-0.4-0.3-0.7-0.6-0.9-1c-0.2-0.4-0.3-0.7-0.3-1c0-0.1,0-0.2,0.1-0.2
				c0.1-0.1,0.2-0.1,0.2-0.1h0.7c0.1,0,0.2,0,0.3,0.1c0.1,0,0.2,0.1,0.2,0.3c0.1,0.2,0.2,0.3,0.3,0.5c0.1,0.2,0.3,0.3,0.5,0.5
				s0.5,0.3,0.8,0.4c0.3,0.1,0.7,0.2,1.1,0.2c0.4,0,0.7,0,1.1-0.1c0.3-0.1,0.6-0.2,0.9-0.4c0.3-0.2,0.5-0.4,0.6-0.6
				c0.1-0.2,0.2-0.5,0.2-0.8s-0.1-0.5-0.3-0.7c-0.2-0.2-0.4-0.4-0.7-0.5c-0.3-0.2-0.7-0.3-1.2-0.4c-0.5-0.1-1-0.3-1.6-0.4
				c-0.5-0.1-1-0.3-1.4-0.5s-0.7-0.4-0.9-0.7c-0.2-0.3-0.4-0.5-0.5-0.8s-0.2-0.6-0.2-1c0-0.4,0.1-0.8,0.2-1.2c0.2-0.4,0.4-0.7,0.7-1
				s0.7-0.5,1.2-0.7C238.7,30.7,239.3,30.6,239.9,30.6z"/>
			<path class="st3" d="M255,35.1c0,0.5,0,0.9,0,1.3c0,0.4,0,0.8,0,1.3c0,0.7-0.1,1.3-0.4,1.8c-0.2,0.5-0.5,1-0.9,1.4
				c-0.4,0.4-0.9,0.7-1.4,0.9s-1.1,0.3-1.8,0.3h-3.8c-0.1,0-0.2,0-0.3-0.1c-0.1-0.1-0.1-0.2-0.1-0.3V31.2c0-0.1,0-0.2,0.1-0.3
				c0.1-0.1,0.2-0.1,0.3-0.1h3.7c0.7,0,1.3,0.1,1.8,0.3c0.6,0.2,1,0.5,1.4,0.9s0.7,0.8,1,1.4C254.9,33.9,255,34.5,255,35.1z
				 M253.5,35.2c0-0.4-0.1-0.8-0.2-1.1c-0.1-0.4-0.3-0.7-0.5-1s-0.6-0.5-1-0.7c-0.4-0.2-0.9-0.2-1.5-0.2h-2.5v8.3h2.6
				c0.6,0,1.1-0.1,1.4-0.2c0.4-0.2,0.7-0.4,0.9-0.7s0.4-0.6,0.5-1s0.2-0.7,0.2-1.1c0-0.2,0-0.4,0-0.6c0-0.2,0-0.4,0-0.5s0-0.4,0-0.5
				C253.5,35.7,253.5,35.5,253.5,35.2z"/>
		</g>
		<g id="Dots">
			<circle id="Oval" class="st3" cx="23" cy="76" r="3"/>
			<circle id="Oval-Copy" class="st3" cx="35" cy="76" r="3"/>
			<circle id="Oval-Copy-3" class="st3" cx="47" cy="76" r="3"/>
			<circle id="Oval-Copy-2" class="st3" cx="59" cy="76" r="3"/>
			<circle class="st3" cx="90" cy="76" r="3"/>
			<circle class="st3" cx="102" cy="76" r="3"/>
			<circle class="st3" cx="114" cy="76" r="3"/>
			<circle class="st3" cx="126" cy="76" r="3"/>
			<circle class="st3" cx="157" cy="76" r="3"/>
			<circle class="st3" cx="169" cy="76" r="3"/>
			<circle class="st3" cx="181" cy="76" r="3"/>
			<circle class="st3" cx="193" cy="76" r="3"/>
		</g>
		<g class="st2">
			<path class="st3" d="M227.2,123.9c0,0.4,0,0.8,0,1.2c0,0.4,0,0.8,0,1.2c0,0.5-0.1,1-0.2,1.5c-0.1,0.5-0.4,0.9-0.7,1.2
				c-0.3,0.3-0.7,0.6-1.1,0.8c-0.4,0.2-1,0.3-1.6,0.3s-1.1-0.1-1.6-0.3c-0.4-0.2-0.8-0.5-1.1-0.8c-0.3-0.3-0.5-0.8-0.7-1.2
				c-0.1-0.5-0.2-1-0.2-1.5c0-0.4,0-0.8,0-1.2c0-0.4,0-0.8,0-1.2c0-0.5,0.1-1,0.2-1.5c0.1-0.5,0.4-0.9,0.7-1.2
				c0.3-0.3,0.7-0.6,1.1-0.8c0.4-0.2,1-0.3,1.6-0.3s1.1,0.1,1.6,0.3c0.4,0.2,0.8,0.5,1.1,0.8c0.3,0.3,0.5,0.8,0.7,1.2
				C227.1,122.9,227.1,123.4,227.2,123.9z M221.3,126.3c0,0.9,0.2,1.5,0.6,2c0.4,0.4,0.9,0.6,1.7,0.6c0.7,0,1.3-0.2,1.7-0.6
				s0.6-1.1,0.6-2c0-0.4,0-0.8,0-1.2c0-0.4,0-0.8,0-1.2c0-0.9-0.2-1.5-0.6-2s-0.9-0.6-1.7-0.6c-0.7,0-1.3,0.2-1.7,0.6
				c-0.4,0.4-0.6,1.1-0.6,2c0,0.4,0,0.8,0,1.2C221.3,125.5,221.3,125.9,221.3,126.3z"/>
			<path class="st3" d="M233.6,130c-0.1,0-0.2,0-0.3-0.1c-0.1-0.1-0.1-0.2-0.1-0.3v-1.9h-4.4c-0.1,0-0.2,0-0.3-0.1
				c-0.1-0.1-0.1-0.2-0.1-0.3v-0.5c0-0.1,0-0.1,0-0.2c0-0.1,0.1-0.2,0.1-0.2l4.4-5.8c0.1-0.1,0.2-0.2,0.2-0.2s0.2-0.1,0.3-0.1h0.6
				c0.1,0,0.2,0,0.3,0.1c0.1,0.1,0.1,0.2,0.1,0.3v5.9h1.2c0.1,0,0.2,0,0.3,0.1c0.1,0.1,0.1,0.2,0.1,0.3v0.5c0,0.1,0,0.2-0.1,0.3
				c-0.1,0.1-0.2,0.1-0.3,0.1h-1.2v1.9c0,0.1,0,0.2-0.1,0.3c-0.1,0.1-0.2,0.1-0.3,0.1H233.6z M233.2,126.4v-3.9l-3,3.9H233.2z"/>
		</g>
		<g class="st2">
			<path class="st3" d="M241.2,119.4c0-0.1,0.1-0.2,0.2-0.3c0.1-0.1,0.2-0.1,0.4-0.1h0.5c0.1,0,0.2,0,0.2,0.1s0.1,0.1,0.1,0.2
				c0,0,0,0.1,0,0.1l-4.7,11.3c0,0.1-0.1,0.2-0.2,0.3c-0.1,0.1-0.2,0.1-0.4,0.1h-0.4c-0.1,0-0.2,0-0.2-0.1s-0.1-0.1-0.1-0.2
				c0,0,0-0.1,0-0.1L241.2,119.4z"/>
		</g>
		<g class="st2">
			<path class="st3" d="M247.9,124.8c0.3-0.3,0.5-0.5,0.6-0.8c0.1-0.3,0.2-0.6,0.2-1c0-0.5-0.1-0.9-0.4-1.2
				c-0.3-0.3-0.7-0.5-1.4-0.5c-0.3,0-0.6,0-0.8,0.1c-0.2,0.1-0.4,0.2-0.6,0.4c-0.2,0.2-0.3,0.4-0.4,0.6s-0.2,0.4-0.2,0.7
				c0,0.1-0.1,0.2-0.1,0.2c-0.1,0.1-0.1,0.1-0.2,0.1h-0.6c-0.1,0-0.2,0-0.2-0.1s-0.1-0.1-0.1-0.2c0-0.3,0.1-0.7,0.2-1.1
				c0.1-0.4,0.4-0.7,0.6-1c0.3-0.3,0.6-0.5,1-0.7s0.9-0.3,1.4-0.3c0.5,0,1,0.1,1.4,0.2c0.4,0.2,0.7,0.4,1,0.6c0.3,0.3,0.5,0.6,0.6,1
				c0.1,0.4,0.2,0.8,0.2,1.2c0,0.3,0,0.6-0.1,0.8c0,0.2-0.1,0.5-0.2,0.7c-0.1,0.2-0.2,0.4-0.4,0.6s-0.4,0.4-0.6,0.6l-3.1,2.9h4.3
				c0.1,0,0.2,0,0.3,0.1c0.1,0.1,0.1,0.2,0.1,0.3v0.5c0,0.1,0,0.2-0.1,0.3c-0.1,0.1-0.2,0.1-0.3,0.1h-6c-0.1,0-0.2,0-0.3-0.1
				c-0.1-0.1-0.1-0.2-0.1-0.3v-0.5c0-0.1,0-0.2,0.1-0.3c0-0.1,0.1-0.2,0.2-0.3L247.9,124.8z"/>
			<path class="st3" d="M255.8,129.6c0,0.1,0,0.2-0.1,0.3c-0.1,0.1-0.2,0.1-0.3,0.1h-0.6c-0.1,0-0.2,0-0.3-0.1
				c-0.1-0.1-0.1-0.2-0.1-0.3v-7.7l-2.3,1.7c-0.1,0.1-0.2,0.1-0.3,0.1c-0.1,0-0.2-0.1-0.3-0.1l-0.3-0.4c-0.1-0.1-0.1-0.2-0.1-0.3
				c0-0.1,0.1-0.2,0.1-0.3l3-2.3c0.1-0.1,0.1-0.1,0.2-0.1c0.1,0,0.1,0,0.2,0h0.6c0.1,0,0.2,0,0.3,0.1c0.1,0.1,0.1,0.2,0.1,0.3V129.6
				z"/>
		</g>
		<path id="R-card_logo" class="st4" d="M24.6,39.2c0-4.5,0-4.8,0.1-4.8c0.4,0.3,0.7,0.5,1,0.9l0.9,0.9v6h1.1c0.4,0,0.8,0,1.2,0H29
			v-1.6c0-1.6,0-1.6,0.1-1.6c0.4,0.2,0.7,0.5,1,0.9l0.9,0.9V44h-6.4L24.6,39.2z M36.7,42.8c-0.7-0.7-3.1-3.1-5.5-5.4
			c-7.9-7.8-8.1-8-8-8.1s0.2-0.1,6.4-0.1s6.4,0,6.7-0.1c0.4-0.2,0.8-0.5,1-0.9c0-0.1,0.1-0.2,0.2-0.3c0-0.1,0.1-0.3,0.1-0.4
			c0-0.8-0.5-1.5-1.3-1.8c-0.1,0-3-0.1-6.6-0.1h-6.5l-0.7-0.7l-0.9-0.9c-0.2-0.2-0.2-0.3,0-0.4s3.3,0,7.2,0c6.2,0,7.2,0,7.6,0.1
			c0.2,0,0.4,0.1,0.5,0.1c0.1,0,0.1,0.1,0.2,0.1c0.4,0.1,0.7,0.3,1,0.5c0.4,0.4,0.8,0.8,1.1,1.3c0.1,0.2,0.2,0.4,0.2,0.4
			c0.2,0.4,0.2,0.9,0.2,1.4c0.1,0.5,0,0.9-0.2,1.3c0,0.1-0.1,0.1-0.1,0.2V29c0,0-0.1,0.1-0.1,0.1l-0.2,0.3c-0.2,0.3-0.4,0.6-0.7,0.8
			c-0.1,0-0.1,0.1-0.2,0.1c-0.1,0.1-0.1,0.1-0.2,0.1h-0.1c-0.1,0.1-0.2,0.1-0.3,0.2c-0.1,0-0.2,0.1-0.3,0.2c0,0-0.1,0.1-0.2,0
			c-0.1,0-0.1,0-0.2,0c-0.2,0.1-1.2,0.2-4.9,0.2h-4.1l1.5,1.5l5.5,5.4l4,4h3.5l-2.3-2.3c-2-2-2.3-2.3-2.2-2.4
			c0.1-0.1,0.1-0.1,0.2-0.2c0.4-0.1,0.8-0.2,1.2-0.4c0.5-0.2,0.3-0.4,3.8,3.1c4.1,4,3.9,3.9,3.9,4S46.9,44,42.5,44h-4.6L36.7,42.8z
			 M35.5,35.2l-0.6-0.5c-0.5-0.5-0.7-0.7-0.7-0.9s0.1-0.2,0.7-0.2c0.9,0,1.7-0.1,2.6-0.4l0.4-0.1c0.1,0,0.2-0.1,0.3-0.1
			c0.1-0.1,0.3-0.2,0.4-0.2c0.7-0.4,1.3-0.9,1.8-1.5c0.3-0.4,0.5-0.7,0.8-1.1c0-0.1,0.1-0.2,0.2-0.3c0.1-0.1,0.1-0.3,0.2-0.4
			c0,0,0-0.1,0-0.1c0.1-0.4,0.2-0.7,0.3-1.1c0.1-0.9,0-1.8-0.2-2.6c0-0.1-0.1-0.3-0.1-0.4c0-0.1-0.1-0.2-0.1-0.2
			c-0.1-0.1-0.1-0.2-0.2-0.3c-0.3-0.7-0.7-1.2-1.2-1.8c-0.3-0.3-0.7-0.6-1.2-0.9h-0.1c-0.3-0.2-0.5-0.3-0.8-0.4
			c-0.1,0-0.2-0.1-0.3-0.1c-0.1,0-0.1,0-0.2-0.1c-0.3-0.1-0.7-0.2-1-0.2c-0.1,0-0.3,0-0.4-0.1c0,0-3-0.1-8.5-0.1h-8.8
			c-0.2,0-0.3-0.1-1.1-0.8c-0.6-0.6-0.8-0.9-0.8-1V19h9.5c5.5,0,9.7,0,10,0.1c0.5,0,0.9,0.1,1.4,0.3c0.1,0,0.2,0.1,0.3,0.1
			c0,0,0.1,0,0.1,0.1s0,0.1,0.1,0.1c0.1,0,0.2,0,0.3,0.1c0.3,0.1,0.5,0.2,0.8,0.3c0.3,0.2,0.6,0.3,0.9,0.5c0,0,0.1,0,0.1,0h0.1
			c0.1,0.1,0.1,0.1,0.2,0.2c0.5,0.4,0.9,0.9,1.3,1.3c0.2,0.3,0.5,0.6,0.6,0.9V23c0.1,0.1,0.2,0.2,0.2,0.3c0.1,0.2,0.2,0.4,0.2,0.4
			c0.1,0.2,0.2,0.5,0.3,0.7c0.4,1.2,0.6,2.5,0.4,3.8c0,0.5-0.1,0.9-0.3,1.4c0,0.1,0,0.1,0,0.2c0,0.1,0,0.1,0,0.2
			c0,0-0.2,0.4-0.3,0.7c-0.2,0.4-0.4,0.8-0.7,1.2c0,0,0,0.1,0,0.1c0,0.1-0.1,0.1-0.1,0.2c-0.1,0.1-0.3,0.3-0.4,0.4
			c-0.1,0.2-0.3,0.3-0.5,0.5L41,33.5c-0.3,0.3-0.7,0.5-1.1,0.8c0,0-0.1,0-0.1,0.1c0,0,0,0.1-0.1,0.1c-0.1,0-0.1,0-0.2,0.1
			c0,0.1-0.1,0.1-0.2,0.1h-0.1c-0.1,0.1-0.2,0.1-0.3,0.1c-0.3,0.1-0.5,0.2-0.8,0.3c-0.1,0-0.1,0-0.2,0.1c-0.1,0-0.2,0-0.4,0.1
			c-0.5,0.1-0.9,0.2-1.4,0.2h-0.4L35.5,35.2z"/>
		<g class="st2">
			<path class="st3" d="M58.4,31.4c0.6,0,1.1,0.1,1.7,0.2c0.5,0.1,1,0.4,1.4,0.7s0.7,0.7,0.9,1.2c0.2,0.5,0.4,1,0.4,1.7
				c0,1-0.2,1.7-0.7,2.3s-1.1,1-1.9,1.2l2.7,4.7c0,0.1,0.1,0.1,0.1,0.2c0,0.1,0,0.2-0.1,0.3S62.6,44,62.5,44h-0.8
				c-0.2,0-0.4-0.1-0.5-0.2c-0.1-0.1-0.2-0.2-0.2-0.3l-2.6-4.6h-3.1v4.6c0,0.1,0,0.2-0.1,0.3C55,44,54.9,44,54.8,44H54
				c-0.1,0-0.2,0-0.3-0.1c-0.1-0.1-0.1-0.2-0.1-0.3V31.9c0-0.1,0-0.2,0.1-0.3c0.1-0.1,0.2-0.1,0.3-0.1H58.4z M55.3,37.3h3
				c0.9,0,1.5-0.2,2-0.5c0.5-0.3,0.7-0.9,0.7-1.7c0-0.8-0.2-1.3-0.7-1.6c-0.5-0.3-1.1-0.5-2-0.5h-3V37.3z"/>
			<path class="st3" d="M64.5,39.4c-0.1,0-0.2,0-0.3-0.1c-0.1-0.1-0.1-0.2-0.1-0.3v-0.6c0-0.1,0-0.2,0.1-0.3
				c0.1-0.1,0.2-0.1,0.3-0.1h5.3c0.1,0,0.2,0,0.3,0.1c0.1,0.1,0.1,0.2,0.1,0.3v0.6c0,0.1,0,0.2-0.1,0.3c-0.1,0.1-0.2,0.1-0.3,0.1
				H64.5z"/>
			<path class="st3" d="M73.8,36.2c0,0.5,0,1,0,1.5s0,1,0,1.5c0,1,0.3,1.8,0.9,2.4c0.6,0.6,1.4,0.9,2.5,0.9c0.6,0,1.1-0.1,1.5-0.2
				c0.4-0.1,0.7-0.3,1-0.6c0.3-0.2,0.5-0.5,0.6-0.8c0.1-0.3,0.2-0.6,0.3-0.9c0-0.1,0.1-0.2,0.2-0.3c0.1-0.1,0.2-0.1,0.3-0.1h0.8
				c0.1,0,0.2,0,0.3,0.1c0.1,0.1,0.1,0.2,0.1,0.3c0,0.4-0.1,0.8-0.3,1.3c-0.2,0.5-0.5,0.9-0.9,1.3c-0.4,0.4-0.9,0.8-1.5,1
				c-0.6,0.3-1.4,0.4-2.3,0.4c-0.8,0-1.5-0.1-2.1-0.4c-0.6-0.2-1.1-0.6-1.6-1c-0.4-0.4-0.8-0.9-1-1.5c-0.2-0.6-0.4-1.2-0.4-2
				c0-1.1,0-2.1,0-3.2c0-0.7,0.2-1.3,0.4-1.9c0.2-0.6,0.6-1.1,1-1.5c0.4-0.4,1-0.8,1.6-1c0.6-0.2,1.3-0.4,2.1-0.4
				c0.9,0,1.7,0.1,2.3,0.4c0.6,0.3,1.1,0.6,1.5,1c0.4,0.4,0.7,0.9,0.9,1.3c0.2,0.5,0.3,0.9,0.3,1.3c0,0.1,0,0.2-0.1,0.3
				c-0.1,0.1-0.2,0.1-0.3,0.1H81c-0.1,0-0.2,0-0.3-0.1c-0.1-0.1-0.2-0.2-0.2-0.3c-0.1-0.3-0.2-0.6-0.3-0.9c-0.1-0.3-0.3-0.6-0.6-0.8
				c-0.3-0.2-0.6-0.4-1-0.6c-0.4-0.1-0.9-0.2-1.5-0.2c-1.1,0-1.9,0.3-2.5,0.9C74.2,34.4,73.9,35.2,73.8,36.2z"/>
			<path class="st3" d="M83.2,41.6c0-0.5,0.1-0.9,0.3-1.3c0.2-0.4,0.5-0.7,0.8-0.9c0.3-0.3,0.7-0.5,1.2-0.6c0.5-0.2,0.9-0.3,1.4-0.4
				l2.5-0.4v-0.2c0-0.6-0.2-1.1-0.6-1.4c-0.4-0.3-0.9-0.5-1.5-0.5c-0.5,0-0.9,0.1-1.2,0.3c-0.3,0.2-0.5,0.4-0.7,0.7
				c-0.1,0.1-0.2,0.2-0.2,0.2c-0.1,0-0.2,0.1-0.3,0.1h-0.5c-0.1,0-0.2,0-0.4-0.1c-0.1-0.1-0.1-0.2-0.1-0.3c0-0.3,0.1-0.5,0.3-0.8
				c0.2-0.3,0.4-0.5,0.8-0.7s0.7-0.4,1.1-0.5s0.9-0.2,1.3-0.2c0.5,0,1,0.1,1.5,0.2c0.5,0.2,0.9,0.4,1.2,0.7s0.6,0.7,0.8,1.1
				s0.3,1,0.3,1.5v5.5c0,0.1,0,0.2-0.1,0.3C90.8,44,90.7,44,90.6,44h-0.7c-0.1,0-0.2,0-0.3-0.1c-0.1-0.1-0.1-0.2-0.1-0.3v-0.7
				c-0.1,0.2-0.3,0.4-0.5,0.6c-0.2,0.2-0.5,0.3-0.8,0.4s-0.6,0.2-0.9,0.3c-0.3,0.1-0.6,0.1-0.9,0.1c-0.5,0-0.9-0.1-1.3-0.2
				c-0.4-0.1-0.7-0.3-1-0.5s-0.5-0.5-0.6-0.8C83.3,42.3,83.2,42,83.2,41.6z M86.5,42.6c0.4,0,0.8-0.1,1.2-0.2
				c0.4-0.1,0.7-0.3,0.9-0.5c0.3-0.2,0.5-0.5,0.6-0.8c0.1-0.3,0.2-0.7,0.2-1.1v-0.5l-2.1,0.3c-0.8,0.1-1.4,0.3-1.8,0.6
				c-0.4,0.3-0.7,0.6-0.7,1c0,0.1,0,0.3,0.1,0.4c0.1,0.1,0.2,0.3,0.3,0.4c0.1,0.1,0.3,0.2,0.5,0.3C86,42.6,86.2,42.6,86.5,42.6z"/>
			<path class="st3" d="M97.9,34.6c0.1,0,0.2,0,0.3,0.1s0.1,0.2,0.1,0.3v0.6c0,0.1,0,0.2-0.1,0.3c-0.1,0.1-0.2,0.1-0.3,0.1h-1
				c-1.4,0-2.1,0.7-2.1,2.1v5.3c0,0.1,0,0.2-0.1,0.3C94.6,44,94.5,44,94.3,44h-0.7c-0.1,0-0.2,0-0.3-0.1c-0.1-0.1-0.1-0.2-0.1-0.3
				v-8.4c0-0.1,0-0.2,0.1-0.3c0.1-0.1,0.2-0.1,0.3-0.1h0.7c0.1,0,0.2,0,0.3,0.1c0.1,0.1,0.1,0.2,0.1,0.3v0.6
				c0.2-0.4,0.5-0.6,0.9-0.8c0.3-0.2,0.8-0.3,1.3-0.3H97.9z"/>
			<path class="st3" d="M102.9,34.5c0.7,0,1.3,0.1,1.8,0.4c0.4,0.3,0.8,0.5,1,0.8v-4c0-0.1,0-0.2,0.1-0.3s0.2-0.1,0.3-0.1h0.7
				c0.1,0,0.2,0,0.3,0.1c0.1,0.1,0.1,0.2,0.1,0.3v11.8c0,0.1,0,0.2-0.1,0.3c-0.1,0.1-0.2,0.1-0.3,0.1h-0.7c-0.1,0-0.2,0-0.3-0.1
				c-0.1-0.1-0.1-0.2-0.1-0.3V43c-0.2,0.3-0.6,0.6-1,0.9c-0.4,0.2-1,0.4-1.8,0.4c-0.6,0-1.1-0.1-1.6-0.3c-0.5-0.2-0.9-0.5-1.3-0.9
				s-0.6-0.8-0.9-1.4c-0.2-0.5-0.3-1.1-0.4-1.8c0-0.2,0-0.4,0-0.6c0-0.2,0-0.4,0-0.6c0-0.7,0.2-1.3,0.4-1.8c0.2-0.5,0.5-1,0.9-1.3
				c0.4-0.4,0.8-0.6,1.3-0.8C101.8,34.6,102.3,34.5,102.9,34.5z M105.7,40.1c0-0.2,0-0.4,0-0.7s0-0.5,0-0.7c0-0.9-0.3-1.5-0.8-2
				c-0.5-0.5-1.1-0.7-1.8-0.7c-0.8,0-1.4,0.3-1.9,0.8s-0.7,1.2-0.8,2.1c0,0.3,0,0.7,0,1c0,0.9,0.3,1.5,0.8,2.1s1.1,0.8,1.9,0.8
				c0.7,0,1.4-0.2,1.8-0.7S105.6,40.9,105.7,40.1z"/>
		</g>
		<g>
			<path class="st3" d="M176.6,95.9c0.1,0,0.2,0,0.3,0.1c0.1,0.1,0.1,0.2,0.1,0.3v1c0,0.1,0,0.2-0.1,0.3c-0.1,0.1-0.2,0.1-0.3,0.1
				h-2.5v7.7c0,0.1,0,0.2-0.1,0.3c-0.1,0.1-0.2,0.1-0.3,0.1h-1.1c-0.1,0-0.2,0-0.3-0.1c-0.1-0.1-0.1-0.2-0.1-0.3v-7.7h-2.5
				c-0.1,0-0.2,0-0.3-0.1c-0.1-0.1-0.1-0.2-0.1-0.3v-1c0-0.1,0-0.2,0.1-0.3c0.1-0.1,0.2-0.1,0.3-0.1H176.6z"/>
			<path class="st3" d="M182,95.9c0.1,0,0.3,0,0.3,0.1c0.1,0.1,0.1,0.2,0.2,0.4l3.4,8.8c0,0,0,0.1,0,0.1c0,0.1,0,0.2-0.1,0.3
				c-0.1,0.1-0.2,0.1-0.3,0.1h-1c-0.2,0-0.3,0-0.4-0.1c-0.1-0.1-0.1-0.2-0.2-0.2l-0.6-1.6H179l-0.6,1.6c0,0.1-0.1,0.2-0.2,0.2
				c-0.1,0.1-0.2,0.1-0.4,0.1h-1c-0.1,0-0.2,0-0.3-0.1c-0.1-0.1-0.1-0.2-0.1-0.3c0,0,0-0.1,0-0.1l3.4-8.8c0.1-0.2,0.1-0.3,0.2-0.4
				c0.1-0.1,0.2-0.1,0.3-0.1H182z M182.8,102l-1.5-4l-1.5,4H182.8z"/>
			<path class="st3" d="M191.2,95.9c1.2,0,2.1,0.3,2.7,0.8c0.6,0.5,0.9,1.3,0.9,2.3c0,0.7-0.2,1.3-0.5,1.7c-0.3,0.5-0.8,0.8-1.4,1.1
				l1.9,3.5c0,0.1,0,0.1,0,0.2c0,0.1,0,0.2-0.1,0.2c-0.1,0.1-0.1,0.1-0.2,0.1h-1.2c-0.2,0-0.3,0-0.4-0.1s-0.2-0.2-0.2-0.2L191,102
				h-1.9v3.3c0,0.1,0,0.2-0.1,0.3c-0.1,0.1-0.2,0.1-0.3,0.1h-1.1c-0.1,0-0.2,0-0.3-0.1c-0.1-0.1-0.1-0.2-0.1-0.3v-9
				c0-0.1,0-0.2,0.1-0.3c0.1-0.1,0.2-0.1,0.3-0.1H191.2z M189.1,100.3h2c0.5,0,1-0.1,1.3-0.3s0.5-0.5,0.5-1.1c0-0.5-0.2-0.9-0.5-1
				c-0.3-0.2-0.7-0.3-1.3-0.3h-2V100.3z"/>
			<path class="st3" d="M196.3,99.5c0-0.5,0.1-1,0.3-1.5s0.4-0.9,0.8-1.2s0.8-0.6,1.3-0.8c0.5-0.2,1.1-0.3,1.8-0.3
				c0.7,0,1.3,0.1,1.8,0.3c0.5,0.2,0.9,0.5,1.3,0.8c0.3,0.3,0.6,0.7,0.8,1.2c0.2,0.5,0.3,1,0.3,1.5c0,0.2,0,0.4,0,0.6s0,0.4,0,0.7
				c0,0.2,0,0.5,0,0.7c0,0.2,0,0.4,0,0.6c0,0.5-0.1,1-0.3,1.5c-0.2,0.5-0.4,0.9-0.8,1.2s-0.8,0.6-1.3,0.8c-0.5,0.2-1.1,0.3-1.8,0.3
				c-0.7,0-1.3-0.1-1.8-0.3c-0.5-0.2-0.9-0.5-1.3-0.8s-0.6-0.7-0.8-1.2s-0.3-1-0.3-1.5c0-0.2,0-0.4,0-0.6c0-0.2,0-0.4,0-0.7
				c0-0.2,0-0.5,0-0.7C196.3,99.9,196.3,99.7,196.3,99.5z M202.6,99.6c0-0.7-0.3-1.2-0.7-1.6c-0.4-0.4-0.9-0.6-1.6-0.6
				s-1.2,0.2-1.6,0.6c-0.4,0.4-0.6,0.9-0.7,1.6c0,0.4,0,0.7,0,1.2c0,0.4,0,0.8,0,1.2c0,0.7,0.3,1.2,0.7,1.6c0.4,0.4,0.9,0.5,1.6,0.5
				s1.2-0.2,1.6-0.5c0.4-0.4,0.6-0.9,0.7-1.6c0-0.4,0-0.7,0-1.2C202.7,100.3,202.7,99.9,202.6,99.6z"/>
			<path class="st3" d="M216.6,95.9c0.1,0,0.2,0,0.3,0.1c0.1,0.1,0.1,0.2,0.1,0.3c0,0,0,0.1,0,0.1l-3.3,5.8v3.1c0,0.1,0,0.2-0.1,0.3
				c-0.1,0.1-0.2,0.1-0.3,0.1h-1.1c-0.1,0-0.2,0-0.3-0.1c-0.1-0.1-0.1-0.2-0.1-0.3v-3.1l-3.3-5.8c0,0,0-0.1,0-0.1
				c0-0.1,0-0.2,0.1-0.3c0.1-0.1,0.2-0.1,0.3-0.1h1.1c0.2,0,0.3,0,0.4,0.1c0.1,0.1,0.1,0.2,0.2,0.2l2.3,4l2.3-4c0,0,0.1-0.1,0.2-0.2
				c0.1-0.1,0.2-0.1,0.4-0.1H216.6z"/>
			<path class="st3" d="M222,95.9c0.1,0,0.3,0,0.3,0.1c0.1,0.1,0.1,0.2,0.2,0.4l3.4,8.8c0,0,0,0.1,0,0.1c0,0.1,0,0.2-0.1,0.3
				c-0.1,0.1-0.2,0.1-0.3,0.1h-1c-0.2,0-0.3,0-0.4-0.1c-0.1-0.1-0.1-0.2-0.2-0.2l-0.6-1.6H219l-0.6,1.6c0,0.1-0.1,0.2-0.2,0.2
				c-0.1,0.1-0.2,0.1-0.4,0.1h-1c-0.1,0-0.2,0-0.3-0.1c-0.1-0.1-0.1-0.2-0.1-0.3c0,0,0-0.1,0-0.1l3.4-8.8c0.1-0.2,0.1-0.3,0.2-0.4
				c0.1-0.1,0.2-0.1,0.3-0.1H222z M222.7,102l-1.5-4l-1.5,4H222.7z"/>
			<path class="st3" d="M231.8,100.9l2.7-4.6c0,0,0.1-0.1,0.2-0.2c0.1-0.1,0.2-0.2,0.4-0.2h1c0.1,0,0.2,0,0.3,0.1
				c0.1,0.1,0.1,0.2,0.1,0.3v9c0,0.1,0,0.2-0.1,0.3c-0.1,0.1-0.2,0.1-0.3,0.1h-1.1c-0.1,0-0.2,0-0.3-0.1c-0.1-0.1-0.1-0.2-0.1-0.3
				v-5.5l-1.8,3.1c0,0.1-0.1,0.2-0.2,0.2s-0.2,0.1-0.3,0.1h-0.7c-0.1,0-0.2,0-0.3-0.1s-0.1-0.2-0.2-0.2l-1.8-3.1v5.5
				c0,0.1,0,0.2-0.1,0.3c-0.1,0.1-0.2,0.1-0.3,0.1h-1.1c-0.1,0-0.2,0-0.3-0.1c-0.1-0.1-0.1-0.2-0.1-0.3v-9c0-0.1,0-0.2,0.1-0.3
				c0.1-0.1,0.2-0.1,0.3-0.1h1c0.2,0,0.3,0.1,0.4,0.2c0.1,0.1,0.2,0.2,0.2,0.2L231.8,100.9z"/>
			<path class="st3" d="M243.2,95.9c0.1,0,0.3,0,0.3,0.1c0.1,0.1,0.1,0.2,0.2,0.4l3.4,8.8c0,0,0,0.1,0,0.1c0,0.1,0,0.2-0.1,0.3
				c-0.1,0.1-0.2,0.1-0.3,0.1h-1c-0.2,0-0.3,0-0.4-0.1c-0.1-0.1-0.1-0.2-0.2-0.2l-0.6-1.6h-4.4l-0.6,1.6c0,0.1-0.1,0.2-0.2,0.2
				c-0.1,0.1-0.2,0.1-0.4,0.1h-1c-0.1,0-0.2,0-0.3-0.1c-0.1-0.1-0.1-0.2-0.1-0.3c0,0,0-0.1,0-0.1l3.4-8.8c0.1-0.2,0.1-0.3,0.2-0.4
				c0.1-0.1,0.2-0.1,0.3-0.1H243.2z M244,102l-1.5-4l-1.5,4H244z"/>
			<path class="st3" d="M252.3,95.9c0.7,0,1.3,0.1,1.8,0.3c0.5,0.2,0.9,0.4,1.3,0.8s0.6,0.7,0.8,1.2c0.2,0.5,0.3,1,0.3,1.6
				c0,0.7,0,1.4,0,2.1c0,0.6-0.1,1.1-0.3,1.6c-0.2,0.5-0.4,0.9-0.8,1.2s-0.8,0.6-1.3,0.8c-0.5,0.2-1.1,0.3-1.8,0.3h-3.5
				c-0.1,0-0.2,0-0.3-0.1c-0.1-0.1-0.1-0.2-0.1-0.3v-9c0-0.1,0-0.2,0.1-0.3c0.1-0.1,0.2-0.1,0.3-0.1H252.3z M254.6,99.7
				c0-0.3-0.1-0.6-0.2-0.8c-0.1-0.3-0.2-0.5-0.4-0.7c-0.2-0.2-0.4-0.3-0.7-0.4c-0.3-0.1-0.6-0.2-1-0.2h-1.9v6.3h1.9
				c0.4,0,0.7-0.1,1-0.2s0.5-0.3,0.7-0.4c0.2-0.2,0.3-0.4,0.4-0.7c0.1-0.3,0.2-0.5,0.2-0.8C254.6,101.1,254.6,100.4,254.6,99.7z"/>
			<path class="st3" d="M262.7,95.9c0.1,0,0.3,0,0.3,0.1c0.1,0.1,0.1,0.2,0.2,0.4l3.4,8.8c0,0,0,0.1,0,0.1c0,0.1,0,0.2-0.1,0.3
				c-0.1,0.1-0.2,0.1-0.3,0.1h-1c-0.2,0-0.3,0-0.4-0.1c-0.1-0.1-0.1-0.2-0.2-0.2l-0.6-1.6h-4.4l-0.6,1.6c0,0.1-0.1,0.2-0.2,0.2
				c-0.1,0.1-0.2,0.1-0.4,0.1h-1c-0.1,0-0.2,0-0.3-0.1c-0.1-0.1-0.1-0.2-0.1-0.3c0,0,0-0.1,0-0.1l3.4-8.8c0.1-0.2,0.1-0.3,0.2-0.4
				c0.1-0.1,0.2-0.1,0.3-0.1H262.7z M263.5,102l-1.5-4l-1.5,4H263.5z"/>
		</g>
	</g>
</g>
</svg>
